<?xml version="1.0" encoding="UTF-8"?><svg id="a" xmlns="http://www.w3.org/2000/svg" width="16.09cm" height="15.5cm" viewBox="0 0 456 439.41"><path d="M57.82,142.94c20.7-39.27,23.55-91.68,61.09-115.29,37.89-23.82,86.76-8.55,131.44-5.78,46.36,2.87,96.52-4.27,134.72,22.27,38.85,27,64.34,73.18,70.21,120.16,5.48,43.83-21.6,83.27-39.78,123.47-14.96,33.08-28.29,67.94-56.89,90.25-27.25,21.26-63.57,21.43-97.08,29.87-35.84,9.02-70.67,30.57-106.49,21.37-37.18-9.55-62.27-42.37-87.66-71.23C39.37,326.2,1.95,295.49.06,253.13c-1.88-42.34,38.02-72.75,57.76-110.19Z" fill="#dcc1f7" fill-rule="evenodd"/><path d="M411.25,143.16c12.72,41.22,46.98,79.11,37.13,121.23-9.94,42.51-54.58,65.82-87.65,94.8-34.31,30.07-64.35,69.63-109.34,77.83-45.76,8.34-95.47-5.69-132.05-33.83-34.13-26.26-42.53-71.99-57.65-112.11-12.44-33.02-27.26-66.12-22.74-101.17,4.3-33.4,29.5-58.62,47.03-87.56,18.75-30.95,28.13-69.79,59.47-88.24C177.99-5.04,218.18.11,255.84,2.34,297.38,4.8,344.72,0,375.32,27.72c30.59,27.72,23.8,76.13,35.93,115.43Z" fill="#eedeff" fill-rule="evenodd"/><path d="M353.52,197.74h0c-2.58-13.86-14-56.32-19.53-70.15-3.14-7.84-6.73-13.2-15.84-11.8-.02,0-5.1,1.09-13.78,3.05,0,.04,0,.08,0,.13-.08-.77-.18-1.55-.33-2.34h0c-1.77-9.55-7.84-16.81-14.55-20.68-.36-.21-.33-.25.21-1.13.12-.2.27-.43.44-.73.4-.67.1-.9-.8-1.6l-.12-.09c-.14-.11-.26-.21-.37-.29-.59-.48-.89-.72-3.74-2.32-.48-.28-1.15-.54-1.52-.12-.65.73-.89,1.45-1.06,1.99-.2.63-.32.99-.93.81-3.62-1.08-6-1.31-9.23-1.57-1.61-.13-2.52-.04-3.14.02q-1.32.13-4.04-2.43c-2.53-2.39-4.66-4.37-8.03-6.05-7.08-3.52-11.37-.26-10.69,2.15.66,2.3,4.67,4.75,7.19,6.28,1.13.69,1.96,1.19,2.05,1.42-.07,0-.23-.02-.49-.06-1.16-.18-4.16-.65-8.07.5-6.59,1.94-7.15,5.72-4.52,7.37,1.7,1.07,6.41,1.59,8.38,1.52.49-.02.09,1.15-.62,3.21-1.22,3.58-3.35,9.84-3.35,17.23-.12,0-.23,5.11,2.49,11.41-.21-.48-.41-.96-.58-1.43-25.99,6.51-55.95,14.5-83.68,23.03-4.39,1.35-27.7,8.69-32.28,10.9-9.25,4.45-6.79,15.01-6.52,17.78.36,3.76,9.6,41.75,15.43,60.22,5.57,17.64,8.21,24.66,25.96,20.66,54.88-12.37,110.26-25.9,163.29-44.7,14.49-5.14,25.33-6.19,22.35-22.21ZM332.32,151.81c.35-.54,1.36-.33,1.85.63,1.28,2.51,3.35,10.4,3.62,12.1.06,1.02-1.57,2.39-2.7-.91-.83-2.42-2.73-8.28-3.06-10.82-.05-.36.1-.7.29-1ZM315.69,205.64c-.46-.2-.85.19-.98.31-1.82,1.78-2.25,2.39-2.43,2.64-.01-.11-.02-.24-.04-.37-.09-.89-.2-2.08-.73-2.27-.21-.07-.43,0-.66.24-.29.29-1.8,2.25-2.44,3.63-.14.31-.22.36-.22.36-.03,0-.13-.09-.26-.2-.42-.35-1.2-1-1.65-.67-.4.29-.28,1.14-.14,2.12h0c.07.5.09.66.1.81.01.13.03.24.07.55.04.28-.04.47-.24.55-2.55,1.04-3.73,1.35-4.83,1.63-.88.23-1.71.45-3.15,1.02h0c-.25.1-.34.13-.39-.03-.09-.29-3.12-9.73-3.11-10.12,2.48-.5,3.68-.89,6.94-1.96l.29-.1c.65-.21.82-.74.71-1.16-.97-3.6-1.78-6.52-2.38-8.68-.78-2.83-1.21-4.37-1.19-4.51.13-.04,14.7-3.95,17.8-4.89.76,1.73,2.12,6.05,2.4,6.93.49,1.56.77,1.47,4.73.19l.41-.13c3.8-1.23,6.17-1.97,7.64-2.43.87-.27,1.41-.44,1.77-.56.71,2.99,1.3,5.65,1.69,7.82.55,3.01.52,5.26,0,7.03-1.34.54-3.61,1.42-7.56,2.77-1.3.44-2.46.84-3.5,1.2h-.03c-5.71,1.97-7.66,2.63-8.03,2.62-.01-.11-.03-.21-.06-.34-.09-.39-.22-1-.16-2.56h0c.03-.77.05-1.27-.35-1.45ZM304.5,120.58s0-.03,0-.05c0,.02,0,.03,0,.05ZM284.57,103.69c.33-.57.65-1.14.98-1.71h0c.83-1.46,1.67-2.92,2.52-4.37.04-.07.08-.14.11-.2.12-.22.18-.32.26-.34.08-.02.17.05.35.17.05.04.11.08.18.12,2.59,1.71,3.24,2.2,4.22,3.04,5.8,4.94,9.83,12.07,9.78,19.47,0,.41,0,.74.01,1.01,0,.33.02.56,0,.72-3.9.09-6.01.27-9.38,1.29-.19-.07-.34-.56-.55-1.23-.42-1.36-1.08-3.46-2.73-4.36-.85-.46-1.72-.67-2.29-.8-.52-.12-.79-.19-.56-.33,5.71-3.52,4.96-8.69,1.06-10.96-1.58-.92-2.77-1.05-3.43-1.12-.51-.06-.71-.08-.52-.41ZM289.41,133.34h0c0,.2-.08.28-.29.25-2.3-.4-4.54-.98-6.75-1.73-1.92-.65-4.3-1.95-4.61-2.35.4-.16,11.89-1.71,11.91-1.55.12,0,.22,0,.32,0,.39,0,.55,0,.6.07.04.06,0,.15-.05.33-.03.09-.06.19-.09.32-.3,1.13-.51,1.92-.66,2.49-.3,1.12-.36,1.36-.38,1.6,0,.07,0,.13,0,.22,0,.09,0,.2,0,.35ZM290.13,127.03c-.07-.01-.15-.03-.23-.04h0c-1.32-.21-5.33.45-8.6,1-2.47.41-4.51.74-4.68.59-.09-.08-.19-.16-.29-.23-.06-.05-.12-.09-.18-.14-.28-.22-.64.17-.5.46,1.49,2.98,10.93,6.01,14.27,5.88.56-.02.57-.28.58-1,.01-.6.03-1.52.39-2.89.15-.58.29-1.16.43-1.73h0c.13-.54.26-1.08.4-1.62.05-.19.12-.38.2-.57.07-.18.14-.37.19-.56.13-.49.26-1.05.37-1.51.1-.44.19-.8.23-.93.73,1.11-.23,4.67-.79,6.74-.16.61-.29,1.09-.34,1.34-.21,1.25-.31,2.61-.35,3.34-4.45.34-7.56-.32-9.41-.94-3.05-1.03-6.15-3.95-6.92-5.32-.3-1.61,1.33-6.7,2.58-8.58.89-1.34,1.24-2.16,1.44-2.64.25-.6.27-.65.86-.5,1.69.44,2.69.34,3.43.25.3-.03.56-.06.8-.05,6.82.4,8.72,1.51,6.98,8.8h0c-.13.56-.19.79-.33.87-.1.06-.25.03-.51-.01ZM275.6,131.58c1.3,1.29,3.31,2.91,5.82,3.76,3.25,1.09,6.99,1.27,10.42.95.3-.03.53-.27.54-.57,0-.02.08-2.03.36-3.72.07-.44.23-.99.42-1.63.49-1.69,1.17-3.99.84-6.32,3.48-1.01,4.79-1.12,8.81-1.23.04.05.05.13.04.22-.98,9.73-7.93,17.8-17.33,21.49-9.78,3.83-20.01,1.77-21.23.89,2.06-3.58,7.33-10.23,11.31-13.84ZM283.85,105.57c.17-.05.37-.02.63.01.09.01.19.02.31.03h0c7.26.71,7.45,8.47-1.35,10.22-.62.12-.66.12-3.65-.03h-.18c-.42-.03-.71-.08-.91-.11-.39-.06-.48-.07-.6.2l-.13.29c-.88,2.05-1.61,3.75-3.65,5.53-3.05,2.66-6.98,3.01-8.41-.44-.71-1.71-.58-2.97-.45-4.29l.02-.18v-.1c.06-.5.15-.52,1.14-.69h0c.22-.04.49-.09.82-.15,2.78-.53,4.87-.9,6.45-1.18h0c4.93-.87,4.97-.88,5.62-2.02,1-1.76,1.73-3.09,2.29-4.1,1.24-2.27,1.58-2.89,2.05-3.01ZM251.2,107.26c.73-2.36,1.37-4.4,1.53-6.1.05-.59-1.51-.76-3.43-.96-2.3-.24-5.1-.54-6.22-1.68-1.88-1.92,2.93-5.04,9.52-5.17.89.07,1.65.13,2.3.18,3.25.26,3.59.28,3.7-.05.28-.83-2.22-2.51-4.87-4.3-2.23-1.51-4.58-3.09-5.47-4.3-1.23-1.68,2.13-3.7,7.1-1.75,3.94,1.55,6.47,3.87,8.54,5.76,1.9,1.74,3.4,3.11,5.25,3.2.53.02,1.03.03,1.55.03,2.05.02,4.31.04,9.39,1.33,1.63.41,1.65.49,1.57.71-2.7,7.35-3.64,10.23-4.65,13.37-.21.64-.42,1.28-.64,1.98-.04.14-1.88.1-4.46.05-4.77-.1-12.09-.26-15.47.56-.62.15-.59.73-.36,1.88.61,3.11.75,3.62,1.37,5.34.18.49.71.38,3.7-.23.7-.14,1.53-.31,2.52-.51.57-.11.52.2.42.91-.12.83-.32,2.21.32,4.08.67,1.97,2.14,3.4,4.22,3.73,2.32.37,4.17-.71,5.13-1.27.34-.2.57-.33.67-.31-.37,1.31-1.31,4.81-.47,5.99.04.05.32.45.83,1.02-4.21,3.82-9.8,10.95-11.75,14.51-.24.03-3.07-1.04-5.07-2.69h0c-2.2-1.82-4.4-4.2-5.75-6.72-6.26-11.65-3.2-21.49-1.01-28.55ZM250.19,134.86c-.22-.46-.43-.91-.62-1.36.19.45.4.9.62,1.36ZM250.91,136.26c.04.07.08.14.12.21-.04-.07-.09-.14-.13-.21-.26-.47-.49-.93-.72-1.4.22.46.46.93.72,1.39ZM134.34,184.67c-1.36-6.36-1.21-11.41,4.53-14.47,2.35-1.26,32.65-10.57,32.68-10.58,28.02-8.09,52.67-14.8,80.38-21.67-.06-.08-.1-.18-.16-.26,12.46,19.3,49.02,10.97,52.48-12.37,0,.04,0,.09-.02.13,4.41-.86,4.91-.51,6.82.12,4.67,1.56,6.29,6.7,7.88,11.49,3.13,9.38,10.48,33.95,14.43,50.12-4.19,1.43-7.54,2.41-9.79,3.08-1.1.32-1.93.57-2.49.75-.05.02-.1.04-.15.05-.23.08-.41.14-.44.13-.02-.02-.04-.1-.07-.18-.21-.65-.41-1.25-.58-1.8-1.85-5.72-1.98-6.11-2.85-5.91-6.42,1.54-16.82,4.47-18.73,5.09-1.06.34-.72,1.46.51,5.59h0c.55,1.85,2.21,7.55,2.44,8.61-.09.03-.16.04-.27.07-.38.08-1.17.26-4.91,1.44h-.02c-1.09.35-2.2.7-2.36.7-.12,0-.22.06-.29.17-.67,1.12,2.77,10.7,3.18,11.49-.16.07-.53.17-1.23.35h0c-.38.1-.86.23-1.46.39,1.04-1.57.84-4.57-.43-5.97-1.06-1.17-1.79-1.53-2.63-1.94h0c-.07-.04-.15-.07-.22-.11.03-.04.06-.09.1-.14.17-.22.41-.53.55-1.07.49-1.95-1.72-3.91-3.47-2.4-.77.66-.83,1.42-.86,1.7h0c-.04.48-.23.52-.67.61-.44.1-1.12.25-2.14.95-.01.01-.03.02-.04.03h-.02s-.03.03-.04.03c-.02.01-.04.02-.04.03-.02-.02-.04-.06-.06-.1h0c-.15-.25-.42-.72-1.44-1.03-.96-.28-1.5.26-1.94.7-.08.08-.16.16-.24.23-.77.7-.69,2.27.27,2.8.24.13.74.4.78.46h0s0,0,0,0h0s-.01.02-.02.04c-1.78,2.48-1.22,5.53.06,7.32.45.62.98.94,1.27,1.11-.04,0-2.72.57-2.76.56-.03-.05-.31-1.12-.69-2.52h0c-.46-1.71-1.05-3.92-1.48-5.43-1.18-4.11-1.31-4.16-2.99-3.74.68-.87.39-1.56-3.42-10.76-.43-1.03-.9-2.17-1.42-3.43-.65-1.57-1.03-2.36-1.25-2.81-.15-.3-.22-.46-.26-.6,1.53-.38,3.68-.76,5.77-1.14,3.13-.56,6.12-1.09,6.69-1.56.07-.06.13-.13.19-.21.06-.07.14-.17.18-.18.04,0,.07.01.11.04.16.1.49.32,1.88.03,2.16-.46,3.42-.8,4.16-1,.85-.23,1-.27,1.03-.08.53,3.09.62,3.4,1.03,3.72.01.01.03.05.03.07-.11,1.21,1.95,9.83,2.56,11.4.28.73.92.71,2.57.27,2.8-.74,2.57-1.42,1.89-3.51-.23-.71-.53-1.59-.77-2.69-.18-.85-1.82-8.65-1.85-9.86-.01-.53.01-.53,2-.82.44-.06.97-.14,1.62-.24.64-.1,1.1-.19,1.34-.57.28-.44.21-1.17-.28-2.81-.4-1.34-1.55-1.13-2.77-.89-.53.1-1.87-12.31-2.41-17.29-.12-1.12-.2-1.86-.22-2.01.07.02.15.04.23.06.17.05.37.1.65.16,1.22.23,1.61-1.18,1.92-2.31h0s.08-.3.08-.3c.22-.77.05-1.67-.73-1.89-1-.28-1.89-.52-2.68-.74h0c-4.99-1.38-5.99-1.66-7-1.85-.26-.05-.51-.09-.83-.15l-.12-.02c-1.51-.26-2.72-.48-3.7-.67-2.57-.48-3.51-.66-4.06-.28-.32.22-.51.63-.81,1.27h0s0,0,0,0c-.07.15-.14.31-.23.48-.07-.15-.12-.34-.19-.54-.2-.64-.44-1.45-1.24-1.8-.88-.38-2.23-.1-4.15.84-.69.34-.81.76-.85,1.15-.39-.47-.71-.85-1.33-1.26-.73-.48-1.22-.13-1.69.3-5.79,5.28-8.52,8.22-11.15,11.17-.79.89-.68,2,.38,3.35.52.66.96,1.23,1.85.68.38-.23.62-.47.78-.63.06-.06.11-.11.15-.14.14.22,6.98,18.79,6.65,18.95h0c-.41.2-.79.39-.76,1.35.03,1.12.6,1.7.91,2.01.04.04.1.1.13.14h-.02s0,.01,0,.01c-.75.28-1.35.51-1.06,1.45,1.09,3.59,1.22,3.95,5.34,14.57h0s0,0,0,0h0s1.07,2.76,1.07,2.76c-.12.05-.31.11-.64.21-.56.18-1.53.49-3.3,1.1-.24-.76-.42-1.58-.65-2.58-.45-1.97-1.06-4.65-2.53-8.97l-.03-.09c-.66-1.94-.69-2.04-2.4-1.63-.55.13-1.16.27-1.83.43h0c-4.25,1-10.55,2.48-13.98,3.7-1.95.7-1.58,1.9-.84,4.33.33,1.06.72,2.34,1.03,3.92.04.18.03.24.03.25-.03.04-.55.18-1.31.39-1.39.37-3.59.96-5.13,1.58-1.37.55-1.26,1.08.4,6.6.12.39.21.69.29.93.25.78.27.86.13,1.07-.87,1.33-1.68,2.78-2.53,4.29-.78,1.4-1.6,2.85-2.51,4.31-1.12,1.77-1.39,2.58-1.53,2.99-.13.39-.14.41-.63.55-.83.24-1.37.44-1.73.58-.4.15-.58.22-.71.17-.12-.05-.19-.2-.32-.47-.15-.31-.38-.79-.84-1.47-.2-.29-.43-.57-.72-.59-.69-.04-1.57,1.59-1.84,2.27-.04.09-.08.18-.11.24-.5-.48-1.11-.63-1.71-.78-.23-.06-.46-.11-.68-.19-.45-.16-.93.36-.82.83.12.47.32,1.28.47,1.85h0s0,0,0,0c.09.35.15.6.16.62-.04.01-.17.03-.39.07-1.36.21-6.12.95-12.34,3.37l-.04.02c-.06.02-.1.04-.09.05-.03-.04-.09-.24-.14-.45-.16-.59-.26-.91-.32-1.09-.08-.23-.08-.23-.01-.28.79-.52,2.98-2.87,2.46-3.46-.35-.4-.64-.33-.88-.27h0c-.22.06-.43.05-.65.05-.47,0-1.01,0-1.97.51-.1-.08-.39-.94-.49-1.25-.02-.05-.03-.09-.03-.1,1.53-1.35,2.56-2.95,2.26-3.53-.15-.29-.45-.21-.93-.1-.11.03-.24.06-.37.09h0c-.93.2-1.9.41-2.69,1.09-.08.07-.09.07-.16,0l-.04-.03-.12-.11c-.32-.29-1-.9-1.01-.92,0-.03.07-.1.12-.16.15-.17.29-.32.42-.47.89-.97,1.49-1.63,2.2-4.04.15-.49.08-.79-.19-.89-.81-.3-3.65,2.48-4.32,4.01v.03c-.18-.09-.76-.62-.97-.84,1.12-.91,2.74-4.54,2.3-5.21-.06-.09-.23-.27-.6-.03-1.21.75-1.8,1.32-2.06,1.56-.1.1-.16.15-.17.14-.02,0,0-.07.03-.2.03-.11.07-.26.11-.47.15-.76.39-4.62-.3-4.93-.09-.04-.26-.07-.46.17-1.04,1.32-1.33,2.41-1.59,3.77-1.5-2.81-2.08-2.99-2.42-2.82-.3.15-.3.31-.29,1.15v.18c-.14.95.26,2.13.52,2.89.03.08.06.16.08.24-.83-.53-1.5-.99-2.06-1.37h0c-1.17-.8-1.88-1.28-2.66-1.47-1.17-.29-2.5.08-5.83,1-.94.26-2.04.56-3.34.91h0q-.32.09-.53-.18c-.46-.62-.79-1.37-1-2.3-.91-3.97-.88-4.06-.63-4.82.18-.54.47-1.41.62-4.22.03-.51.02-.89.01-1.19-.01-.52-.02-.79.2-1.06.29-.36.2-.79-.19-2.48l-.03-.14c-.01-.06-.1-.37-.31-.41-.21-.04-.21-.14-.22-.32,0-.07,0-.16-.02-.26-.59-3.44-.89-3.78-2.04-3.83-1.4-.06-2.86.73-2.54,2.11.09.39.18.77.27,1.13.23.9.41,1.6.27,1.71-.28.22-.38.51-.29.78.02.06.04.12.06.18-.41-.06-.97-.11-1.47-.12-.1-.27-.21-.58-.34-.95-.14-.38-.29-.47-.42-.55-.1-.06-.18-.1-.22-.27-.07-.3-.14-.58-.19-.84h0s0,0,0,0c-.5-2.23-.6-2.68-3.34-1.48-1.26.55-1.01,1.35-.25,3.72h0c.06.19-.01.28-.1.4-.12.16-.27.37-.15.92,0,.03.62,2.73,1.61,2.77.22,0,.32.29.49.77.35.97.99,2.77,3.48,4.9,1.75,1.49,2.65,6.3,2.75,7.14-.61.25-3.78,1.16-7.98,2.37h0c-7.85,2.26-19.27,5.54-24.16,7.45-3.73-12.37-9.92-33.7-13.43-50.07ZM304.43,123.79c0,.06-.01.12-.02.18,0-.06.01-.12.02-.18ZM282.61,212.16c.35-.65-.23-.94-.81-1.23-.43-.21-.85-.42-.92-.78-.11-.57,1.35-2.01,2.11-.65.43.78.68,1.03,1.49.43.91-.67,1.73-.87,2.42-1.04.13-.03.26-.06.39-.1.58-.16.64-.57.71-1.03.05-.39.12-.82.49-1.18,0,0,.02-.01.03-.02,0,0,.02-.02.03-.03.18-.15.62-.51,1.14-.08.41.34.64,1.06.31,1.6-.55.9-.54,1.21-.53,1.43h0s0,.04,0,.06h0s0,.03,0,.03v.02s0,.03,0,.03c-.01.13-.02.26.1.42.15.21.45.35.84.4,3.08.38,4.79,6.52.16,7.77-.85.2-1.67.47-2.45.72-2.81.91-5.11,1.65-6.33-1.21-.79-1.85-.27-3.49.84-5.56h0ZM265.61,220.4h0c-.15-.08-.33-.03-.54.13-1.14.89-1.98,1.99-1.99,2.06-.08-.04-.17-.22-.29-.43-.26-.47-.62-1.12-1.1-1.06-.53.07-.8.85-1.37,3.11-.08.03-.29-.06-.55-.18-.38-.17-.88-.4-1.37-.42-.63-.03-.87.21-.64.85.28.81.49,1.37.63,1.76.23.62.29.79.24.85-.02.02-.06.03-.12.04-.03,0-.07.01-.11.02-6.51,1.55-7.64,2.03-8.59,2.42-1.02.43-1.82.76-8.93,2.26-.9.19-1.92.47-2.87.73-1.29.35-2.45.67-3.03.69.71-1.6,5.53-9.55,5.77-9.91.57-.87.72-1.71.4-2.63-.12-.33-.2-.67-.28-1.02-.14-.59-.28-1.18-.59-1.73-.08-.14-.08-.21-.09-.36-.02-.23-.05-.64-.36-1.74-.22-.77-.34-1.24-.1-1.32,1.47-.47,2.27-.74,2.85-.94.9-.3,1.65-.51,2.26-.68,1.74-.48,2.37-.65,2.1-1.89-.87-4-1.4-5.62-1.66-6.4-.08-.25-.13-.41-.16-.53,1.23-.22,1.51-.3,2.73-.67,4.83-1.46,13.34-3.59,13.72-3.66.4-.08.4-.07.63.77.14.53.37,1.38.84,2.74.35,1.02.52,1.67.84,2.88.32,1.21.79,2.97,1.72,6.2.28.97.92,1.08,1.85.78h.04c.72-.25,6.94-2.29,7.98-2.79.13.27.39,1.22,1.35,4.75h0c.34,1.25.77,2.82,1.31,4.8.42,1.53.41,1.53.23,1.58h0c-2.84.82-5.04,1.48-6.74,2h0c-4.04,1.22-5.29,1.6-5.64,1.2-.16-.18-.13-.52-.09-1.02.02-.26.04-.56.05-.91v-.14s0-.13,0-.13c0-.1,0-.19,0-.28h0c.01-1.13.02-1.64-.31-1.8ZM276.42,159.9h0c.56-.21.64,0,1.13,1.85.39,1.5.57,2.21.67,2.59h0c.09.37.1.42.16.57-.41.22-1.02.37-2.2.67h-.05c-.34.1-.63.17-.89.23-1.46.36-1.76.44-2.02.58-.07.04-.13.08-.21.13-.06.04-.13.09-.21.14-.03.02-.05.03-.07.04l-.05.03c-.1.07-.13.09-.16.08-.01,0-.02,0-.04-.01-.09-.04-.32-.14-1.5-.02-.39.04-1.05.1-1.13,0-.29-1.16-.56-2.03-.76-2.7-.35-1.14-.51-1.68-.31-1.99.18-.28.66-.37,1.57-.54,1.19-.22,3.12-.58,6.09-1.67ZM272.93,155.17c1.35-.41,1.39-.27,2.3,3.05l.12.45c.07.26.05.27-.89.51-.25.07-.56.15-.96.25-.1.03-.2.05-.29.08h0c-.86.24-1.33.37-1.62.2-.34-.2-.43-.83-.62-2.2-.05-.39-.12-.83-.2-1.34-.04-.26.16-.4,2.15-1ZM290.6,191.66h.03c1-.26,1.38-.32,2.2-.44l.26-.04c.39-.01.4,0,.68,1.5l.03.18c.93,5.05,1.48,7.05,1.7,7.88.15.57.16.57.03.63l-.1.04c-.75.32-1.49.64-2.28.78-.49-.86-2.6-10.39-2.62-10.51.01,0,.04-.01.07-.02ZM290.12,190.39c-.06-.14-.17-.58-.35-1.31h0c-.09-.36-.19-.79-.31-1.28v-.02c-.13-.51-.17-.65,2.51-1.04.48.04.72.19.73.44,0,.59.13,1.07.24,1.48.09.34.16.64.15.91-.02.3-.38.35-1,.42-.51.06-1.18.14-1.97.4ZM287.08,186.63c-.64.15-1.23.29-1.75.42h0c-2.03.49-3.19.78-3.51.57-.16-.11-.21-.39-.3-.86-.02-.11-.04-.23-.06-.35,0-.02,0-.04,0-.06q.03-.66,5.94-1.83c1.99-.39,7.72-1.51,9.73-1.76.09.16.25.57.67,1.86-.09.14-.5.19-1.43.31-1.5.19-4.33.54-9.29,1.71ZM272,169.76s-.05.01-.08.02c-2.71.56-5.23.85-6.41.98-.37.04-.61.07-.68.09-.04,0-.5.15-.48.18-.1-.08-.85-2.04-.88-2.16,5.56-.91,6.06-.92,6.7-.93.49-.01.86-.05,1.14-.08.84-.09.93-.1,1.09.96.12.84.03.86-.39.95ZM275.71,185.4c.09.21.03.23-1.26.52-.23.05-.51.12-.83.19-.27,0-.28,0-1.15-3.38-.67-2.6-1.17-4.5-1.57-5.99h0s0-.02,0-.02c-.65-2.42-1-3.75-1.29-5.22.1-.02.23-.04.36-.06.74-.13,1.77-.31,1.88-.27l3.86,14.24ZM265.99,171.9c1.05-.18,2.37-.41,2.53-.3.05.04.08.17.1.35.15,1.1,3.35,13.5,3.76,14.58.01.03.01.06-.01.07-.37.07-.73.16-1.09.26-.39.1-.79.21-1.18.27.24-.59-.14-1.6-.7-3.13-3-8.13-3.91-10.24-4.3-11.14-.15-.34-.22-.51-.3-.77.21-.02.67-.1,1.2-.19ZM272.75,187.68h0c1.26-.28,2.74-.61,4.45-.99h0c2.78-.62,2.78-.61,2.86-.21v.03c.35,1.7.28,1.71-1.11,1.98h-.02c-3.34.65-4.94.89-6.09,1.06-1.4.21-2.15.32-4.6.95l-.15.04c-2.06.53-2.45.63-2.56-1.1.19-.2,1.65-.52,7.21-1.75ZM279.08,185.22h0c-.28.05-.61.11-.92.18-.5.1-.96.2-1.1.19-.15-.38-.66-2.27-1.27-4.59h0c-.93-3.49-2.12-7.94-2.74-9.65l-.05-.13-.06-.15h0c-.05-.13-.07-.19-.08-.24l.04-.02c.28-.15.43-.22.59-.47.01-.02.02-.03.02-.04,0,0,0-.01,0-.01,0,0,.02,0,.06.02h0c.34.17,1.43-.01,2.19-.14.2-.03.37-.06.51-.08.32.67,1.67,5.16,2.81,8.97.83,2.77,1.56,5.19,1.7,5.51.07.15-.03.74-.2.86-.5-.35-1.09-.26-1.51-.19ZM273.59,167.61c.03-.06.11-.15.39-.23,4.51-1.25,7.69-1.77,12.54-2.58h.04s0,0,0,0c.37-.06.76-.13,1.15-.19.03.12.15,1.39.15,1.45v.04c0,.06,0,.1-.01.15-.08.25-.61.35-4.12,1.07-1.29.26-2.99.61-5.22,1.07-.3.06-.59.12-.85.18-2.95.62-3.56.74-3.76.52-.05-.06-.08-.14-.11-.24v-.04s-.02-.01-.02-.01c-.18-.59-.3-.98-.2-1.17h0ZM287.61,162.92c.03.2.05.36-.03.45-.02.02-.1.02-.16.02-.19,0-.59.09-1.18.21-.65.14-1.55.32-2.67.51-1.35.22-2.78.5-3.53.64-.3.06-.49.09-.53.1-.03-.08-.05-.21-.09-.4-.06-.34-.16-.91-.4-1.83-.41-1.6-.59-2.17-.68-2.43-.05-.15-.07-.2-.08-.29,1.44.21,8.08,1.3,9.82,1.67-.61.43-.53.97-.48,1.36ZM288.88,173.33c.32,2.18.67,4.59.98,6.59.33,2.12.34,2.13.64,2.47.05.06.11.12.18.21-.11.05-.14.06-1.39.3-.75.14-1.96.38-3.89.76-.06-.14-.08-.24-.12-.41-.07-.28-.19-.77-.59-1.97-1.9-5.7-3.04-8.73-3.64-10.35-.51-1.37-.65-1.73-.54-1.82.04-.03.1-.03.18-.04.02,0,.04,0,.07,0,1.18-.08,4.4-.87,6.16-1.31.5-.12.89-.22,1.07-.26.12.49.48,2.95.9,5.84ZM280.51,179.82l-3.05-9.89c-.03-.11.25-.22.86-.33.48-.08.71-.13.83-.15.1-.02.13-.03.16-.03.01,0,.03,0,.05,0,.05.04.3.79.77,2.21.6,1.81,1.57,4.71,2.92,8.6v.02s0,0,0,0c.84,2.39,1.22,3.49,1.13,3.65-.01,0-.2.04-.32.06h-.06s-.02.01-.02.01l-.14.04-.15.04c-.7.19-1.11.3-1.39.17-.38-.18-.56-.8-.96-2.24-.16-.58-.37-1.29-.64-2.17ZM294.14,181.41c-.18.02-.36.05-.52.07h0c-.99.14-1.57.22-1.93-.01-.49-.32-.6-1.21-.85-3.31v-.11c-.31-2.45-.69-5.08-1.03-7.47-.62-4.3-1.12-7.83-.87-8.11h0s.1-.04.23-.04h.15c.98-.02,1.31-.08,1.52-.11.18-.03.27-.05.58-.02.47.04.48.17.65,1.92h0c.11,1.09.28,2.8.65,5.51.31,2.27.42,3.43.52,4.47.14,1.46.25,2.66.87,6.27.03.19.06.34.08.46.08.44.09.47-.07.49ZM291.73,160.99c-1.67-.31-4.46-.82-9.12-1.62-5.7-.98-5.97-1.05-5.95-1.72.08-.33.14-.6.18-.82.22-.98.22-1,.59-1.35.9-.06,13.52,2.49,16.65,3.65.13.05.27.07.39.08.08.01.15.02.22.04.21.05.21.05-.16,1.21-.08.23-.17.51-.27.84-.05.15-.21.12-2.54-.31ZM269.26,160.61c-.97.35-2.03.73-1.65,2.39l.03.12c.27,1.2.55,2.47,1.02,3.67,0,0,0,.01,0,.02,0,0,0,.01,0,.02,0,0,.01.02.02.03.02.03.03.06.03.08-.02.1-.38.15-2.32.41l-.47.06c-1.04.14-1.64.2-2.02.24-.46.05-.61.06-.84.15h-.02s-.05.03-.07.02c-.02,0-.04-.03-.08-.1l-.02-.03c-.4-.64-.96-1.04-1.71-.91,1.41-1.52,7.29-7.38,8.66-8.61.14.43.34,1.43.44,1.97-.26.2-.62.33-1,.46ZM256.93,168.98h0s-.03-.02-.07-.08c-.11-.17-.21-.32-.29-.46-.37-.57-.54-.84-.52-1.1.02-.24.23-.47.63-.91.08-.08.16-.17.24-.27,4.36-4.9,6.61-6.89,8.35-8.42.28-.24.54-.47.79-.7.63-.56.92-.85,1.1-1.03.11-.11.18-.18.26-.25.22.24.4.45.56.62h.01s0,.01,0,.01c.83.92.84.92.9,1.04-.78.85-11.7,11.48-11.96,11.56ZM260.56,168.3h0c.31-.09.67-.19,1.09-.31.16.03.22.08.28.24.82,2.01,1.47,3.59,2.02,4.93,1.29,3.12,2.05,4.97,3.13,8.11.6,1.76,1.1,2.92,1.44,3.7.39.89.56,1.3.44,1.56-.1.22-.42.34-1.02.57-.28.11-.63.24-1.05.41-1.01-.09-5.28-12.27-6.99-17.15h0c-.26-.75-.46-1.33-.59-1.66.06-.08.48-.19,1.24-.4ZM266.43,192.86c.31-.11.65-.23.96-.35.57,1.05,4.05,9.77,5.68,13.86h0s0,0,0,0c.41,1.03.71,1.77.81,2.01-.27.37-.68.59-1.26.9-.28.15-.59.32-.95.53-.09-.15-.38-.98-.8-2.18-.79-2.27-2.03-5.87-3.27-8.61-1.01-2.24-1.57-4.02-1.88-4.99-.14-.44-.23-.72-.28-.8.04-.04.47-.19.99-.38ZM210.67,244.22c-5.18,1.28-10.55,2.58-16.11,3.89.33-.43.77-.97,1.38-1.7,1.58-1.86,4.86-2.83,7.16-2.82,2.31.02,5.16-1,6.73-2.09.16.53.3,1,.42,1.4.16.55.29.97.4,1.32ZM148.09,235.83c1.85-.67,6.95-2.19,16.94-5.16,4.4-1.3,8.01-2.38,11-3.27h0c12.66-3.77,14.02-4.17,16.27-4.59.82,0,1.84.55,3.52,1.74-3.72.22-6.54,2.21-9.55,4.33-.29.2-.57.4-.86.61-2.84,1.98-6.58,3.27-9.09,3.14-2.11-.11-7.35.01-10.33,3.46-2.2,2.54-4,2.43-6.97,2.25h-.01c-3.52-.21-6.59.02-9.63,1.75-.38-1.22-.81-2.65-1.29-4.25ZM177.01,209.72c.6.03,1.03.08,1.33.12.05,0,.09.01.14.02.19.59.27.82.45.88.21.06.41.18.46.62.07.57.03,1.32-.1,2.23-.03.19-.05.29-.07.35,0,.04-.01.05,0,.06-.03,0-.1-.03-.33-.22-.53-.44-.76-.87-1.7-2.62l-.31-.57s.03-.13.07-.21l.02-.04c.08-.16.13-.25.04-.6ZM179.27,208.22c.04-.05.22-.06.44-.06.05,0,.11,0,.16,0,.45,0,.87,0,1.47-.1.59-.1.61-.05.71.55v.03c.09.5.15.9.1.97-.02.03-.17.05-.32.06h-.05c-.19.02-.37.04-.52.05-1.09.1-1.44.14-1.61-.02-.08-.08-.11-.19-.17-.36v-.04c-.1-.28-.31-.95-.22-1.08ZM175.59,209.83c-.11.26-.5.39-1.34.69-.25.09-.54.19-.88.32h0c-.08.03-.1.02-.1.02-.17-.08-.69-1.61-.66-1.71.02-.02.12-.05.21-.07h0c.52-.14,1.47-.57,1.99-.8.2-.09.34-.15.36-.15,0,0,.01.02.03.08.07.2.13.38.18.54.2.57.3.88.21,1.1ZM149.75,241.26s.03-.01.04-.02c1.11-.68,3.35-2.06,9.15-1.71h0c3.12.19,5.37.33,7.96-2.66,2.71-3.13,7.85-3.12,9.36-3.04,3.23.17,7.26-1.57,9.83-3.36.29-.2.58-.41.87-.61,3.09-2.18,6.29-4.45,10.47-4.08.02,0,.04,0,.06,0,.56.42,1.17.88,1.84,1.38.91.68,1.93,1.46,3.09,2.32-.5.77-2.09,1.69-6.57,2.16-3.92.41-7.01,1.76-9.19,4.01-2.1,2.18-4.81,3.42-7.24,3.31-2.95-.13-5.34.56-6.72,1.94-1.35,1.35-2.81,1.94-4.49,1.82-1.25-.09-4.35-.13-5.99,1.57-1.41,1.46-3.28,1.92-5.29,2.41-1.56.38-3.19.79-4.77,1.69-.5-1.03-.94-2.19-1.32-3.53,0-.03-.42-1.33-1.11-3.59ZM152.76,249.47c.88-.49,2.26-1.13,4.03-1.52,3.33-.72,4.98-1.46,6.31-2.83.9-.92,2.78-1.38,5.04-1.21,2.01.15,3.84-.58,5.42-2.16,1.12-1.12,3.24-1.7,5.82-1.59,2.77.12,5.81-1.26,8.15-3.67,1.97-2.04,4.82-3.27,8.45-3.65,4.1-.43,6.49-1.27,7.42-2.64.78.58,1.62,1.19,2.52,1.85.96.7.97.73,1.05.96.55,1.5,1.01,2.83,1.42,4.01-1.12.05-3.52.16-6.16.23-3.74.1-7.58,1.36-9.56,3.12-1.61,1.43-3.99,2.41-6.36,2.62-.3.03-.6.05-.9.07-2.42.18-5,.37-6.79,2.25-2.2,2.31-5.21,2.69-6.08,2.75-.15.01-.3.02-.45.03-2.02.13-4.56.29-5.8,1.75-.92,1.08-3.33,3.82-4.3,4.93-3.93-.12-7.05-1.55-9.24-5.3ZM163.61,254.74c1.15-1.31,2.86-3.26,3.6-4.13.8-.93,2.28-1.07,4.06-1.24,2.53-.24,5.65-.53,8.22-3.24,1.49-1.56,3.83-1.73,5.97-1.88.33-.02.65-.04.96-.07,2.62-.23,5.26-1.32,7.05-2.92,1.76-1.57,5.37-2.72,8.79-2.82,2.96-.08,5.62-.21,6.52-.25.26.77.48,1.46.68,2.09-1.14.94-3.93,2.13-6.35,2.11-2.63-.03-6.26,1.08-8.09,3.24-1.15,1.35-1.92,2.39-2.3,2.91-7.36,1.73-15.04,3.5-23.06,5.28-2.18.48-4.2.82-6.06.91ZM323.4,211.06c-4.62,1.41-39.68,15.09-111.47,32.85-.24-.85-.57-2.01-.57-2.01v-.02s0-.03,0-.03c0,0,.01-.01.03-.02h0c5.54-1.85,8.96-2.7,11.02-3.21,2.41-.6,2.97-.74,2.91-1.46-.04-.46-.24-.99-.38-1.37-.15-.39-.23-.62-.05-.49.38.25.67.46.9.63.5.36.71.52.96.47.23-.05.35-.27.59-.7.21-.37.51-.9,1.03-1.62.26.66.61,1.2,1.07,1.75.37.45,3.84-.46,8.08-1.57,3.03-.79,6.45-1.69,9.42-2.27,1.13-.22,2.64-.73,4.39-1.32h0c2.19-.73,4.74-1.59,7.36-2.16.27-.06.53-.16.78-.27.14-.06.28-.12.42-.16.78-.27.28-1.23-.09-1.95-.15-.28-.27-.53-.29-.67.05,0,.15.02.36.11.2.08.38.17.54.25.57.29.85.42,1.07-.38.12-.41.2-.91.28-1.34.03-.19.07-.37.1-.53.2.41.26.66.3.83.18.79.81.84,1.06.41.33-.57.94-1.25,1.39-1.74l.03.61c-.16,1.35-.17,2.06.17,2.39.3.3.78.22,1.58.11h0c.35-.05.75-.11,1.22-.15,1.44-.13,26.18-6.72,39.63-11.59.79-.29.62-.96.41-1.78-.11-.43-.23-.9-.23-1.38.08.05.17.11.25.17.61.43,1.14.64,1.53-.12,1.02-2.02,1.45-2.67,1.63-2.87.02.14.04.31.06.5.09.81.22,1.95.75,2.07.22.05.46-.07.7-.37,1.69-2.06,2.07-2.51,2.29-2.72,0,.12,0,.25.01.38.01.56.03,1.27.31,2.32.02.09.04.17.06.25.15.6.22.91,1.15.61,9.44-3.07,15.4-5.25,18.53-6.42-1.81,3.09-5.77,4.33-11.28,6.01ZM336.45,171.72c.04-3.06,4.62-3.17,4.69.02.06,3.03-4.72,3.04-4.69-.02ZM308.2,150.03c.26-.03.49-.06.72-.08,1-.1,1.8-.18,3.3-1.09.94-.57.25-5.22.15-5.66-.38-1.78-3.78-1.84-5.34-1.21-.49.2-1.13.57-1.04,1.54.02.21,0,.43-.03.66-.03.22-.05.44-.04.66.27,5.13.57,5.42,2.29,5.18ZM308.07,142.79s.1-.01.18-.03h0c.94-.15,1.81-.08,2.79.35.29.13.33.52.43,1.6.03.38.08.84.14,1.4.24,2.13.21,2.13-3.11,2.56-.19.02-.4.05-.61.08-.51.07-.51.06-.61-1.17-.04-.47-.09-1.13-.2-2.03v-.12c-.18-1.42-.32-2.57.99-2.65ZM285.39,213.44c-.11-.31.06-.65.37-.76.31-.11.66.06.77.37l.2.58c.14.39-.15.8-.57.8h0c-.25,0-.48-.15-.57-.4l-.2-.58ZM286.99,212.93c-.11-.31.06-.65.37-.76.31-.11.65.06.76.37l.18.51c.14.39-.16.8-.57.8h0c-.25,0-.48-.16-.57-.4l-.18-.51ZM284.92,215.96c-.11.5-.37,1.68-.32,1.85.16-.08.27-.16.36-.22.24-.17.3-.21.76.14l.06.05c.3.23.3.24.59-.04l.06-.06c.37-.36.67-.64,1.21-.38.14.07.19-.02.27-.14.12-.18.28-.44.86-.37.05,0,.1,0,.15,0,.26.01.45.02.54-.33.08-.3.31-.32.52-.34.21-.02.4-.03.44-.3.05-.34.2-.51.55-.56.21-.03.24-.2.09-.34l-.29-.28c-.37-.36-.61-.6-.76-.73.4-1.32-.08-2.78-1.78-3.32h0c-2.19-.68-4.48.59-4.59,3.23-.04.94.51,1.7,1.29,2.14ZM288.91,212.72c.55,1.52-1.83,3.35-3.49,2.18-2.58-1.82,2.32-5.42,3.49-2.18ZM218.68,178.62c1.14-.35,4.8-.06,7.31.13.82.06,1.51.12,1.96.14-.51-.45-1.5-1.19-2.58-2.01h0c-1.56-1.18-3.32-2.51-4.15-3.32h0c-.1-.1-.38-.38-.18-.75.53-.98,4.36.5,7.43,1.69,1.34.52,2.54.99,3.25,1.16-.28-.39-.67-.9-1.12-1.51h0s0,0,0,0h0c-2.71-3.61-7.77-10.37-6.99-11.4.22-.3.68-.12.83-.07,1.41.54,5.93,3.82,9.61,6.49,2.07,1.5,3.88,2.81,4.69,3.32-.11-.56-.38-1.51-.7-2.62-1.1-3.89-2.77-9.82-.59-8.67,1.39.74,4.42,5.04,6.15,7.49.6.85,1.04,1.48,1.2,1.66,0-.26-.17-2.36-.35-4.51-.19-2.25-.38-4.54-.37-4.81.03-1.29.91-1.57,1.55-.98h0c2.08,1.9,7.55,13.45,7.25,14.58-.04.14-.14.18-.18.19-.15.04-.3-.06-.55-.35-.52-.6-1.8-3.16-3.17-5.87-1.33-2.64-2.73-5.43-3.59-6.75,0,.66.13,1.81.28,3.12.42,3.65.99,8.52-.95,7.2-.24-.16-1.66-2.12-3.19-4.22-1.73-2.38-3.59-4.94-4.03-5.29.02.61,1.48,5.88,1.64,6.47.9,3.22,1.24,4.55.78,4.93-.57.48-2.58-1.02-5.61-3.29-2.49-1.86-5.68-4.24-9.34-6.48.74,1.6,6.7,9.56,7.92,10.93.58.65,1.08,1.22.66,1.67-.3.32-.67.22-.94.14-3.19-.88-5.38-1.57-8.58-2.77-.1-.04-.16-.06-.16-.05,0,0,.07.06.25.19.59.4,2.25,1.55,5.57,4.3.3.24.69.57.47,1.1-.18.45-.26.44-2.31.29-1.45-.11-3.88-.3-8.04-.45-.36-.02,2.99,1.55,3.4,1.74l.04.02c3.34,1.56,4.23,2.04,4.16,2.44-.05.23-.35.24-.45.25-1.05.04-6.87-2.58-8.29-3.72-.87-.7-.62-1.53.02-1.73ZM235.4,196.51c.69-.99,1.44-2.1.91-5.49-.31-2-1.36-5.8-3.35-6.22-.07-.02-.16-.04-.26-.06-.69-.17-1.95-.47-2.97.1-1.73.97-1.94,2.83-2.02,3.55-.01.12-.02.21-.04.26-.4,1.52.39,4.08.84,5.47,1.35,4.2,5.8,3.94,6.89,2.38ZM232.34,188.76c.68,1.47.9,2.69.65,4.43-.13.9-1.12.77-1.39.2-2.31-4.85.17-5.86.74-4.63ZM251.58,179.52c-1.54-.39-2.8-.45-3.87.58-1.09,1.05-1.21,2.13-1.28,2.83-.02.19-.04.36-.07.48-.41,1.51.41,4.12.84,5.47,1.36,4.21,5.8,3.93,6.89,2.37.88-1.27.91-1.59,1.03-2.83.02-.23.05-.49.08-.79-.08-2.57-1.2-7.5-3.62-8.1ZM251.87,187.74c-.17.7-1.04.77-1.41.25-.95-1.33-1.21-3.32-.83-4.43.33-.96,1.61-.61,2.02.77.2.67.48,2.34.22,3.4ZM240.65,181.82c-1.88-.05-3,.93-3.53,2.54-.8,2.4-.28,4.61.55,7.1,1.34,4.07,5.69,4,6.89,2.33.87-1.21.91-1.6,1.02-2.82.02-.22.04-.47.08-.76-.39-3.87-1.21-8.3-5-8.39ZM242.22,190.63c-.17.55-.85.73-1.29.34-.88-.79-1.57-4.29-.54-5.2h0c1.44-1.26,2.29,3.37,1.83,4.86ZM219.7,198.46c-.16-.43-.09-.53.31-.8.22-.15.42-.28.61-.4,1.14-.74,1.43-.93,1.31-1.64-.14-.86-1.07-.62-1.84-.43h0c-.58.15-.83.05-1.05-.49-.67-1.69-1.27-3.41-1.52-5.22v-.07s-.01-.02-.01-.02c-.02-.16-.04-.28-.02-.39.09-.36.65-.61,3.03-1.66.61-.27,1.33-.59,2.2-.97,1.61-.72,1.83.16,2.26,1.9.04.15.08.31.12.47.16.62.04.66-1.71,1.27-.34.12-.73.25-1.2.42-.04.01-.08.02-.11.03-.05.01-.09.02-.14.04-.46.2-.56.71-.19,1.06.19.18.42.1.7,0,.2-.07.43-.15.69-.17,2.91-.14,3.05,2.64,3.11,3.67.01.23.02.38.05.38-.02.19-.04.37-.06.55-.11,1.05-.2,1.86-1.03,2.65-3.36,3.19-4.48,2.64-5.52-.19ZM159.95,173.57c.26.02.68.04.81.52h0c.88,3.48,4.8,5.01,8.12,1.48.15-.16.25-.28.32-.38.24-.31.25-.31,1.1-.28.34.01.49-.17.55-.32.13-.32-2.29-1.71-7.26-4.15h0c-.26-.13-.49-.25-.71-.36-1.18-.59-1.77-.89-2.16-.72-.39.16-.58.78-.98,2-.12.38-.26.83-.44,1.34-.12.36.11.75.49.85.04,0,.09.01.16.02ZM162.05,173.93c.58.09,1.96.31,2.26.32.08.01.1.03.1.03.01.03,0,.08,0,.15-.04.24-.12.71.58,1.12.75.45,1.66-.13,1.62-.9,0-.02,0-.04,0-.06,0-.02,0-.03,0-.04.01,0,.06,0,.13.02.55.11,1,.14,1.3.16h0c.08,0,.15,0,.21.01-1.19,1.3-2.39,1.79-3.42,1.79-1.66,0-2.34-1.13-3.03-2.66.02,0,.11.02.25.04ZM164.69,182.31c7.52,0,11.99-9.85,6.03-15.24-6.39-5.78-16.44.74-14.23,9.07.95,3.6,4,6.17,8.21,6.17ZM163.91,166.47h.03c5.94-.98,10.03,5.47,6.97,10.55h0c-2.15,3.58-6.74,4.88-10.29,2.54-5.25-3.48-3.32-11.98,3.28-13.08ZM150,180.94c.29.93.33,1.08.29,1.2,0,.02-.02.04-.04.07h0c-.12.2-.38.24-1.14.37-.04,0-.91.16-.95.16-.34,0-.38-.15-1.01-2.17h0c-.14-.46-.32-1.02-.53-1.69q-.5-1.6-.59-2.2c-.02-.12-.04-.27-.07-.46-.02-.16.1-.2.36-.29.06-.02.12-.04.19-.07.14-.05.28-.1.4-.15,1.03-.4,1.37-.53,1.55.08.79,2.78,1.26,4.31,1.53,5.17ZM144.94,181.35c.46,1.46.61,1.94.44,2.15-.08.1-.24.14-.47.2-.86.23-1.31.35-1.57.35h-.01c-.06,0-.11,0-.15-.02-.14-.05-.21-.29-.52-1.3-.17-.55-.41-1.34-.78-2.46-.67-2.05-.87-2.67-.66-2.98.04-.07.14-.15.31-.16.38-.03.66-.14.92-.25.22-.09.43-.17.69-.2.5-.05.56.26.71.92.06.26.12.57.23.94h0c.36,1.21.65,2.12.87,2.81ZM151.91,172.85h0c-6.41-5.8-16.53.73-14.23,9.19.79,2.91,3.29,6.03,7.91,6.05h.03c8.18,0,12.02-10.05,6.29-15.24ZM140.71,184.4c-3.82-3.83-1.69-11.16,4.43-12.16,5.56-.91,9.5,4.83,7.52,9.45-2.26,5.24-8.38,6.29-11.95,2.71ZM236.83,211.05c-.4.3-.87.38-1.28.2-.65-.27-.73-.79-.86-1.52-.02-.13-.04-.26-.07-.39,0,0,.69-4.24.7-4.56-1.79,1.1-2.97,2-4.18,2.93-1.77,1.35-3.6,2.75-7.48,4.87-.58.32-1.55.59-2.01.11-.43-.44-.25-1.35.54-2.7,1.65-2.82,4.34-6.25,7.2-9.18,1.49-1.52,2.04-.17,1.52.18-1.22.84-6.89,7.74-8.27,10.73,1.14-.17,4.96-2.88,8.13-5.14,2.16-1.53,4.01-2.85,4.52-3.01.44-.14.72,0,.88.13.35.3.45.91.4,1.22-.08.52-.21,1.27-.34,2.03-.16.9-.32,1.81-.39,2.36-.03.21.08.72.18.74.33-.01,3.27-3.78,3.79-4.44l.07-.08c2.18-2.77,2.37-2.97,2.59-2.91h0c1.37.35-4.45,7.53-5.64,8.42ZM307.93,162.95c-.18.16-.37.31-.56.47h0s0,0,0,0c-.81.67-1.72,1.41-2.64,2.64-.66.87-.65,1.77,0,2.54,1.71,1.99,2.41,2.53,3.83,3.48.68.46,1.43.43,2.12-.04.14-.1.29-.2.45-.31h0s0,0,0,0c2.38-1.63,5.94-4.07,4.27-6.14h0c-4.19-5.18-5.53-4.3-7.47-2.65ZM313.94,165.53l.12.14c.08.09.16.18.22.25.59.66.73.81-.14,1.77-1.37,1.49-3.11,2.8-4.14,3.39-.32.18-.61.17-.93-.05-1.34-.91-2.52-1.97-3.48-3.15-.48-.58-.77-.94,3.79-4.71,1.45-1.21,3.27.88,4.56,2.37ZM278.75,198.25h0l-.09-.02c-.22-.05-.73-.15-.78-.15-.73.09-1.24.45-1.46,1.07h0c-.42,1.17-1.7,4.73-1.74,6.84,0,.53.2.9.65,1.14.3.16.65.34,1.03.42,1.1.21,1.8.33,2.28.33.65,0,.88-.21,1.1-.67.74-1.55,1.77-7.01,1.82-7.3h0c.19-1.03-.94-1.26-2.81-1.65ZM280.44,200.17c-1.15,4.26-1.73,6.4-2,6.5-.34-.1-.68-.15-1.02-.2-.42-.06-.84-.12-1.23-.28-.16-.06-.19-.32-.1-.77.12-.6.18-.94.23-1.25.09-.56.17-1,.61-2.76.07-.26.12-.49.16-.69.28-1.23.33-1.47,1.78-1.26l.1.02c.54.08,1.59.24,1.48.67v.03ZM193.48,180.04l.3.13c3.89,1.7,4.68,2.04,5.21-3.89v-.04s0,0,0,0c0-.83,0-1.49-.89-1.86-1.14-.46-2.18-.75-3.18-.87-1.95-.24-2.52,2.73-2.62,4.68-.04.86.36,1.5,1.18,1.85ZM193.82,176.07l.02-.08c.2-.82.33-1.33,1.09-1.33s2.22.57,2.34.62l.06.02c.49.17.66.24.36,1.84-.49,2.6-.58,2.9-.74,2.99-.08.04-.26-.02-.49-.1h-.02c-.21-.08-.41-.15-.6-.21-2.64-.91-2.74-.94-2.03-3.75ZM201.66,194.22h0c.4.95.85,2.01,1.9,1.84v-.04s-.01-.03-.01-.03v-.05c-.02-.08-.02-.09.03.12,2.29-.48,3.75-1.26,4.2-1.6.92-.7.43-1.56-.24-2.74h0c-.27-.47-.48-.86-.66-1.19q-.95-1.74-2.3-1.34h-.02c-.95.29-1.79.54-3.18,1.48-.96.64-.89.8.21,3.36.03.07.06.13.09.2ZM203.32,190.88l.12-.05c.31-.13.56-.25.78-.36.5-.24.79-.38,1.04-.32.36.09.62.61,1.26,1.88h0s0,0,0,0c.19.39.42.84.7,1.38h0c-.08.1-.58.28-1.29.54h0c-.39.14-.84.31-1.31.49l-.08.03c-.69.27-1.01.39-1.23.29-.2-.09-.32-.37-.54-.89-.2-.47-.49-1.15-1-2.08-.02-.03-.06-.11-.06-.13.05-.11.64-.37,1.62-.79ZM281.8,191.48h0s0,0,0,0l-.11-.08c-1.57-1.21-1.98-1.53-4.56,2.28-.37.55-.14,1.29.68,2.15.58.61,2.51,2.11,3.1,1.74l.08-.05c.46-.28.7-.42.89-.61.21-.2.38-.45.73-.97.23-.34.53-.79.98-1.42.73-1.1-.27-1.86-1.79-3.03ZM281.8,194.96h0c-.67.84-1.13,1.4-1.21,1.44-.05-.02-.37-.27-.77-.58-.63-.49-1.45-1.12-1.67-1.21h0c-.19-.08-.23-.11-.22-.17h0s0-.01,0-.01c0-.06.05-.11.84-1.09.32-.39.75-.93,1.35-1.67,1.34.93,2.3,1.84,2.61,2.16-.34.41-.65.8-.92,1.14ZM201.17,177.7c-.16-.14-.08-.35.12-.4,1.1-.24,18.45,5.71,19.13,6.57.09.11.02.29-.14.29-1.24,0-18.36-5.77-19.11-6.46ZM209.41,183.76c-.42-.14-.87-.28-1.34-.43-1.05-.34-1.95-.62-2.71-.86h0c-3.62-1.15-4.16-1.33-4.19-1.56,0-.04,0-.09.02-.14,0-.01,0-.03.01-.04.01-.07.06-.17.22-.22,1.29-.39,13.65,4.12,14.11,4.56.1.1.06.26-.07.3-.54.17-2.34-.41-6.05-1.6h0ZM296.34,175.59c.51-1.2,7.15-5.68,8.13-5.52.24.04.3.3.17.4-.04.04-7.7,5.58-7.73,5.6-.32.19-.71-.17-.57-.48ZM298.44,157.05c-.36-.31,1.18-2.89,2.54-5,2.76-4.3,3.22-4.1,3.38-4.02.09.04.13.1.18.16.02.03.04.05.06.08.05.06.06.14.02.21-.04.08-5.67,8.42-5.73,8.46-.14.12-.31.23-.45.11ZM305.39,151.65h0c.43-.2.69.3.53.56-.5.81-5.65,7.41-6.07,7.88-.03.04-.08.06-.14.06-1.36-.08,5.22-8.29,5.68-8.5ZM306.52,173.1c.06.18.11.35-3.28,2.44-1.56.96-3.2,1.92-3.5,2.07-.06.04-.16.05-.23.05-.36,0-.58-.32-.28-.68.85-.99,6.24-3.89,6.92-4.03.25-.05.34.05.36.14h0ZM215.87,191.43c-.83.04-7.17-.5-7.47-.89-.04-.05-.05-.13-.03-.19.22-.66,2.76-.5,7.55.48.33.07.32.58-.05.6ZM214.74,194.07c-.09.26-.38.25-.62.24h-.05c-.07.04-.12.03-.54-.01-.35-.04-.97-.11-2.08-.2h-.01c-.55-.05-.72-.06-.88-.11-.07-.02-.14-.06-.24-.1h0c-.18-.09-.17-.47.01-.54.53-.19.76-.16,1.64-.03.32.05.61.09.88.13h0c1.52.22,2.02.29,1.89.64ZM222.98,106.31c-.24-1.03-2.92-32.26-1.86-32.55.25-.06.35.27.42.5h0c.52,1.77,3.42,30.78,2.81,32.35-.28.74-1.19.44-1.37-.3ZM176.56,89.91c-.18-.27-.2-.53-.03-.66.31-.23.66.17,2.54,2.41,2.45,2.92,7.52,8.94,18.53,20.7h0c3.52,3.77,4.47,4.78,4.22,5.31-.1.22-.37.27-.65.27-1.7,0-18.11-18.27-24.62-28.03ZM153.95,122.37c-.19-.82,3.55.78,14.09,5.29,2,.85,4.24,1.81,6.74,2.88,5.11,2.17,7.62,3.48,7.54,3.91-.12.55-.56.58-.93.58-2.01,0-27.18-11.55-27.44-12.65ZM266.87,253.95c.15.28,12.01,31,11.05,31.97-.06.06-.15.09-.24.06-1.49-.41-12.16-30.91-12.05-31.69.11-.89.95-.9,1.24-.34ZM201.64,266.89c-.81,1.61-18.15,24.25-19.26,24.25-.12,0-.26-.13-.13-.44,1.25-3.04,14.5-20.16,17.76-24.15.5-.61.9-.63,1.15-.54.4.15.57.7.48.88ZM315.99,256.73c.06.1.02.21-.08.26-2.03.93-19.04-14.32-20.59-15.76-.55-.52-.75-.8-.53-1.21.24-.47.88-.36,1.31-.04.93.59,19.48,16.05,19.89,16.76h0ZM231.09,261.32c-.04.26-4.02,22.67-4.73,22.93-.19.07-.45-.24-.4-.42.07-.27.09-.67.1-1.31.05-1.57.14-4.59,1.27-10.74,1.19-6.46,1.94-10,2.36-10.82h0c.33-.65,1.38-.49,1.4.36ZM281.72,112.42c-.18-2.4,3.67-2.78,3.88-.08.07.96-1.04,2.11-2,2.02-.96-.09-1.9-.72-1.88-1.94ZM275.17,117.75c.2,2.62-4.15,3.33-4.35.1-.08-1.27,1.22-2.29,2.2-2.3,1.12,0,2.3,1.01,2.15,2.2ZM247.84,141.87h0s0,0,0,0ZM235.37,156.27c-.04-.61.05-.72,1.72-2.74l.19-.22c1.25-1.52,9.46-11.26,10.57-11.42v.02c-.01.07-.02.12-.03.18-.04.18-.18.33-.76,1.02-.62.74-1.77,2.08-3.88,4.72-.76.95-1.44,1.8-2.05,2.57-5.01,6.27-5.34,6.69-5.76,5.89ZM252.24,144.27c-.26.73-9.93,11.42-11.22,12.37-.47.34-.75-.32-.37-.85,1.77-2.42,11.98-12.67,11.58-11.53Z" fill="#306"/><path d="M162.25,343.85l1.57,1.57-1.55,1.55-1.57-1.56,1.55-1.56ZM164.15,345.43l1.57,1.57,1.55-1.56-1.57-1.56-1.55,1.55ZM166.94,336.39c-.12-.41-.25-.82-.4-1.2-.15-.39-.3-.76-.46-1.11l-2.11,1.04c.16.32.32.67.47,1.04.15.37.28.73.39,1.08.11.35.2.66.26.95s.1.51.1.67c0,.33-.1.6-.28.8-.18.2-.42.36-.7.47-.28.1-.59.17-.92.21-.33.03-.64.05-.92.05h-1.78c-.47,0-.82-.13-1.06-.39-.24-.27-.36-.63-.36-1.1,0-.66,0-1.41.03-2.26.02-.85.04-1.85.04-3,0-.52,0-1.03-.01-1.53,0-.51,0-1-.03-1.46-.01-.47-.03-.91-.05-1.32-.02-.41-.06-.79-.1-1.11l-2.33.3c.04.3.06.64.08,1.01.02.37.04.77.04,1.19.01.42.02.86.02,1.32,0,.45,0,.91,0,1.38,0,.6,0,1.19,0,1.77,0,.58-.01,1.11-.02,1.6,0,.48-.02.9-.03,1.25,0,.35,0,.59,0,.73-.02.36-.08.64-.17.86-.09.21-.21.38-.36.5-.15.12-.31.19-.5.23-.19.04-.39.05-.61.05h-7.56l-.31,2.28c.41.07.82.14,1.23.21s.83.17,1.25.31c.29.11.55.22.8.34.25.12.47.24.65.35.19.11.34.21.44.29.11.09.16.16.16.2,0,.26-.11.49-.32.68-.21.2-.48.36-.81.51-.33.15-.7.27-1.1.37-.41.1-.81.18-1.2.24-.38.06-.74.1-1.07.13-.32.02-.57.04-.74.04-.29,0-.62,0-1.01-.03-.38-.01-.78-.06-1.18-.14-.4-.08-.77-.21-1.13-.38-.36-.17-.66-.42-.89-.74-.18-.27-.32-.58-.44-.93-.11-.35-.16-.74-.16-1.18,0-.36.02-.75.05-1.14.04-.4.1-.82.19-1.27.1-.45.23-.94.39-1.46.16-.53.37-1.11.62-1.73l-1.88-.87c-.26.63-.48,1.21-.66,1.75-.18.54-.32,1.06-.44,1.54-.11.48-.2.94-.26,1.38-.06.44-.11.87-.15,1.29-.02.22-.03.43-.03.64,0,.78.13,1.48.38,2.09.32.78.79,1.44,1.41,1.95.63.52,1.39.91,2.27,1.17.89.26,1.86.39,2.9.39.41,0,.87-.03,1.38-.1.51-.06,1.03-.16,1.55-.3.52-.14,1.03-.32,1.53-.55.5-.22.94-.49,1.33-.81.4-.32.72-.69.97-1.11.25-.42.39-.9.41-1.43,0-.22-.05-.47-.14-.77-.08-.29-.24-.58-.48-.88h2.49c.17,0,.36-.01.58-.04.21-.02.43-.06.65-.12.22-.06.43-.14.64-.25.21-.11.41-.25.58-.42.13.11.29.22.47.32.18.1.37.19.58.26.21.08.43.14.66.17.21.04.43.05.64.06h0s.06,0,.06,0h1.86c.69,0,1.33-.07,1.94-.21.61-.14,1.14-.36,1.59-.67.46-.31.82-.71,1.08-1.21s.39-1.09.39-1.8c0-.4-.04-.8-.11-1.21s-.17-.83-.29-1.23ZM179.52,336.39c-.11-.41-.25-.82-.4-1.2-.15-.39-.3-.76-.46-1.11l-2.11,1.04c.16.32.32.67.46,1.04.15.37.28.73.39,1.08.11.35.2.66.27.95.07.29.1.51.1.67,0,.33-.08.6-.24.8-.15.2-.35.36-.59.47-.24.1-.52.17-.82.21-.3.03-.59.05-.88.05h-1.52c-.24,0-.45-.02-.63-.07-.18-.05-.32-.13-.44-.24-.11-.12-.2-.26-.25-.43-.04-.17-.06-.36-.06-.58v-.7c0-.18,0-.37,0-.56,0-.19,0-.38,0-.59,0-.21,0-.43,0-.66,0-.27,0-.59,0-.95,0-.36,0-.71,0-1.03,0-.53-.01-1.09-.04-1.69-.02-.6-.05-1.19-.09-1.77-.04-.58-.09-1.12-.15-1.62-.05-.51-.11-.94-.18-1.3l-2.29.68c.06.29.1.62.15.99.04.37.08.77.11,1.21.03.43.05.87.07,1.33.02.46.04.92.05,1.38.01.46.02.91.03,1.35,0,.44,0,.85,0,1.23,0,.64,0,1.19-.02,1.64-.01.44-.02.76-.02.96,0,1.25.33,2.19.97,2.81.64.62,1.58.93,2.81.93h1.46c.69,0,1.32-.08,1.89-.23.58-.15,1.07-.38,1.49-.68.41-.32.74-.72.97-1.21.23-.49.35-1.08.35-1.76,0-.4-.04-.8-.11-1.21s-.17-.83-.29-1.23ZM174.98,345.69l1.74,1.75,1.75-1.75-1.75-1.74-1.74,1.74ZM199.89,337.94c.07.34.1.68.1,1.01,0,.31-.03.61-.08.9-.05.29-.12.58-.23.85-.11.29-.27.56-.46.79-.18.24-.39.44-.63.61-.24.16-.49.29-.77.38-.27.09-.56.14-.86.14-.26,0-.53-.03-.81-.1-.28-.06-.57-.15-.86-.26-.13-.05-.27-.12-.43-.19-.16-.08-.32-.16-.48-.26-.17-.09-.33-.19-.49-.28-.16-.1-.31-.2-.45-.3-.48.47-1,.84-1.55,1.1-.5.23-1.07.34-1.71.37v.02h-.8c-.21.9-.56,1.71-1.05,2.43-.49.72-1.09,1.35-1.78,1.89-.69.53-1.46.98-2.3,1.32s-1.73.6-2.64.75l-.55-2.28c.89-.18,1.7-.41,2.42-.71.73-.29,1.35-.62,1.88-.99.53-.36.96-.76,1.29-1.17.34-.41.56-.83.67-1.24-.49,0-.97-.01-1.44-.05-.47-.03-.91-.09-1.33-.18-.41-.09-.8-.21-1.15-.37-.35-.16-.65-.38-.9-.64-.25-.27-.44-.59-.58-.97-.14-.38-.21-.83-.21-1.35,0-.33.04-.68.11-1.05s.18-.72.31-1.07c.14-.35.31-.68.51-.99.2-.32.43-.59.69-.83.26-.24.55-.43.87-.58.32-.14.66-.21,1.02-.21.94,0,1.8.42,2.58,1.26.26.29.49.61.69.96.21.35.39.73.54,1.13.15.4.27.82.37,1.26.1.43.16.88.18,1.33h.42c.44,0,.83-.08,1.16-.25.33-.17.62-.39.87-.66.26-.27.48-.57.67-.9.2-.34.38-.67.55-1.01.17-.35.36-.7.56-1.05.2-.35.43-.66.68-.93.26-.28.55-.51.88-.68.33-.18.71-.26,1.14-.26.39,0,.74.06,1.07.18.33.12.62.28.88.49.26.21.49.45.68.73.2.27.36.57.48.89.13.32.22.65.28.99ZM187.44,340.39c-.02-.23-.06-.47-.14-.73-.07-.27-.16-.54-.27-.8-.11-.27-.23-.52-.37-.77-.14-.25-.29-.47-.46-.66-.16-.2-.32-.35-.49-.47-.17-.12-.34-.17-.51-.17-.16,0-.33.07-.51.2-.18.13-.35.31-.5.52-.15.21-.28.44-.38.69-.1.26-.15.51-.15.75,0,.26.06.47.17.64.12.17.27.31.46.41.19.1.4.18.63.24.24.05.47.08.7.1.13.01.27.02.42.03.15,0,.31,0,.46,0,.17,0,.33,0,.48,0h.45ZM198.23,339.06c0-.27-.05-.55-.15-.82-.09-.28-.22-.53-.38-.74s-.36-.38-.58-.49c-.15-.07-.32-.11-.49-.11-.09,0-.17,0-.27.03-.09.02-.17.07-.26.15-.08.07-.18.2-.29.38-.12.18-.25.42-.41.72-.16.3-.35.68-.58,1.14.16.11.37.23.61.37.25.13.51.26.78.37.27.11.53.19.79.25.15.04.28.05.4.05.1,0,.18-.01.26-.04.06-.01.12-.05.19-.11.07-.07.14-.16.19-.27.06-.11.11-.24.15-.38.02-.12.04-.26.04-.4v-.09ZM217.38,338.76c.16-.24.35-.46.57-.67.22-.21.45-.4.68-.56.24-.16.47-.3.71-.4.24-.1.46-.16.67-.18.2-.04.4-.05.6-.05.14,0,.28,0,.43.03.34.05.67.14.99.28l.83-2.19c-.25-.13-.51-.24-.79-.33-.27-.09-.52-.14-.77-.17-.24-.03-.46-.05-.66-.05-.08,0-.16,0-.24,0-.29.01-.57.05-.84.11-.67.15-1.29.4-1.85.78-.57.37-1.06.82-1.49,1.34-.42.52-.76,1.09-1.01,1.73-.25.63-.39,1.28-.42,1.95,0,.61.09,1.11.27,1.52.18.4.43.73.76.99.32.26.7.47,1.14.63.44.16.91.31,1.42.44.18.05.37.09.57.14.2.05.38.09.55.14.16.05.3.1.41.15.11.05.17.1.17.15-.04.27-.21.54-.52.79-.3.26-.71.5-1.23.7-.51.21-1.12.37-1.82.49-.69.13-1.45.19-2.26.19-.69,0-1.33-.08-1.92-.25-.58-.16-1.08-.41-1.5-.75-.41-.33-.7-.71-.87-1.14-.16-.43-.25-.85-.25-1.29,0-.19.01-.38.04-.58.05-.43.12-.84.19-1.22.08-.39.17-.78.26-1.16.1-.38.21-.77.33-1.17.12-.4.26-.83.4-1.29l-2.01-.81s-.05.12-.11.28c-.06.16-.13.38-.22.64-.08.26-.18.57-.28.91-.1.35-.2.72-.3,1.11-.1.38-.19.78-.27,1.2s-.15.82-.2,1.22c-.05.38-.07.74-.07,1.09,0,.66.09,1.27.27,1.82.27.84.71,1.54,1.32,2.1.61.57,1.35.99,2.24,1.28.89.29,1.87.43,2.94.43.53,0,1.09-.03,1.67-.09.58-.06,1.16-.16,1.73-.31.57-.15,1.12-.34,1.64-.59.52-.24.99-.53,1.4-.89.41-.36.74-.79.99-1.28.26-.49.4-1.05.44-1.69,0-.06,0-.12,0-.17,0-.4-.08-.74-.23-1.01-.18-.31-.41-.56-.71-.75-.3-.2-.63-.35-1-.46-.37-.11-.74-.21-1.1-.29-.3-.08-.59-.15-.86-.2-.27-.06-.52-.14-.73-.23-.21-.1-.37-.22-.5-.36-.12-.15-.18-.36-.18-.62,0-.23.05-.47.15-.71.1-.25.24-.49.4-.72ZM241.91,337.92c.07.3.11.59.11.89,0,.24-.04.55-.12.93-.08.38-.28.8-.6,1.26-.32.46-.73.85-1.25,1.16-.18.1-.39.19-.65.27-.25.07-.51.13-.79.18-.27.05-.55.08-.82.11-.27.02-.51.04-.71.04-.26,0-.54-.01-.86-.04-.31-.02-.63-.05-.95-.1-.32-.05-.63-.11-.93-.18-.3-.07-.58-.16-.81-.27-.57.18-1.26.32-2.05.41-.74.09-1.54.13-2.39.14h0s-.19,0-.19,0h-.18c-1.24,0-2.17-.31-2.81-.93-.64-.62-.96-1.56-.97-2.81,0-.19,0-.51.02-.96.01-.45.02-1,.02-1.64,0-.38,0-.79,0-1.23,0-.44-.01-.89-.03-1.35-.01-.46-.03-.92-.05-1.38-.02-.46-.04-.91-.07-1.33-.03-.43-.07-.83-.11-1.21-.04-.38-.09-.71-.15-.99l2.29-.68c.07.35.13.79.18,1.3.05.51.1,1.05.15,1.62.04.58.07,1.17.09,1.77.02.6.04,1.16.04,1.69,0,.32,0,.67,0,1.03,0,.36,0,.68,0,.95,0,.23,0,.45,0,.66,0,.2,0,.4,0,.59,0,.19,0,.37-.01.56v.7c0,.22.02.41.06.58.05.17.13.31.25.43.12.11.26.19.44.24.18.05.39.07.63.07h.76c.15,0,.3-.01.44-.02.14-.01.29-.02.44-.03.16-.01.35-.02.58-.04-.3-.38-.52-.8-.67-1.26-.14-.46-.21-.92-.21-1.4,0-.33.04-.67.11-.99.07-.34.18-.65.33-.95.15-.3.33-.58.54-.83.22-.26.47-.48.76-.67-.05-.01-.12-.04-.21-.08-.09-.04-.22-.12-.41-.22l1.36-2.22s.11.04.26.11c.15.07.33.16.57.27.23.11.49.25.78.4.3.15.61.3.92.46.32.15.63.3.95.46.32.15.61.29.89.41.57.26,1.07.48,1.5.68s.82.39,1.15.58c.34.2.64.4.9.61.27.21.52.47.76.76.38.46.63.96.76,1.5ZM235.58,337.14c0-.2-.04-.4-.13-.59-.08-.2-.21-.38-.38-.54-.16-.16-.35-.29-.55-.38-.2-.1-.38-.16-.55-.18-.05,0-.1,0-.15,0-.19,0-.39.07-.59.2-.21.13-.4.31-.58.56-.18.24-.31.52-.41.81-.08.24-.12.46-.12.68,0,.07,0,.13,0,.19.03.2.08.39.16.59.09.2.19.39.31.57.13.17.27.32.43.46.16.13.33.22.51.27.24-.05.47-.14.69-.25.23-.12.43-.27.6-.46.18-.19.34-.42.47-.68.13-.27.22-.59.26-.96.01-.1.02-.19.02-.27ZM240.05,338.82c0-.2-.06-.4-.18-.6-.12-.21-.27-.41-.47-.6-.2-.2-.44-.39-.71-.57-.27-.18-.57-.35-.88-.49.01.1.02.21.03.33,0,.11,0,.22,0,.32,0,.57-.09,1.13-.28,1.69-.18.55-.46,1.05-.82,1.51.1.01.2.02.3.03.1,0,.19,0,.28,0,.39,0,.75-.04,1.08-.13.33-.09.62-.21.87-.36.24-.15.44-.32.58-.51s.21-.4.21-.62ZM257.02,342.36c-.3-.2-.63-.35-1.01-.46-.37-.11-.74-.21-1.1-.29-.3-.08-.58-.15-.86-.2-.27-.06-.52-.14-.73-.23-.21-.1-.38-.22-.5-.36-.12-.15-.18-.36-.18-.62,0-.23.05-.47.15-.71.1-.25.24-.49.4-.72.16-.24.35-.46.57-.67.22-.21.44-.4.68-.56.24-.16.47-.3.71-.4.24-.1.46-.16.67-.18.2-.04.4-.05.6-.05.14,0,.28,0,.43.03.34.05.67.14.99.28l.83-2.19c-.25-.13-.51-.24-.79-.33-.27-.09-.52-.14-.77-.17-.24-.03-.46-.05-.66-.05-.08,0-.16,0-.24,0-.29.01-.57.05-.84.11-.67.15-1.29.4-1.85.78-.57.37-1.06.82-1.49,1.34-.42.52-.76,1.09-1,1.73-.25.63-.39,1.28-.42,1.95,0,.61.09,1.11.27,1.52.18.4.43.73.76.99.32.26.7.47,1.14.63.44.16.91.31,1.42.44.18.05.37.09.57.14.2.05.38.09.55.14.17.05.3.1.41.15.11.05.17.1.17.15-.04.27-.21.54-.52.79-.3.26-.71.5-1.23.7-.51.21-1.12.37-1.82.49-.69.13-1.45.19-2.26.19-.69,0-1.33-.08-1.92-.25-.58-.16-1.08-.41-1.5-.75-.41-.33-.7-.71-.87-1.14-.16-.43-.25-.85-.25-1.29,0-.19.01-.38.04-.58.05-.43.12-.84.19-1.22.08-.39.17-.78.27-1.16.1-.38.21-.77.33-1.17.12-.4.26-.83.4-1.29l-2.01-.81s-.05.12-.11.28c-.06.16-.13.38-.22.64-.09.26-.18.57-.28.91-.1.35-.2.72-.3,1.11-.1.38-.19.78-.27,1.2-.09.41-.15.82-.2,1.22-.05.38-.07.74-.07,1.09,0,.66.09,1.27.27,1.82.27.84.72,1.54,1.32,2.1.61.57,1.35.99,2.24,1.28.89.29,1.87.43,2.94.43.53,0,1.09-.03,1.67-.09.58-.06,1.16-.16,1.73-.31.57-.15,1.12-.34,1.64-.59.52-.24.99-.53,1.4-.89.41-.36.74-.79,1-1.28.26-.49.4-1.05.44-1.69,0-.06,0-.12,0-.17,0-.4-.08-.74-.23-1.01-.18-.31-.41-.56-.71-.75ZM265.73,339.12c-.1-.43-.22-.85-.36-1.26-.13-.42-.25-.82-.37-1.2l-2.29.74c.08.27.18.58.29.92.12.35.24.71.35,1.09.12.37.21.75.29,1.13.08.38.12.75.12,1.1,0,.37-.07.74-.2,1.1-.13.36-.32.72-.56,1.07-.23.35-.51.68-.84,1.01-.32.32-.68.63-1.06.92-.38.29-.78.57-1.2.82-.42.26-.85.5-1.28.71l1.04,2.09c.54-.27,1.08-.57,1.61-.9.53-.34,1.03-.7,1.51-1.09.48-.39.91-.8,1.32-1.24.41-.44.76-.9,1.05-1.39.3-.48.53-.98.69-1.51.17-.52.26-1.05.26-1.6,0-.4-.03-.81-.1-1.23-.07-.43-.15-.85-.26-1.28ZM265.28,332.76l-1.75-1.74-1.74,1.74,1.74,1.75,1.75-1.75ZM277.93,336.39c-.11-.41-.25-.82-.4-1.2-.15-.39-.3-.76-.46-1.11l-2.11,1.04c.16.32.32.67.46,1.04.15.37.28.73.39,1.08.11.35.2.66.27.95s.1.51.1.67c0,.33-.08.6-.24.8-.15.2-.35.36-.59.47-.24.1-.52.17-.82.21-.3.03-.59.05-.88.05h-1.52c-.24,0-.45-.02-.63-.07-.18-.05-.32-.13-.44-.24-.11-.12-.2-.26-.25-.43-.04-.17-.06-.36-.06-.58v-.7c0-.18,0-.37,0-.56,0-.19,0-.38,0-.59,0-.21,0-.43,0-.66,0-.27,0-.59,0-.95,0-.36,0-.71,0-1.03,0-.53-.01-1.09-.04-1.69-.02-.6-.05-1.19-.09-1.77-.04-.58-.09-1.12-.15-1.62-.05-.51-.11-.94-.18-1.3l-2.29.68c.05.29.1.62.15.99.04.37.08.77.11,1.21.03.43.05.87.07,1.33.02.46.04.92.05,1.38.01.46.02.91.03,1.35,0,.44,0,.85,0,1.23,0,.64,0,1.19-.02,1.64-.01.44-.02.76-.02.96,0,1.25.33,2.19.97,2.81.64.62,1.58.93,2.81.93h1.46c.69,0,1.32-.08,1.89-.23.58-.15,1.07-.38,1.49-.68.41-.32.74-.72.97-1.21.23-.49.35-1.08.35-1.76,0-.4-.04-.8-.11-1.21s-.17-.83-.29-1.23ZM273.4,345.69l1.74,1.75,1.75-1.75-1.75-1.74-1.74,1.74ZM294.02,336.54l-1.75-1.74-1.74,1.74,1.74,1.75,1.75-1.75ZM307.22,336.39c-.12-.41-.25-.82-.4-1.2-.15-.39-.3-.76-.46-1.11l-2.11,1.04c.16.32.32.67.47,1.04.15.37.28.73.39,1.08.11.35.2.66.26.95.07.29.1.51.1.67,0,.33-.09.6-.28.8-.18.2-.42.36-.7.47-.28.1-.59.17-.92.21-.33.03-.64.05-.92.05h-1.9c-.19,0-.39-.01-.59-.04-.2-.02-.41-.1-.62-.24-.21-.14-.43-.35-.66-.64-.22-.29-.44-.7-.68-1.23-.18-.41-.32-.76-.44-1.03-.11-.28-.17-.43-.19-.47l-2.14,1.2s.05.08.13.24c.08.16.18.37.29.63.11.26.24.56.36.9.13.34.26.68.37,1.03.12.35.21.7.29,1.05.09.34.13.65.15.93v.16c0,.32-.05.62-.14.91-.12.34-.28.66-.49.95-.21.29-.47.56-.78.79-.31.24-.64.44-1.01.6-.37.17-.76.29-1.18.37-.41.09-.83.13-1.25.13h-.09c-.57-.01-1.12-.11-1.63-.29-.51-.18-.96-.43-1.35-.75-.39-.32-.7-.7-.93-1.14-.22-.45-.34-.94-.34-1.48,0-.46.05-.91.16-1.36.11-.45.24-.87.38-1.26.15-.39.3-.73.46-1.03.16-.3.3-.52.41-.67l-1.8-1.31c-.57.85-.99,1.75-1.28,2.7-.28.95-.42,1.91-.42,2.88s.15,1.79.45,2.54c.3.76.72,1.39,1.26,1.92.55.52,1.21.93,1.97,1.21.77.28,1.62.42,2.56.42.89,0,1.69-.09,2.4-.27.71-.17,1.34-.41,1.87-.72.54-.3,1-.67,1.39-1.09.38-.42.69-.88.92-1.37.24-.49.4-.98.48-1.47.09-.48.13-.94.13-1.38,0-.12,0-.23,0-.35.2.11.43.2.69.26.26.06.54.09.85.1h0s.04,0,.04,0h1.89c.69,0,1.33-.07,1.93-.21.61-.14,1.14-.36,1.59-.67.46-.31.82-.71,1.08-1.21.26-.49.39-1.09.39-1.8,0-.4-.04-.8-.11-1.21-.07-.41-.17-.83-.29-1.23ZM304.42,345.43l1.57,1.57,1.55-1.56-1.57-1.56-1.55,1.55ZM300.97,345.42l1.57,1.56,1.55-1.55-1.57-1.57-1.55,1.56ZM324.71,332.31l-1.57-1.56-1.55,1.55,1.57,1.57,1.55-1.56ZM321.25,332.3l-1.57-1.57-1.55,1.56,1.57,1.56,1.55-1.55ZM340.54,338.84c0,.68-.12,1.27-.35,1.76-.23.49-.55.89-.97,1.21-.41.31-.91.54-1.49.68-.57.15-1.2.23-1.89.23h-1.32c-.29,0-.58.08-.86.23-.27.16-.52.36-.74.61-.22.25-.4.53-.53.84-.13.31-.19.62-.19.93,0,.14,0,.27.02.38.02.12.05.24.09.35.04.11.1.23.17.34.07.11.16.23.27.35l-1.45,1.76c-.6-.38-1.14-.79-1.63-1.21-.49-.42-.94-.87-1.33-1.34-.39-.47-.73-.98-1.03-1.52-.3-.53-.55-1.11-.75-1.72h-1.62v-.02c-.5-.02-.95-.1-1.31-.27-.41-.19-.76-.43-1.04-.73-.2.26-.5.45-.89.59-.39.13-.82.23-1.31.29-.48.07-.98.1-1.49.11-.5.01-.95.02-1.37.02h0s-.02,0-.02,0h-.34c-.15,0-.32-.02-.52-.05-.24-.04-.5-.15-.79-.33-.08.77-.31,1.5-.7,2.2-.39.71-.88,1.37-1.47,1.98-.58.61-1.24,1.18-1.98,1.69-.73.51-1.48.96-2.26,1.34l-1.02-2.11c.43-.22.86-.46,1.29-.71.43-.26.83-.53,1.22-.82.39-.29.75-.6,1.09-.91.34-.32.63-.65.88-.99.25-.35.44-.7.58-1.07.15-.36.22-.74.22-1.12,0-.27-.04-.58-.12-.9-.08-.34-.18-.68-.3-1.04-.12-.36-.25-.72-.39-1.09-.14-.37-.27-.73-.38-1.08l2.19-.91c.24.71.45,1.3.65,1.77.2.46.4.83.58,1.11.2.27.4.46.6.57.21.1.45.16.72.16h.25c.71,0,1.31-.04,1.8-.12.49-.08.88-.21,1.18-.36.3-.16.52-.36.66-.59.13-.24.2-.52.2-.84,0-.21-.04-.48-.12-.82-.08-.35-.2-.79-.36-1.33l2.25-.63c.08.27.14.51.18.71.05.2.09.41.11.61.03.2.06.42.07.66.02.23.05.51.07.83.02.2.06.4.14.63.07.22.17.42.3.61.13.18.29.34.48.47.19.12.41.18.66.18h1.02c0-.38.04-.81.13-1.28.09-.47.22-.94.38-1.42.16-.49.36-.96.59-1.41.24-.46.5-.87.8-1.23.29-.36.61-.65.95-.87.34-.22.7-.33,1.08-.34h.04c.27,0,.54.06.78.18.26.12.49.28.71.49.22.21.41.46.58.75.17.29.31.59.41.91.1.32.17.65.2.99,0,.1.01.19.01.29,0,.24-.02.47-.06.7-.09.46-.25.93-.47,1.39-.21.46-.49.89-.82,1.3-.33.39-.71.74-1.15,1.05-.44.3-.92.53-1.45.67.06.14.16.32.29.55.13.23.28.47.43.7.16.24.31.47.47.68.16.22.29.39.4.51,0-.07,0-.15,0-.22,0-.3.04-.63.14-.97.09-.33.23-.67.42-1.02.19-.34.43-.66.69-.95.27-.29.57-.54.88-.76.32-.22.65-.39.99-.51.29-.1.57-.15.85-.17v-.02h1.47c.29,0,.58-.02.88-.05.3-.04.58-.11.82-.21.24-.11.44-.27.59-.47.16-.2.24-.47.24-.8,0-.16-.03-.38-.1-.67s-.16-.6-.27-.95c-.11-.35-.24-.71-.39-1.08-.15-.37-.3-.72-.47-1.04l2.11-1.04c.15.35.3.72.46,1.11.15.39.29.79.4,1.2.12.41.22.82.29,1.23s.11.82.11,1.21ZM329.15,340.19c.32-.15.61-.34.88-.58.26-.24.48-.52.65-.83.17-.32.27-.64.29-.98v-.14c0-.16-.02-.33-.05-.5-.04-.18-.1-.36-.18-.54-.08-.18-.19-.33-.31-.47-.12-.14-.26-.25-.4-.33-.13.04-.28.15-.43.34-.15.18-.29.4-.43.66-.14.26-.27.55-.4.88-.12.32-.23.64-.32.97-.09.32-.16.64-.21.94-.04.25-.05.47-.05.67v.15h.02c.32,0,.64-.07.96-.22ZM335.6,345.69l1.74,1.75,1.75-1.75-1.75-1.74-1.74,1.74Z" fill="#654287"/></svg>