<?xml version="1.0" encoding="UTF-8"?><svg id="a" xmlns="http://www.w3.org/2000/svg" width="16.51cm" height="15.35cm" viewBox="0 0 468 435"><path d="M153.05,41.35C196.98,27.8,237.44-8.47,282.26,1.81c45.24,10.37,69.93,57.41,100.7,92.24,31.92,36.12,73.97,67.71,82.57,115.17,8.75,48.28-6.34,100.78-36.42,139.47-28.06,36.1-76.79,45.1-119.56,61.17-35.2,13.23-70.49,28.96-107.81,24.3-35.56-4.44-62.34-30.97-93.11-49.39-32.9-19.7-74.24-29.49-93.8-62.52C-5.46,287.99.15,245.55,2.63,205.79c2.74-43.85-2.24-93.8,27.38-126.18,29.61-32.37,81.15-25.34,123.04-38.26Z" fill="#cce4ff" fill-rule="evenodd"/><path d="M211.71,39.83c43.11-1.62,88.58-24.9,126.71-4.49,38.49,20.61,49.45,69.75,68.88,109.2,20.16,40.92,50.61,80.18,46.88,125.75-3.79,46.36-30.21,90.74-66.86,118.79-34.2,26.17-80.54,22.44-123.21,26.67-35.11,3.47-70.92,9.21-103.61-4.22-31.15-12.8-48.99-43.67-72.41-68.1-25.04-26.12-60.13-45.24-69.84-80.29-10.08-36.37,5.3-73.86,17.2-109.66,13.13-39.49,20.73-86.46,55.44-108.84,34.69-22.37,79.7-3.28,120.8-4.83Z" fill="#e5f1ff" fill-rule="evenodd"/><path d="M295.12,78.4h0v-.03s0,.03,0,.03ZM290.49,80.68l.05.04s.03.02.04.03c.65.52,1.14.9,1.5,1.18h0c.69.54.91.71.88.8-.01.04-.08.07-.16.11h-.02c-.39.18-.71.31-.97.42h0s0,0,0,0h0c-1.04.44-1.21.52-1.49.84-.37.43.26,1.03.84.8.35-.14.7-.26,1.05-.38.27-.09.54-.18.81-.28.35-.12.41-.1.41.26,0,.58,0,1,0,1.34,0,1.13,0,1.22.3,2.32.09.35.64.36.68-.14.25-3.19.26-3.26.33-3.59.01-.07.03-.14.05-.25.52.31.92.55,1.22.74.96.59,1.02.63,1.3.48.54-.31-.52-1.33-1.09-1.88l-.08-.08s-.05-.05-.08-.08c-.29-.28-.11-.38.45-.67.62-.33,1.72-.9,3.15-2.25.04-.03.04-.09.05-.15,0-.03,0-.06.01-.09h-.03c-.09-.03-.16-.04-.22-.04-.13,0-.25.06-.63.22-.51.23-1.49.66-3.56,1.43-.04.01-.07.03-.1.04-.09.04-.15.06-.2.04-.12-.05-.09-.43,0-1.84.03-.45.07-1.01.11-1.69h-.07c0-.21,0-.41,0-.62,0-.42.02-.83,0-1.24-.06-.97-.56-1.68-1.16-1.03-.22.23-.22.26-.28,2.28h0c-.02.64-.04,1.48-.08,2.59,0,.02,0,.05,0,.08,0,.24.01.64-.3.42-.35-.24-.64-.44-.87-.6-1.1-.77-1.19-.83-1.79-.78-.43.04-.67.47-.43.84.08.14.22.24.35.35ZM151.29,110.52v-.02s0,0,0,0v.02ZM147.38,105.27c.21.13.47.3.77.5.24.16.46.31.65.44,1.22.82,1.54,1.04,1.5,1.15-.01.04-.07.06-.15.1l-.04.02c-.23.11-.58.25-.96.41-.62.25-1.3.53-1.67.73-.44.24-.64.7-.52.95.31.63,1.38.26,3.03-.29.35-.12.73-.25,1.13-.38.29-.09.28-.07.21.87-.01.2-.03.45-.05.75h.02s.03.13.03.34c-.01.36-.04.97.14,1.56.06.21.31.31.48.19.2-.13.24-.22.64-2.04.07-.3.1-.55.13-.75.08-.52.11-.72.41-.56,1.72.93,1.8.93,2.45.88.22-.02.41-.18.41-.4,0-.12-.09-.26-.16-.37l-.03-.04s-.03-.03-.08-.06c-.12-.09-.48-.33-1.65-1.28-.25-.21-.05-.28.36-.42.13-.04.28-.1.44-.16,1.3-.52,4.23-1.77,5.21-2.78.03-.02-.05-.2-.07-.2-1.41-.1-3.91.81-5.64,1.43-.25.09-.49.18-.71.25-.34.12-.3-.09-.21-.58.02-.12.05-.27.07-.43.05-.34.1-.64.14-.91.3-1.91.37-2.33.16-2.8-.15-.35-.36-.48-.68-.46-.32.03-.48.18-.58.58-.37,1.59-.53,2.69-.64,3.4-.11.72-.15,1.04-.3,1.1-.12.04-.31-.1-.67-.37-.51-.39-1.37-1.04-2.85-1.74-.61-.28-1.5-.34-1.61.34-.08.47.18.63.87,1.06ZM207.81,121.88c1.26.33,13.12-3.93,14.34-4.37,1.96-.7.85-2.56-.01-2.42-4.76.8-14.03,4.22-14.8,4.76-.74.52-.65,1.73.47,2.03ZM227.99,116.23c2.57-.06,2.69-3.71.12-3.88-.88-.06-2.04.91-1.98,1.94v.02h-.01c-.1,1.03.92,1.94,1.87,1.92ZM243.77,135.48c.09.04.13.05.21.08.18.05.57.16,2.11.77.35.14.24.24-.07.51-.12.11-.28.25-.45.43l-.05.05-.08.08c-.49.49-1.18,1.18-.79,1.66.35.43,1.19-.27,1.88-.84.54-.45.98-.82,1.04-.52.02.09.04.27.07.52.17,1.29.59,4.37,1.09,4.99.07.1.28.12.42.12.04,0,.12-.18.12-.28,0-2.61-.22-4.02-.33-4.76-.07-.45-.1-.65-.02-.71.06-.05.19-.02.42.05.03,0,.07.02.1.03h.05c.29.09.54.15.75.21,1.1.3,1.29.34,1.43.04.12-.25-.04-.35-1.53-1.29l-.02-.02c-.21-.13-.38-.23-.52-.3-.35-.19-.46-.25-.22-.47.24-.24.47-.46.68-.66,1.33-1.29,1.89-1.83,1.64-2.08-.04-.03-.17-.05-.24-.01-.97.42-1.62.84-2.06,1.12-.57.36-.77.49-.81.08-.06-.69-.11-1.25-.15-1.72-.15-1.79-.18-2.17-.46-2.94-.18-.51-1.02-.42-1.04.23l-.02.02h-.01c-.03.99-.02,1.17.08,2.29.05.57.12,1.39.21,2.69.03.32-.07.28-.51.1-.31-.12-.79-.32-1.52-.51-1.77-.46-2.05.73-1.4,1.04ZM229.42,230.59c9.8-3.89,18.43-5.75,20.66-5.96.23-.02.46-.03.69-.04.41-.02.81-.04,1.21-.12.82-.16,1.64-.13,2.46-.1,4.92.24,6.42,4.58,8.3,10.16,1.57,4.66,3.74,11.16,4.56,16,.55,3.26.48,4.1.35,5.55-.02.26-.05.55-.07.87-.18,2.3-1.37,3.92-3.08,5.23-2.72,2.09-10.2,3.98-13.68,4.87l-.36.09c-.12.03-.38.11-.77.23-2.09.65-7.71,2.41-12.62,2.67h-.01c-2.46.14-5.62-.89-7.03-2.95-2.46-3.61-3.73-7.81-4.84-12.01-.03-.13-.08-.3-.13-.5-.62-2.35-2.38-9.07-2.76-13.6v-.11c-.14-1.61-.29-3.52.58-5.24,1.39-2.78,3.58-3.86,6.54-5.04ZM256,248.98c-1.5-.95-3.45-2.2-5.96-3.83-.41-.26-.43-.25-.77.13-.16.18-.31.38-.46.57-.35.45-.7.9-1.18,1.24-.03.02-.07.07-.11.13-.08.12-.21.3-.49.51-1.3.96-2.14,1.51-3.83,1.14-1.1-.23-1.79-.44-2.24-.58-.72-.22-.82-.25-.99.12l-.14.29c-.09.18-.15.33-.22.47l-.02.06c-.22.5-.42,1-1.25,3.1h0s0,0,0,0c-.52,1.32-1.29,3.27-2.47,6.24-.18.44-.05.7.41.82,1.08.29,22.24-4.92,24.08-6.62h0c.64-.6.46-.72-4.36-3.79ZM255.81,236.87c-.69.96-1.82,2.51-3.88,4.97-1.54,1.85-1.52,1.86-.86,2.17.15.07.34.16.56.3.6.37,1.2.74,1.8,1.11h0c3.05,1.88,5.96,3.67,7.27,5.02.23.24.88.58.54-1.12-.17-.85-.28-1.43-.37-1.89h0c-.32-1.67-.32-1.69-1.74-7.09l-.07-.28h0c-.37-1.42-.65-2.47-1.42-3.93-.16-.3-.43-.46-.8-.53h0c-.24.19-.51.57-1.02,1.27h0ZM233.58,244.12c.9.31,1.99.68,3.28,1.13.19.06.31.11.42.15.45.17.81.31,5.24,1.49.44.11.89.2,1.35.29l.18.04.12.02s0,0,0,0h0,0c.78.02,1.38-.24,1.8-.91,0,0,.04-.05.11-.13h0s0,0,0,0c.73-.82,4.8-5.37,8.99-10.84.17-.23.14-.65-.06-.74l-.05-.03c-.52-.26-.54-.26-3.57.46-2.77.65-19.73,4.9-21.37,6.56-.97.98-.64,1.09,3.54,2.51ZM228.53,245.27c.72,2.87,1.85,6.94,2.69,8.9.12.28.23.54.34.79h0c.97,2.27,1.42,3.32,2.2,4,.49.42.83.07.91-.48.26-1.66,2.04-6.06,2.51-7.18.43-1.04.79-1.78,1.05-2.32.51-1.04.65-1.33.19-1.52l-.11-.04-.31-.13c-.58-.23-1.15-.47-1.74-.67-4.42-1.51-5.39-1.9-5.93-2.12-.36-.15-.53-.21-1.37-.48-.31,0-.46.11-.47.36,0,.07,0,.15,0,.23,0,.23-.01.45.05.66ZM213.08,157.08c-.42.12-.67.55-.55.98.12.42.6.67.98.55.42-.13.67-.55.55-.98-.12-.42-.55-.67-.98-.55ZM209.83,158.39c-.42.12-.67.55-.55.98.12.42.6.67.98.55.42-.13.67-.55.55-.98-.12-.42-.55-.67-.98-.55ZM215.88,149.49c0-.19-.06-.41-.18-.83l-.02-.06c-.11-.38-.17-.59-.26-.74-.26-.44-.73-.71-1.25-.71-.19,0-.41.06-.83.18l-5.52,1.54c-.43.12-.64.18-.8.28-.44.26-.71.73-.71,1.25,0,.19.06.41.18.83.12.43.18.64.28.8.26.44.73.71,1.25.71.19,0,.41-.06.83-.18l5.52-1.54c.43-.12.64-.18.8-.28.44-.26.71-.73.71-1.25ZM209.86,155.39c-.12-.42-.55-.67-.98-.55-.42.12-.67.55-.55.98.12.42.55.67.98.55.42-.12.67-.55.55-.98ZM213.26,154.65c-.12-.42-.55-.67-.98-.55-.42.12-.67.44-.55.86.12.42.55.67.98.55.42-.12.67-.44.55-.86ZM216.64,153.53c-.12-.42-.55-.67-.98-.55-.42.12-.67.55-.55.98.12.43.55.67.98.55.42-.12.67-.55.55-.98ZM216.83,156.28c-.42.12-.67.55-.55.98.12.42.6.67.98.55.42-.13.67-.55.55-.98-.12-.42-.55-.67-.98-.55ZM215.91,167.69c-.64.16-1.3.34-1.96.52-4.91,1.32-10.18,2.74-12.57-1.22-2.41-3.98-3.95-11.66-4.69-16.24-1.08-6.63,1.67-7.58,8.26-9.86.3-.1.6-.21.91-.32,3.11-1.08,8.39-2.2,9-2.32.34-.06.65-.08,1.69-.17.44-.04,1.01-.09,1.77-.15,3.6-.08,4.87,2.5,6.05,6.3.11.36.24.74.4,1.18.61,1.75,1.57,4.49,3,10.82l-.02.03c1.66,7.29-2.07,8.83-9.2,10.81-.5.14-1.01.25-1.52.36-.37.08-.75.16-1.12.26ZM214.73,162.8c3.86-1.08,5.8-1.62,6.64-3.29.84-1.7.25-3.87-.96-8.2l-.03-.11c-1.2-4.26-1.8-6.4-3.37-7.4-1.58-1.01-3.54-.47-7.44.61l-.06.02c-3.86,1.08-5.8,1.62-6.64,3.29-.84,1.7-.24,3.87.96,8.2l.03.11c1.2,4.26,1.8,6.4,3.37,7.4,1.58,1.01,3.54.47,7.44-.61l.06-.02ZM250.02,189.88h.01c.75,1.12,1.64,2.11,2.58,2.86.9.71,1.8,1.18,2.61,1.34.53.11.99.08,1.38-.08.16-.07.31-.18.43-.32l.75-.93c.1-.12.1-.29,0-.41l-1.63-2c-.05-.06-.11-.1-.19-.11-.08-.02-.17,0-.24.05l-.75.5c-.16.1-.34.14-.53.1-.1-.02-.19-.06-.28-.12-.41-.3-1.23-1-2.07-2.26-.84-1.26-1.17-2.28-1.29-2.78-.07-.29.05-.59.29-.75l.75-.5c.14-.09.18-.27.11-.42l-1.22-2.27c-.05-.08-.13-.14-.22-.16-.03,0-.07,0-.1,0-.02,0-.03,0-.05,0l-1.15.34c-.18.05-.33.15-.46.27-.6.62-.82,1.72-.61,3.1.22,1.44.89,3.06,1.88,4.55ZM259.38,206.32h0s.01.01.01.01c-.01,0-.01-.01-.01-.01ZM236.21,195.47c-.17-1.5-.39-3.44.48-7.96.88-4.51,1.44-6.66,2.52-10.34.81-2.78,1.7-5.57,4.82-6.52.24-.08.48-.15.73-.16.25,0,.49-.04.74-.08.47-.07.94-.15,1.42,0,.01,0,.08,0,.2,0,1.04.03,6.17.19,14.62,2.28,6.64,1.64,7.78,3.32,9.79,6.29h0s0,0,0,0c.2.3.41.6.63.93h-.01c1.51,2.16.95,6.73.79,8.04-.02.14-.03.24-.03.3-.31,4.56-2.25,12.63-4.76,16.61-.71,1.13-2.5,2.44-4.91,2.57-.44.03-.88.06-1.3.09h0c-.5.03-.98.07-1.38.09-.42-.01-5.19-.2-6.27-.56-.13-.05-.19-.04-.31-.04-.23,0-.65.02-2.11-.3-.36-.08-.52-.08-.7-.1-.3-.02-.65-.04-1.98-.34-4.92-1.16-6.93-1.74-8.5-2.8-1.03-.7-1.22-.98-1.33-1.16-.04-.06-.07-.11-.13-.16-.58-.49-.94-1.13-1.3-1.76-.12-.21-.24-.43-.38-.64-.15-.25-1.2-3.1-1.33-4.26v-.03ZM242.7,193.7c-.22.7.26,1.42.99,1.49l3.03.29c1.3,1.1,2.89,1.89,4.69,2.23,5.57,1.05,11.2-3.01,11.97-8.62.8-5.84-3.56-11.34-9.8-11.56-4.28-.15-8.29,2.52-9.79,6.53-.86,2.29-.86,4.63-.2,6.72l-.9,2.91h.01ZM238.78,199.33c0,.07,0,.17.04.23,2.02,3.21,3.66,3.62,8.39,4.82.51.13,1.05.27,1.63.42,1.53.39,5.07,1.25,6.8,1.27.23,0,.46.05.72.1.38.08.84.17,1.51.16h1.5v.07c.33-.02.67-.05,1-.07h0c.65-.05,1.3-.1,1.95-.11,1.19-.02,3.41-.42,4.26-1.36,1.4-1.56,1.62-2.17,3.28-6.94l.06-.16c.97-2.77,1.54-6.52,1.88-8.75h0c.08-.51.14-.94.2-1.27.29-1.61.28-2.35.27-2.71,0-.14,0-.22.01-.28h0c.15-.5.05-1-.06-1.49-.02-.11-.04-.21-.06-.32-.2-1.21-.82-2.23-1.44-3.25-.11-.19-.23-.38-.34-.57-.18-.31-.19-.06-.25.96-.09,1.63-.3,5.24-1.5,11.65-.47,2.5-1.49,7.1-2.94,9.28-1.07,1.6-2.06,2.96-5.02,3.12-.86.05-1.73.05-2.59-.11-.31-.05-.63-.08-.95-.09-.32-.02-.64-.04-.95-.1-13.28-2.2-15.89-3.68-16.91-4.26-.2-.11-.34-.19-.48-.24ZM306.35,253.01c2.33,11.98.56,13.88-3.2,17.93l-.06.06v-.02c-5.81,6.26-29.49,12.44-37.68,14.58l-.38.1c-2.51.65-4.85,1.26-7.03,1.83-29.01,7.55-31.01,8.07-33.89,7.82-3.74-.34-6.38-1.37-8.65-4.99-2.98-4.77-10.55-29.64-18.33-57.15-1.64,1.22-3.41,2.34-6.01,3.8-.17.09-.35.16-.56.23-.1.04-.21.08-.32.12h.02s-.05-.05-.08-.08l-.04-.03c-.2-.15-.4-.29-.22-.76.04-.1.65-.5,1.47-1.04.76-.49,1.7-1.11,2.57-1.73.83-.6,1.74-1.3,2.72-2.08-.48-1.72-.97-3.44-1.45-5.17-7.57,6.2-13.79,10.22-15.61,10.69v.02c-.35.02-.5-.05-.61-.28-.23-.48.37-.86,2.13-2,2.3-1.47,6.58-4.21,13.62-10.11-8.39-30.07-16.5-61.15-18.84-71.31-.2-.86-.39-1.68-.57-2.47h0c-4.17-18.02-4.39-18.98,6.01-26.93,5.98-4.56,26.28-10.16,33.56-12.06,7.13-1.86,13.15-3.53,18.25-4.95,22.4-6.22,27.27-7.58,31.51,1.39,5.45,11.51,21.05,63.74,31.83,104.17,1.86-.07,3.04-.37,3.77-.56.34-.09.58-.15.75-.15.44-.01.86.34.56.77-.65.96-2.22,1.11-4.37,1.32l-.34.03c.4,1.51.79,2.99,1.18,4.46,2.05-.27,3.03-.62,3.69-.86.24-.09.43-.16.62-.2.58-.14,1.02.42.59.89-.76.83-2.69,1.34-4.52,1.61,3.57,13.66,6.42,25.46,7.9,33.1ZM295.51,214.04c-1.17-.11-2.79-.26-4.51-.5.46,1.7.91,3.36,1.35,4.99,1.23.11,2.65.21,3.43.16.46-.03.89-.07,1.28-.11-.39-1.48-.79-2.99-1.19-4.51l-.36-.03ZM214.34,216.09s-.02.04-.03.05c-1.28,2.41-4.47,5.65-7.25,8.28,4.3,15.1,12.58,43.99,14.41,49.28.26.75.5,1.51.74,2.28,1.5,4.74,2.98,9.42,8.56,9.48,4.62-.56,7.01-1.29,9.52-2.06h0s0,0,0,0c.93-.28,1.87-.57,2.95-.86,2.35-.63,5.15-1.35,8.22-2.15,16.22-4.2,40-10.36,45.34-14.39,4.43-3.35,4.48-6.02,3.66-10.55-.9-4.97-4.34-18.63-8.86-35.59-1.61-.19-3.62-.54-5.82-1.21-3.7-1.14-4.78-1.65-5.97-2.19-.23-.11-.47-.22-.73-.34-.37-.17-.68-.38-.49-.74.16-.28.26-.25,1.35.14.45.16,1.07.38,1.94.65l.2.07h0c3.89,1.25,4.5,1.45,8.17,2.04.19.03.53.08.95.12-.44-1.65-.89-3.34-1.35-5.04l-.14-.02-.1-.02c-2.48-.41-4.73-1.2-4.91-1.37-.18-.17-.08-.52.16-.53.43-.04,1.35.12,2.6.33h0c.61.1,1.3.22,2.04.33-7.86-29.18-18.01-65.04-23.99-83.82-.74-2.34-1.38-4.47-1.95-6.4-2.82-9.46-4.18-14.04-10.03-14.3-2.42-.11-9.61,1.97-13.02,2.96-.47.14-.87.25-1.18.34-.8.23-.81.34-.9.87-.02.11-.03.23-.06.37-.1.49-.18.94-.26,1.35-.48,2.56-.71,3.75-1.41,4.48-.61.63-1.59.91-3.4,1.44-.74.21-1.61.47-2.66.8-24.95,7.93-25.46,7.52-26.86,6.41-.09-.08-.19-.15-.3-.23-1.83-1.31-2.83-2.29-3.47-2.93-.81-.8-1.08-1.07-1.75-.74-.82.4-1.87.78-3.05,1.21-3.49,1.28-8.08,2.95-10.88,6.57-2.9,3.76-2.51,5.14,14.71,65.79,1.71,6.01,3.58,12.6,5.63,19.84l.02.08c2.77-2.47,5.45-4.95,7.61-7.12.34-.34.78.06.62.43-.36.9-6.38,6.84-7.15,7.58-.22.21-.43.41-.65.62.38,1.33.89,3.15,1.51,5.32,3.08-2.86,5.66-5.47,6.68-6.9.13-.19.38-.31.61-.41.1-.04.26.04.37.1.16.08.09.2.03.3ZM199.37,220.84c1.35-1.16,2.76-2.39,4.16-3.62-10.76-37.33-22.09-78.46-21.66-82.67.65-6.42,6.29-9.37,12.59-11.74.64-.24,1.18-.46,1.65-.66,2.53-1.04,3.02-1.24,5.5.84.99.83,1.69,1.45,2.21,1.92,1.32,1.17,1.48,1.32,2.18,1.12,2.03-.59,3.41-.94,4.88-1.31,3.72-.94,7.93-2,24.35-7.39.67-.22,1-1.59,1.39-3.16.3-1.21.62-2.54,1.15-3.54.62-1.2,11.71-3.74,13.46-3.94,8.58-.98,10.16,4.14,14.34,17.65.67,2.17,1.41,4.57,2.26,7.19,4.32,13.38,14.85,51.23,22.83,80.7,1.49.2,3.15.35,4.83.37-9.74-36.45-23.54-81.69-29.82-99.19-3.89-10.82-7.63-11.76-17.68-9.1-1.43.38-3.26.9-5.58,1.55h0s0,0,0,0h0s0,0,0,0c-4.2,1.18-9.99,2.8-17.85,4.89-10.14,2.7-30.41,8.12-39,12.23-10.28,4.9-9.04,9.6-3.42,30.88.95,3.59,2.02,7.64,3.18,12.25,7.09,28.09,10.97,43.36,14.08,54.73ZM201.3,227.78c1.42-1.22,2.84-2.48,4.2-3.72-.51-1.75-1.02-3.51-1.53-5.28-1.39,1.3-2.78,2.55-4.15,3.75.51,1.83.99,3.56,1.47,5.24ZM305.68,256.54c-.06-.36-.12-.72-.17-1.1-1.27-8.02-4.24-20.72-8.07-35.41-.92.09-1.75.12-2.32.1h.01v-.03c-.1,0-.21,0-.33-.01-.48-.02-1.18-.04-2.06-.11,4.22,15.7,7.37,27.77,7.85,30.2l.15.75c2.61,13.17,3.35,16.88-30.04,25.71-5.13,1.36-9.62,2.56-13.55,3.61-25.93,6.92-27.7,7.4-31.03,4.92h-.01.01c-2.1-1.55-3.18-3.47-4.67-7.91-2.15-6.4-8.51-27.59-15.53-51.77-.7.64-1.35,1.23-1.9,1.73h0s-.49.45-.49.45c-.65.59-1.24,1.13-1.79,1.63,2.38,8.27,4.67,15.49,8.27,26.82,1.78,5.6,3.87,12.21,6.46,20.44.23.72.44,1.43.65,2.14h0c1.42,4.79,2.73,9.21,7.27,11.41,1.22.59,2.51.96,3.89.82v-.02c3.54.41,54.64-13.63,61.58-15.97,17.83-6,17.15-10.19,15.83-18.39ZM344.75,247.44v-.04c-.01-.22-.2-.27-.34-.31h-.02s-.01-.01-.01-.01c-.24-.05-.49.09-1.49.64-.33.18-.73.41-1.24.69-.6.32-1.09.59-1.5.82-1.92,1.06-1.94,1.07-1.97.62-.02-.26-.02-.29.12-3.78h.01s.01.01.01.01c-.03-.51-.05-.96-.06-1.35-.08-1.89-.1-2.45-.8-2.37-.23.03-.36.16-.4.4-.01.08-.03.17-.04.25-.03.18-.07.37-.08.55-.17,2.75-.16,4.34-.16,5.23,0,1,0,1.1-.27.94-.06-.03-.6-.29-1.32-.64-.57-.27-1.24-.6-1.88-.91-.54-.26-1.24-.36-1.48.24-.25.66.06.81,2.22,1.91.54.28,1.2.61,1.99,1.03-.42.23-.88.46-1.33.69-1.84.93-3.63,1.83-2.92,2.75.25.32.46.22,2.34-.67.61-.29,1.41-.67,2.44-1.14.35-.15.36,0,.4.81h0c.02.35.04.83.1,1.45.04.4.1.8.15,1.2.03.21.06.41.09.62.07.53.98.64.98-.12,0-1.29,0-2.22-.01-2.89h0c-.01-1.24-.01-1.58.09-1.62.04-.02.1.01.18.05l.03.02s.03.01.04.02c.08.04.16.07.24.11.1.05.2.09.3.14h0c.86.41,1.79.85,3.41,1.26.66.15.96-.34.38-.76-1.33-.96-2.19-1.41-2.66-1.65-.3-.15-.44-.23-.44-.3,0-.07.11-.13.31-.26l.06-.04.05-.03.57-.35c.88-.54,1.18-.72,1.47-.92.15-.1.29-.21.52-.38.33-.24.82-.61,1.74-1.26.23-.17.21-.39.2-.61v-.03ZM194.27,279.67c-.08.03-.16.06-.24.08h0c-.27.09-.46.16-.64.23-.47.18-.91.43-2.45,1.27h0s0,0,0,0h0s0,0,0,0h0c-.62.35-1.43.79-2.48,1.36-.15.08-.25.02-.26-.17-.07-1-.09-2.25-.11-3.47-.03-2-.07-3.93-.3-4.59-.06-.17-.58-.46-.71,0-.38,1.36-.2,6.37-.12,7.79.02.35-.21.19-.54-.03h0c-.14-.09-.3-.2-.46-.28-.21-.11-.4-.2-.58-.29-1.67-.86-1.84-.94-2.36-.71-.41.18-.57.74-.07,1.09.06.04.12.06.19.09.06.02.12.05.18.08.46.27.84.49,1.17.68h0c1.21.71,1.58.92,1.55,1.07-.01.06-.09.11-.21.18h-.01c-.26.17-.49.3-.69.42-.94.56-1.33.79-1.97,1.57-.33.41-.27,1.43.82.82.42-.24.79-.45,1.1-.62,1.47-.83,1.86-1.05,1.97-.95.04.04.05.11.06.22v.04c.06.55.1.97.13,1.29.06.64.09.92.13,1.2.03.21.08.41.15.78.07.33.17.8.31,1.51.04.17.18.58.42.54.32-.05.29-.51.08-3.79-.03-.39-.05-.82-.08-1.3v-.02s-.01.04-.01.04c0,0-.01-.07-.01-.2.01-.41.08-.37.7.02.34.21.85.53,1.6.93.28.15.58.27.88.39.17.07.33.13.5.2.41.18.44-.25.31-.43l-.02-.02-.04-.05s-.07-.09-.1-.13c-.22-.29-.45-.58-.73-.82-.62-.53-1.11-.88-1.44-1.12-.6-.43-.75-.54-.4-.76.34-.21.64-.39.92-.56,1.55-.93,2.45-1.46,4.08-3.22.06-.05.09-.12.12-.2.01-.03.03-.06.04-.09-.04,0-.08-.02-.12-.04-.09-.03-.17-.07-.24-.04ZM135.91,195c-2.03-.18-2.67-.24-4.68-1.09-2.92-1.21-6.06-3.36-8.18-6-.88-1.09-1.43-2.3-1.74-3.66-2.21-9.88-1.16-24.35,0-27.16l.03.03c1.71-4.08,5.33-4.6,9.65-5.22l.22-.03c3.66-.53,17.34-1.46,22.3-.04,2.84.83,3.89,1.52,7.22,4.37,1.43,1.22,2.76,3.41,3.29,5.11.45,1.44.48,1.66.67,3.02.08.57.18,1.35.36,2.51,0,.03.06,1.19.11,2.2h0c.04.79.07,1.49.07,1.5,0,.05,0,.09,0,.13,0,.28-.01.52.34.57,2.87.4,4.86.74,7.46,1.55.1.03.2.06.28.09h0c.58.18.84.25.8.44-.04.19-.53.11-.74.07-1.02-.13-1.52-.17-2.08-.21-.46-.03-.95-.07-1.8-.17-1.44-.16-2.39-.3-3-.4-1.14-.17-1.18-.18-1.18.18v.07c0,.51.07,3.93,0,6.18-.01.53-.11,1.39-.2,2.2-.08.74-.16,1.44-.17,1.81-.04,1.67-.49,3.23-1.04,4.78-.68,1.91-2.9,4.2-5.22,5.06-4.88,1.84-8.17,2.16-13.76,2.4-3.66.17-4.15.19-7.38-.13-.63-.06-1.16-.11-1.62-.15h0s0,0,0,0h0ZM128.03,179.37c1.85,2.47,7.38,1.09,7.73-1.8.11-.88.13-7,.13-7.09-.03-.53-.06-.94-.08-1.26-.05-.67-.08-.97.05-1.15.1-.14.29-.22.63-.36.07-.03.15-.06.24-.1.34-.14,4.78-1.22,7.93-1.84.44-.08.84.06.88.67.16,3.54.16,4.59.16,5.2,0,.36,0,.56.03,1.03.02.25.04.46.06.64.07.75.09.96-.24.96-.08,0-.16,0-.23.01-.15.01-.31.02-.45-.01-.59-.16-1.16-.09-1.75-.03l-.15.02c-2.35.23-4.26,2.23-2.6,3.85,2.27,2.21,7.09.79,6.98-1.4-.02-.53-.04-3.4-.04-3.71h.01c0-.14-.04-.66-.1-1.44-.12-1.59-.32-4.21-.42-6.6-.12-2.86-.12-4.05-.13-4.69,0-.32,0-.5-.02-.68-.02-.24-.05-.48-.14-1.05h0c-.08-.57-1.27-.6-1.9-.45-2.23.53-7.1,1.74-9.17,2.29-.67.18-1.07.61-1.21,1.33-.07.34.28,10.08.3,10.49.01.18.03.39.06.62.08.82.19,1.81-.17,1.96-.26.11-.59.22-.85.14-3.38-.95-7.27,2.11-5.54,4.44ZM134.48,193.55c1.45.14,2.14.23,2.59.29.2.03.36.05.51.06.47.05.95.05,2.88.04.54,0,1.2,0,2,0v.06c1.47-.05,2.64-.08,3.59-.1,2.39-.07,3.41-.09,4.42-.22.75-.1,1.49-.25,2.79-.53h0c.46-.1.99-.21,1.61-.34,1.52-.31,2.98-.82,4.37-1.52,1.21-.61,2.17-1.5,2.95-2.59,1.12-1.56,1.24-3.44,1.36-5.18.01-.19.03-.38.04-.57.06-.78.11-1.28.14-1.66h0c.03-.32.05-.54.07-.77.04-.54.04-1.08.06-2.93,0-.47,0-1.02.01-1.68,0-.97.04-1.68.06-2.19.04-.81.05-1.13-.1-1.26-.1-.09-.26-.1-.53-.11h-.09s-.06-.01-.1-.01c-.47-.04-.78-.65-.2-.95.3-.16.51-.22.65-.27.25-.07.29-.09.27-.46l-.02-.22c-.05-.8-.18-2.73-.27-3.24-.07-.43-.14-.85-.21-1.23h0c-.61-3.65-.9-5.37-2.11-6.94-.46-.6-1.85-2.39-2.72-2.68,0,.02,0,.05,0,.07,0,.05,0,.09,0,.13,1.24,3.23,2.51,21.62,1.25,26.32-1.31,4.87-2.59,6.6-9.26,7.5-4.07.55-18.61.92-22.19.19l.02.03c.11.15.21.29.34.41.02.03.06.05.1.06.03.01.05.02.08.04.84.63,1.77,1.09,2.69,1.56h0s.12.06.12.06l.21.1c.83.42,1.69.64,2.62.73ZM168.66,175.21c-.44,0-.71,0-.85.12-.31.28-.25.54.07.72.24.13.55.15,1.12.18.37.02.86.04,1.51.11,2.28.23,3.69.42,4.58.54,1.38.18,1.49.2,1.62-.07-.05-.03-.1-.06-.16-.09-.14-.08-.29-.16-.43-.2l-.29-.07c-1.99-.51-4.85-1.24-6.74-1.23h0c-.16,0-.3,0-.43,0ZM306.64,158.34c-.17-.05-.4.21-.52.56-.03.07-.04.15-.04.22,0,.04,0,.08-.02.12-1.29,7.72-4.85,11.24-10.15,16.46-.63.63-1.29,1.27-1.97,1.96-.02.02-.04.04-.06.05l-.03.03c-.11.1-.21.2-.28.33-.22.37.27.65.8.31,2-1.26,5.76-4.61,8.4-7.91h-.02c3.77-4.7,5.39-11.73,3.88-12.13ZM302.07,157.53c-.08-.3-.38-.59-.61-.59s-.43.28-.49.66c-.01.1-.03.2-.04.29-.12.84-.24,1.71-.96,3.24-1.64,3.48-2.8,5.19-3.42,6.11-.47.7-.64.94-.47,1.15.9,1.09,6.84-7.33,5.99-10.86ZM299.91,134.62c-1.46-4.98,3.62-9.32,8.28-7.21,1.82.83,2.88,2.33,3.36,4.22.07.26.05.55.03.84,0,.13-.02.26-.02.39.25,2.17-1.31,5.18-4.62,5.92-2.81.62-6.07-.91-7.03-4.16ZM302.57,135.76c.56.66,1.32.92,2.07,1.17h0c.05.02.1.04.16.05,2.15.76,4.97-1.46,5-4.07v.02c.09-5.39-6.84-6.08-8.21-1.14-.42,1.52-.01,2.8.98,3.97ZM315.59,130.27c.03-1.71-2.32-1.56-2.36-.01-.04,1.65,2.34,1.61,2.36.01ZM285.6,139.85c0-.5,0-.78.01-1.05.02-.35.06-.69.15-1.47h0s.1-.86.1-.86h-.02c.26-2.23.37-3.02,1.15-6,4.43-16.98,5.51-17.57,13.45-17.4.89.02,10.27,1.73,11.54,2.04,7.82,1.88,9.38,2.69,11.94,4.46.94.65,2.59,3.53,3.1,4.56,1.42,2.87,1.67,5.5,1.39,7.87,0,.02-.68,10.78-5.21,20.28-1.1,2.32-5.2,4.94-9.56,4.75-4.85-.22-15.07-2.22-19.81-3.96-2.84-1.04-4.62-1.96-6.05-4.46-1.43-2.5-2.2-5.5-2.18-7.44,0-.57,0-.99,0-1.32h0ZM294.57,138.63s.19.04.49.12c2.27.56,11.94,2.94,17.38,3.54.25.03.48.05.69.08,2.62.31,2.67.32,3.67-4.17.12-.53.25-1.11.39-1.71.68-2.94,1.47-6.36,1.27-7.7h0,0c-.13-.91-.79-1.1-1.63-1.28-1.15-.24-1.94-.36-2.52-.45-.72-.11-1.1-.16-1.39-.35-.32-.21-.54-.57-1.01-1.34-.2-.33-.45-.73-.76-1.23-.26-.41-.52-.8-1.02-.96-.15-.04-.29-.09-.43-.14-.24-.09-.48-.17-.73-.22-.45-.09-.91-.17-1.37-.24-.64-.1-1.28-.21-1.91-.36-1.09-.28-1.91.1-2.65.82-.21.21-.39.39-.54.54-.45.46-.68.69-.96.78-.28.1-.61.05-1.27-.04-.3-.04-.67-.09-1.13-.14-.21-.02-.43-.04-.64-.06h0c-.38-.03-.75-.06-1.12-.11-.98-.16-1.61.16-1.88,1.09-.58,1.94-1.73,7.1-1.84,7.93-.08.53-.21,1.05-.34,1.58h0c-.14.57-.29,1.15-.36,1.74-.13,1.14.48,2.09,1.61,2.28ZM288.23,146.56c.07.36,1.04,2.1,1.22,2.42.32.55.73,1.04,1.31,1.38,4.62,2.68,14.91,4.28,17.8,4.72h0c.38.06.64.1.73.12,6.23,1.19,10.73.58,13.69-6.13,1.21-2.74,2.87-9.56,3.58-12.76.4-1.83.44-2.54.53-4.55h0s0-.02,0-.02c.02-.49.05-1.05.09-1.73h.01c-.03-.33-.05-.61-.06-.87-.11-1.58-.14-1.96-1.03-3.82-.01-.03-.05-.05-.08-.07-.01,0-.02-.01-.03-.02h-.01s0-.01,0-.01c0,0-.01-.01-.02-.02-.05.13-.07.33-.1.72-.05.59-.13,1.58-.42,3.32-.2,1.26-1.99,10.78-2.35,12.11-1.86,7.01-3.31,12.16-10.36,11.86-2.4-.11-17.06-3.22-21.9-5.21-.99-.41-1.66-.86-2.1-1.15-.22-.15-.37-.25-.48-.29ZM160.04,248.88c.86-.37,1.27-1.37.91-2.24-.37-.86-1.37-1.27-2.24-.91-.86.37-1.27,1.37-.91,2.24.37.86,1.37,1.27,2.24.91ZM170.58,252.77c.86-.37,1.27-1.37.91-2.24-.36-.88-1.37-1.27-2.24-.91-.86.37-1.27,1.37-.91,2.24.37.86,1.37,1.27,2.24.91ZM149.11,250.48c.37.86,1.37,1.27,2.24.91.88-.36,1.27-1.37.91-2.24-.37-.86-1.37-1.27-2.24-.91-.86.37-1.27,1.37-.91,2.24ZM156.09,240.66c.86-.37,1.27-1.37.91-2.24-.37-.86-1.37-1.27-2.24-.91-.86.37-1.27,1.37-.91,2.24.37.86,1.37,1.27,2.24.91ZM148.2,244.01c.86-.37,1.27-1.37.91-2.24-.37-.86-1.37-1.27-2.24-.91-.86.37-1.27,1.37-.91,2.24.37.86,1.37,1.27,2.24.91ZM177.08,241.89c1.54,3.59,4.29,10.93,3.04,14.64.13,3.1-3.53,5.98-6.16,7.61-4.6,2.86-8.96,4.67-11.38,5.67-.3.12-.57.23-.8.33-.56.24-1.12.48-1.66.72-4.53,1.98-8.47,3.69-12.63,1.87-3.66-1.6-6.03-6.58-7.95-10.59-.33-.68-.64-1.34-.94-1.94-1.81-3.62-4.66-10.72-4.31-13.04-.14-2.18,1.28-6.03,2.06-8.06,1.03-2.67,2.46-3.69,4.8-5.12,6.24-3.8,14.12-7.25,18.14-8.46.31-.09.62-.16.93-.23h0c.35-.08.7-.16,1.04-.27,3.4-1.04,6.18-.56,8.18,2.39.1.15.2.29.29.43l.11.16c.66.97,1.32,1.93,1.87,2.96,1.36,2.51,4.22,8.29,5.34,10.92h.01s.01,0,.01,0ZM156.84,243.12c-1.98.84-2.9,3.13-2.06,5.12l3.72,8.76c.84,1.98,3.13,2.9,5.12,2.06l8.76-3.72c1.98-.84,2.9-3.13,2.06-5.12l-3.72-8.76c-.84-1.98-3.13-2.9-5.12-2.06l-8.76,3.72ZM143.32,243.45l3.89,9.14c.79,1.88,2.97,2.76,4.85,1.96l3.19-1.36-2.14-5.04c-1.01-2.37.09-5.13,2.48-6.14l5.04-2.14-1.36-3.19c-.79-1.88-2.97-2.76-4.85-1.96l-9.14,3.89h.01s-.01-.01-.01-.01c-1.88.79-2.76,2.97-1.96,4.85ZM176.46,258.87c-3.46,2.06-4.09,2.34-4.97,2.73-.38.17-.81.36-1.53.73-.03.02-8.64,3.84-12.25,5.16-3.98,1.46-8.41,2.06-11.1-1.34-1.42-1.79-2.68-3.69-3.66-5.75-4.18-8.76-5.51-13.44-6.11-15.57-.19-.66-.3-1.07-.42-1.29-.17.24-.71,2.15-.78,2.41-.4,1.56-.05,3.27.44,4.76,1.14,3.47,2.12,5.76,3.38,8.34.23.47.46.96.71,1.47,2.1,4.39,4.76,9.94,7.81,11.08.95.36,1.89.7,2.92.68,4.22-.52,6.01-1.3,7.98-2.16.59-.26,1.2-.52,1.9-.79,2.31-.89,4.57-1.91,6.8-3,5.84-2.85,6.77-3.43,8.8-5.21h-.01v-.02c.63-.55,2.08-2.36,2.69-4.52.01-.02,0-.05,0-.09,0-.02,0-.03,0-.04-.17.07-.36.3-.62.62-.42.51-1.02,1.23-1.97,1.8ZM332.55,200.68c.48-.14.77-.65.64-1.1-.13-.47-.65-.73-1.13-.6s-.77.65-.64,1.1c.13.47.65.73,1.13.6ZM332.4,203.5c.13.47.65.73,1.13.6.48-.14.77-.65.64-1.1-.13-.47-.65-.73-1.13-.6-.48.14-.77.65-.64,1.1ZM334.82,201.87c.48-.14.77-.65.64-1.1-.13-.47-.65-.73-1.13-.6-.48.13-.77.65-.64,1.1.13.47.65.73,1.13.6ZM320.47,206.31l.89-.25.24.85c.13.47.65.73,1.13.6.48-.14.77-.65.64-1.1l-.24-.85.89-.25c.48-.14.77-.65.64-1.1-.13-.47-.65-.73-1.13-.6l-.89.25-.24-.85c-.13-.47-.65-.73-1.13-.6-.48.14-.77.65-.64,1.1l.24.85-.89.25c-.48.14-.77.65-.64,1.1.13.47.65.73,1.13.6ZM331.28,202.9c.48-.14.77-.65.64-1.1-.13-.47-.65-.73-1.13-.6-.48.14-.77.65-.64,1.1.13.46.65.73,1.13.6ZM347.99,211.26c0,.14-.02.29-.02.49.27,2.36-1.33,6.43-4.09,8.48-1.37,1.01-2.84,1.8-4.44,2.39-.86.32-1.44.57-2.11.86-1.12.49-2.5,1.09-5.83,2.26-5.95,2.12-12.07,3.16-13.01,3.16-1.09,0-2.17-.11-3.25-.34-.66-.14-1.25-.44-1.81-.79-2.74-1.68-3.48-3.52-4.76-6.7-.13-.33-.27-.67-.41-1.03-.47-1.17-2.82-8.49-3.79-12.64-.12-.54-.21-1.09-.29-1.63-.06-.4-.12-.79-.2-1.19-.19-.99-.3-1.98-.25-2.99.14-2.66,2.31-7.41,6.13-9.74,3.51-2.14,17.43-6.15,21.46-7.13.09-.02.21-.05.35-.1.88-.25,2.73-.77,4.55-.48,1.17.18,2.35.8,3.2,1.98,1.24,1.69,2.27,3.5,3,5.48.11.31.24.62.37.97h0c.73,1.87,1.87,4.75,4.3,13.99l-.02.02v.02c.97,3.68.95,4.03.91,4.65ZM316.15,212.28c.24.85.64,1.77,1.22,2.54.59.77,1.42,1.42,2.57,1.6.66.1,1.38.09,2.15-.14.93-.27,1.6-.75,2.09-1.3.44-.49.79-1.06,1.08-1.54l.04-.07s.04-.06.05-.09l.02-.04s.02-.03.03-.05c.34-.57.66-1.04,1.02-1.39.48-.46,1.06-.78,1.68-.96l2.35-.68c.62-.18,1.31-.21,1.93-.08.51.1,1.01.33,1.61.64.03.02.05.03.08.05.03.02.07.03.11.05.53.27,1.15.58,1.8.77.71.21,1.55.24,2.46-.02.76-.22,1.4-.6,1.9-1.02.88-.75,1.24-1.75,1.32-2.72.1-.96-.07-1.95-.31-2.81-1.09-4.06-2.41-6.92-3.91-8.82h.1c-1.51-1.91-3.24-2.86-5.11-2.94-.66-.03-1.27.12-1.76.26l-.72.2c-1.21.35-2.29,1.06-3.08,2.03l-.48.59c-.24.3-.59.53-.97.64-.37.11-.79.1-1.15-.02l-.71-.24c-1.19-.41-2.49-.42-3.7-.07l-.72.2c-.5.16-1.09.35-1.63.72-1.56,1.07-2.52,2.8-2.78,5.22h-.01c-.22,2.36.22,5.48,1.42,9.49ZM346.32,215.56c-.12.03-.27.13-.52.3-.8.55-2.61,1.79-7.8,3.34-1.02.3-2.2.67-3.48,1.07-3.61,1.13-7.97,2.5-11.54,3.25-2.16.46-3.14.64-5.4.17-1.57-.33-2.79-1.14-3.71-2.45-1.23-1.74-2.06-3.69-2.83-5.66-.7-1.82-5.18-16.56-4.58-18.13,0-.02,0-.05,0-.08,0-.02,0-.04,0-.05-.01,0-.03.01-.05.01-.05.01-.1.03-.11.06-.25.38-.66,1.28-.8,1.66-.83,2.21-.71,2.94-.34,5.14h0s0,0,0,0c.07.43.15.92.24,1.49.62,4.11,3.62,13.04,5.47,17.3.45,1.05,1.08,2,1.94,2.78,1.68,1.51,2.62,1.61,4.34,1.79.3.03.62.07.98.11,4.48-.59,6.85-1.32,7.89-1.64.2-.06.35-.11.45-.14,4.46-1.15,8.05-2.61,10.32-3.55.53-.22.99-.41,1.38-.55.12-.05.25-.1.4-.15h0c1.7-.67,4.79-1.87,6.1-3.36h.02c.57-.67,1.53-2.06,1.64-2.71Z" fill="#003166" fill-rule="evenodd"/><path d="M173.86,345c-.13-.32-.29-.62-.48-.9-.2-.28-.42-.52-.68-.73-.26-.21-.55-.38-.88-.49-.32-.12-.68-.18-1.07-.18-.43,0-.81.09-1.14.27-.33.17-.62.4-.88.68-.26.27-.48.58-.69.93-.2.35-.39.7-.56,1.05-.17.34-.35.67-.55,1-.19.34-.41.64-.67.9-.25.27-.54.49-.87.66-.33.16-.71.25-1.16.25-.19,0-.35,0-.49-.03-.14-.03-.26-.06-.36-.11-.1-.06-.2-.12-.27-.21-.08-.09-.15-.2-.21-.34-.02-.04-.05-.11-.09-.23-.04-.12-.08-.33-.14-.61-.05-.29-.12-.68-.2-1.18-.07-.49-.16-1.13-.25-1.91,0-.04-.02-.16-.04-.34-.02-.19-.04-.41-.07-.66-.02-.26-.05-.53-.08-.81-.03-.29-.06-.57-.09-.82-.03-.26-.05-.47-.06-.66-.02-.19-.03-.31-.04-.36l-2.31.49.12,1.39c-.3.12-.63.27-.97.44-.34.16-.67.35-.99.57-.33.21-.64.44-.94.69-.3.26-.56.53-.79.83-.22.3-.4.62-.54.96-.13.34-.2.7-.2,1.08,0,.35.05.67.16.95.11.28.26.53.45.74.2.21.42.4.68.55.26.15.54.27.84.37.3.1.61.17.93.21.33.04.65.06.98.06.29,0,.59-.01.89-.04.3-.03.63-.06.98-.11.21.36.43.63.66.82.23.19.47.33.73.41.26.09.53.14.81.16.23.01.47.02.73.03h0s.18,0,.18,0c0,0,0,0,0,0,0,0,0,0,0,0h.18v-.02c.64-.02,1.21-.13,1.71-.37.55-.26,1.07-.62,1.55-1.1.14.1.29.2.45.3.16.1.33.19.49.28.17.09.33.18.48.26.16.07.3.14.43.19.29.11.58.2.86.26.29.07.56.1.81.1.3,0,.59-.05.86-.14.27-.09.53-.22.77-.38.24-.17.45-.37.63-.61.19-.24.34-.5.46-.79.1-.27.18-.56.23-.85.06-.29.08-.59.08-.9,0-.34-.03-.67-.1-1.01-.06-.34-.16-.67-.28-.99ZM159.79,347.16c-.2.01-.39.02-.58.02-.21,0-.44,0-.68-.03-.24-.03-.46-.06-.67-.11-.2-.05-.37-.12-.5-.21-.13-.09-.2-.2-.2-.34,0-.15.05-.3.14-.46.1-.16.22-.31.38-.47.15-.16.33-.31.52-.46.2-.15.4-.29.61-.42.21-.13.41-.24.6-.35.2-.1.37-.19.53-.26.04.29.07.57.1.86.04.29.07.56.1.83.03.26.06.51.09.73.03.22.06.42.09.58-.16.02-.33.05-.53.06ZM172.48,347.2c0,.15-.01.28-.04.4-.04.15-.09.27-.15.38-.05.11-.12.2-.19.26-.07.06-.13.1-.19.11-.08.03-.17.04-.27.04-.12,0-.26-.02-.4-.05-.26-.05-.53-.14-.79-.25-.27-.11-.53-.23-.78-.36-.24-.13-.45-.26-.61-.36.23-.46.43-.84.59-1.14.16-.3.29-.54.41-.72.12-.18.21-.31.29-.38.08-.08.17-.13.25-.15.09-.02.18-.03.27-.03.18,0,.34.04.49.11.23.12.42.28.58.49.16.21.29.46.38.74.1.27.15.55.15.82v.09ZM185.23,349.86c-.41.31-.91.54-1.49.68-.57.15-1.2.23-1.89.23h-1.45c-1.24,0-2.17-.31-2.81-.93-.64-.62-.96-1.56-.97-2.81,0-.2,0-.51.02-.96.01-.45.02-1,.02-1.64,0-.38,0-.79,0-1.23,0-.44-.02-.89-.03-1.35-.01-.46-.03-.92-.05-1.38-.02-.46-.04-.91-.07-1.33-.03-.43-.07-.83-.11-1.2-.04-.38-.09-.71-.15-.99l2.29-.68c.07.35.13.78.18,1.3.05.51.1,1.05.15,1.62.04.58.07,1.17.09,1.77.02.6.04,1.16.04,1.69,0,.32,0,.67,0,1.03,0,.36,0,.68,0,.95,0,.23,0,.45,0,.66,0,.2,0,.4,0,.58,0,.19,0,.38,0,.56v.7c0,.22.02.41.06.58.05.17.13.31.25.43.12.11.26.19.44.24.18.05.39.07.63.07h1.52c.29,0,.58-.02.88-.04.3-.04.58-.11.82-.21.24-.11.44-.27.59-.47.16-.2.24-.47.24-.8,0-.16-.03-.38-.1-.67s-.15-.6-.26-.95c-.11-.35-.24-.71-.39-1.08-.15-.37-.3-.72-.47-1.04l2.11-1.04c.15.35.3.72.46,1.1.15.39.29.79.4,1.21.12.41.22.82.29,1.23.07.41.11.82.11,1.21,0,.68-.12,1.27-.35,1.76-.23.49-.55.89-.97,1.21ZM183.32,340.79l-1.74-1.75,1.74-1.74,1.75,1.74-1.75,1.75ZM200.49,345.68c.07.41.11.82.11,1.21,0,.68-.11,1.27-.35,1.76-.23.49-.55.89-.97,1.21-.41.31-.91.54-1.49.68-.57.15-1.2.23-1.89.23h-1.45c-.15,0-.32-.02-.52-.05-.24-.04-.5-.15-.78-.33-.08.77-.31,1.5-.7,2.2-.39.71-.88,1.37-1.47,1.98-.59.62-1.24,1.18-1.98,1.69-.73.51-1.48.96-2.26,1.34l-1.02-2.11c.43-.22.85-.46,1.29-.71.43-.26.83-.53,1.22-.82.39-.29.75-.6,1.09-.91.34-.32.63-.65.88-.99.25-.35.44-.7.58-1.07.15-.37.22-.74.22-1.12,0-.27-.04-.58-.12-.9-.08-.33-.18-.68-.3-1.04-.12-.36-.25-.72-.39-1.09-.14-.37-.27-.73-.38-1.08l2.19-.91c.24.71.45,1.3.65,1.77.2.46.39.83.58,1.1.2.27.4.46.6.57.21.1.45.15.72.15h1.38c.29,0,.58-.02.88-.04.3-.04.58-.11.82-.21.24-.11.44-.27.59-.47.16-.2.24-.47.24-.8,0-.16-.03-.38-.1-.67-.07-.29-.16-.6-.27-.95-.11-.35-.24-.71-.39-1.08-.15-.37-.3-.72-.47-1.04l2.11-1.04c.15.35.3.72.46,1.1.15.39.29.79.4,1.21.12.41.22.82.29,1.23ZM197.4,352l1.75,1.74-1.75,1.75-1.74-1.75,1.74-1.74ZM216.14,346.07c-.15-.45-.34-.87-.57-1.26-.22-.4-.47-.75-.75-1.06-.78-.84-1.64-1.26-2.58-1.26-.37,0-.71.07-1.02.21-.32.14-.61.33-.87.58-.26.24-.49.51-.69.83-.2.31-.37.64-.51,1-.13.35-.24.7-.31,1.07s-.11.71-.11,1.05c0,.52.07.97.21,1.35.14.38.34.7.59.97.25.26.56.48.9.64.35.16.74.28,1.15.36.42.09.86.15,1.33.18.47.03.95.05,1.44.05-.11.41-.33.83-.67,1.24-.33.41-.76.8-1.29,1.17-.53.37-1.16.69-1.88.99-.72.3-1.53.54-2.42.71l.55,2.28c.71-.12,1.39-.29,2.06-.53.67-.23,1.3-.52,1.89-.87.59-.35,1.13-.75,1.62-1.21.49-.46.92-.97,1.27-1.54.36-.57.64-1.2.83-1.88.2-.68.3-1.4.3-2.18,0-.5-.04-.99-.13-1.48-.08-.49-.2-.95-.36-1.4ZM214.03,348.44c-.16,0-.32,0-.48,0-.16,0-.31-.01-.47-.02-.15,0-.29-.01-.42-.02-.23-.03-.47-.06-.7-.11-.23-.05-.44-.13-.63-.24-.18-.1-.34-.24-.46-.4-.12-.17-.17-.38-.17-.64s.05-.49.15-.75c.1-.26.23-.49.38-.69.15-.21.32-.39.5-.52.18-.13.35-.2.51-.2.17,0,.34.06.51.17.17.12.33.27.49.47.16.19.32.41.46.66.14.24.27.5.38.77.11.27.2.54.27.8.07.26.12.51.14.73h-.45ZM238.64,351.16c.15.27.23.61.23,1.01,0,.05,0,.11,0,.17-.04.64-.18,1.2-.44,1.69-.26.49-.59.92-.99,1.28-.41.36-.87.66-1.4.9-.52.24-1.07.44-1.64.58-.57.15-1.15.25-1.73.31-.58.06-1.14.09-1.67.09-1.07,0-2.05-.14-2.94-.43-.88-.29-1.63-.71-2.24-1.28-.61-.56-1.05-1.26-1.32-2.1-.18-.55-.27-1.15-.27-1.82,0-.35.02-.72.07-1.1.05-.4.12-.81.2-1.22s.18-.81.27-1.2c.1-.39.2-.76.3-1.1.1-.35.2-.65.28-.91.09-.26.16-.47.22-.64.06-.17.1-.26.11-.28l2.01.81c-.15.46-.28.89-.4,1.29-.12.39-.23.78-.33,1.17-.1.38-.19.77-.26,1.16-.07.38-.14.79-.19,1.22-.02.2-.04.4-.04.59,0,.43.08.86.25,1.29.17.43.46.81.87,1.14.41.33.91.58,1.5.75.58.16,1.22.25,1.92.25.81,0,1.56-.06,2.26-.19.7-.12,1.31-.29,1.82-.49.52-.21.93-.44,1.23-.7.31-.26.48-.52.52-.79,0-.05-.06-.11-.17-.16-.11-.05-.25-.1-.41-.15-.16-.04-.35-.09-.55-.14-.19-.04-.38-.09-.57-.14-.51-.13-.99-.27-1.42-.44-.44-.16-.82-.37-1.14-.63-.32-.26-.58-.59-.76-.99-.18-.4-.27-.91-.27-1.52.03-.67.17-1.32.42-1.95.25-.63.58-1.21,1-1.73.43-.52.92-.97,1.49-1.34.57-.37,1.18-.63,1.85-.78.27-.06.55-.1.84-.11.08,0,.16,0,.24,0,.2,0,.42.02.66.05.24.03.5.09.77.17.27.08.54.19.79.33l-.83,2.19c-.32-.14-.65-.23-.99-.28-.15-.02-.29-.03-.43-.03-.2,0-.4.02-.6.05-.21.02-.43.08-.67.18-.24.1-.47.24-.71.4-.23.16-.46.34-.68.56-.21.21-.4.43-.57.67-.16.23-.3.47-.4.72-.1.24-.15.48-.15.71,0,.26.06.47.18.62.13.15.3.27.5.37.21.09.46.17.73.23.27.05.56.12.86.2.36.09.73.18,1.1.29.37.11.71.26,1,.46.3.19.54.44.71.75ZM244.45,342.57l-1.74-1.75,1.74-1.74,1.75,1.74-1.75,1.75ZM246.91,348.45c.07.42.1.83.1,1.23,0,.55-.09,1.08-.26,1.6-.16.52-.4,1.02-.69,1.51-.29.49-.64.95-1.05,1.39-.4.44-.84.85-1.31,1.24-.48.39-.98.75-1.51,1.09-.53.34-1.07.64-1.61.9l-1.04-2.09c.43-.21.86-.45,1.28-.71.42-.26.82-.53,1.2-.82.38-.29.74-.6,1.06-.92.33-.32.61-.66.84-1,.24-.35.42-.7.56-1.07.13-.36.2-.73.2-1.1,0-.35-.04-.71-.12-1.1-.08-.38-.18-.76-.29-1.13-.11-.38-.23-.74-.35-1.09-.12-.35-.21-.66-.29-.92l2.29-.74c.12.38.25.79.37,1.21.13.41.25.83.36,1.26.11.43.2.85.27,1.28ZM256.05,352l1.75,1.74-1.75,1.75-1.74-1.75,1.74-1.74ZM259.14,345.68c.07.41.11.82.11,1.21,0,.68-.12,1.27-.35,1.76-.23.49-.55.89-.97,1.21-.41.31-.91.54-1.49.68-.57.15-1.2.23-1.89.23h-1.46c-1.24,0-2.17-.31-2.81-.93-.64-.62-.96-1.56-.97-2.81,0-.2,0-.51.02-.96.01-.45.02-1,.02-1.64,0-.38,0-.79-.01-1.23,0-.44-.01-.89-.03-1.35-.01-.46-.03-.92-.05-1.38-.02-.46-.04-.91-.07-1.33-.03-.43-.07-.83-.11-1.2-.04-.38-.09-.71-.15-.99l2.29-.68c.07.35.13.78.18,1.3.05.51.1,1.05.15,1.62.04.58.07,1.17.09,1.77.03.6.04,1.16.04,1.69,0,.32,0,.67,0,1.03,0,.36,0,.68,0,.95,0,.23,0,.45,0,.66,0,.2,0,.4,0,.58,0,.19,0,.38,0,.56v.7c0,.22.02.41.06.58.05.17.13.31.25.43.12.11.26.19.44.24.18.05.39.07.63.07h1.52c.29,0,.58-.02.88-.04.3-.04.58-.11.82-.21.24-.11.44-.27.59-.47.16-.2.24-.47.24-.8,0-.16-.03-.38-.1-.67-.07-.29-.16-.6-.26-.95-.11-.35-.24-.71-.39-1.08-.15-.37-.3-.72-.47-1.04l2.11-1.04c.15.35.3.72.46,1.1.15.39.29.79.4,1.21.12.41.22.82.29,1.23ZM275.74,346.3c.08.35.12.68.12.99s-.06.67-.17,1.1c-.11.43-.36.85-.76,1.26-.4.41-.9.72-1.51.94-.52.19-1.1.28-1.73.28-.1,0-.21,0-.32,0-.4,0-.81-.04-1.22-.12-.41-.07-.82-.18-1.22-.31-.4-.13-.78-.29-1.15-.46-.36-.18-.71-.36-1.02-.56l.97-2.24c.23.15.51.3.83.45.33.15.67.29,1.01.41.35.12.7.22,1.03.3.34.08.64.12.89.12.1,0,.23,0,.38-.01.15,0,.31-.02.48-.04.17-.02.34-.06.51-.1.17-.05.32-.11.46-.19.14-.09.25-.19.34-.31.09-.13.13-.28.14-.47v-.03c0-.24-.07-.52-.21-.82-.13-.31-.32-.63-.56-.97-.24-.34-.51-.68-.82-1.02-.31-.34-.63-.67-.97-.98-.34-.32-.67-.6-1.01-.87-.34-.27-.65-.49-.94-.68l1.36-2.02c.56.38,1.11.82,1.65,1.3.55.48,1.05.99,1.51,1.54.46.54.86,1.11,1.2,1.7.34.59.58,1.19.73,1.79ZM294.63,340.79l-1.74-1.75,1.74-1.74,1.75,1.74-1.75,1.75ZM297.46,344.45c-.12-.41-.25-.82-.4-1.21-.15-.39-.3-.76-.46-1.1l-2.11,1.04c.16.32.32.67.46,1.04.15.37.28.73.39,1.08s.2.66.27.95.1.51.1.67c0,.33-.08.6-.24.8-.15.2-.35.36-.59.47-.24.1-.52.17-.82.21-.3.03-.59.04-.88.04h-1.31c-.47,0-.82-.13-1.06-.39-.24-.27-.36-.63-.36-1.1,0-.66,0-1.41.03-2.26.03-.85.04-1.85.04-3,0-.52,0-1.03,0-1.53,0-.51,0-1-.03-1.46-.01-.47-.03-.91-.05-1.32-.03-.41-.06-.78-.1-1.11l-2.33.3c.04.3.06.64.08,1.01.03.37.04.77.05,1.19.01.42.02.86.02,1.32,0,.45,0,.91,0,1.38,0,.6,0,1.19,0,1.77,0,.58-.01,1.11-.02,1.6,0,.48-.02.9-.03,1.25,0,.35,0,.59,0,.73-.02.36-.08.65-.17.86s-.21.38-.36.5c-.15.12-.31.19-.5.23-.19.04-.39.05-.61.05h-.91c-.02-.46-.09-.9-.18-1.33-.09-.44-.21-.86-.37-1.26-.15-.4-.33-.78-.54-1.13-.21-.35-.44-.67-.69-.96-.78-.84-1.64-1.26-2.58-1.26-.36,0-.71.07-1.02.21-.32.14-.6.33-.87.58-.26.24-.49.51-.69.83-.2.31-.37.64-.51,1-.13.35-.24.7-.31,1.07s-.11.71-.11,1.05c0,.52.07.97.21,1.35.14.38.33.7.58.97.26.26.56.48.9.64.35.16.74.28,1.15.36.42.09.86.15,1.33.18.47.03.95.05,1.44.05-.11.41-.33.83-.67,1.24-.33.41-.76.8-1.29,1.17-.53.37-1.16.69-1.88.99-.72.3-1.52.54-2.42.71l.55,2.28c.91-.15,1.79-.4,2.64-.75.85-.35,1.61-.79,2.3-1.32.69-.53,1.29-1.16,1.78-1.89.49-.72.84-1.53,1.05-2.43h1.57c.17,0,.36-.01.58-.04.21-.02.43-.06.65-.12.22-.06.43-.14.64-.25.21-.11.41-.25.59-.42.13.11.29.22.46.32.18.1.37.19.58.27.21.08.43.14.66.17.21.04.42.05.64.06h0s.06,0,.06,0h1.39c.69,0,1.32-.08,1.89-.23.58-.15,1.07-.37,1.49-.68.41-.32.74-.72.97-1.21.23-.49.35-1.08.35-1.76,0-.4-.04-.8-.11-1.21-.07-.41-.17-.82-.29-1.23ZM282.98,348.44c-.16,0-.32,0-.48,0-.16,0-.31,0-.47,0-.15,0-.29-.01-.42-.03-.23-.02-.47-.05-.7-.1-.23-.05-.44-.13-.63-.24-.18-.1-.34-.24-.46-.41-.11-.17-.17-.38-.17-.64s.05-.49.15-.75c.1-.26.23-.49.38-.69.15-.21.32-.39.5-.52.18-.13.35-.2.51-.2.17,0,.34.06.51.17.17.12.34.27.49.47.16.19.32.41.46.66.14.24.27.5.37.77.11.27.2.54.27.8.07.26.12.51.14.73h-.45ZM302.51,342.68c.01.86.02,1.65,0,2.38,0,.73,0,1.41-.02,2.04-.01.63-.03,1.22-.05,1.76-.02.54-.05,1.05-.07,1.53l-2.39.36c.13-2.01.19-3.78.19-5.32,0-.62,0-1.2-.03-1.74-.05-1.25-.1-2.42-.17-3.52-.06-1.1-.14-2.15-.25-3.16l2.35-.77c.15,1.16.26,2.27.32,3.33.06,1.05.1,2.08.11,3.1ZM313.1,347.3c0,.3-.06.67-.17,1.1-.11.43-.36.85-.76,1.26-.4.41-.9.72-1.51.94-.52.19-1.1.28-1.72.28-.1,0-.21,0-.32,0-.4,0-.81-.04-1.22-.12-.41-.07-.82-.18-1.22-.31-.4-.13-.78-.29-1.15-.46-.37-.18-.71-.36-1.02-.56l.97-2.24c.23.15.51.3.83.45.33.15.67.29,1.01.41.35.12.7.22,1.03.3.34.08.64.12.89.12.1,0,.23,0,.38-.01.15,0,.31-.02.48-.04.17-.02.34-.06.51-.1.17-.05.32-.11.46-.19.14-.09.25-.19.34-.31.08-.13.13-.28.14-.47v-.03c0-.24-.07-.52-.21-.82-.13-.31-.32-.63-.56-.97-.24-.34-.51-.68-.82-1.02s-.63-.67-.97-.98c-.34-.32-.67-.6-1.01-.87-.34-.27-.65-.49-.94-.68l1.36-2.02c.56.38,1.11.82,1.65,1.3.55.48,1.05.99,1.51,1.54.46.54.86,1.11,1.2,1.7.34.59.58,1.19.73,1.79.08.35.12.68.12.99Z" fill="#4b7099"/></svg>