<?xml version="1.0" encoding="UTF-8"?><svg id="a" xmlns="http://www.w3.org/2000/svg" width="15.45cm" height="15.45cm" viewBox="0 0 438 438"><path d="M.34,208.07C5.2,129.66,71.55,88.64,125.54,50.77c40.39-28.33,84.8-31.46,130.27-21.91,50.76,10.67,103.8,23.81,133.61,77.35,36.52,65.58,67.45,156.29,34.8,225.12-31.63,66.65-108.15,43.4-168.34,56.31-52.67,11.29-105.18,45.26-151.97,12.39C47.82,360.62-4.71,289.57.34,208.07Z" fill="#c1ffbd" fill-rule="evenodd"/><path d="M229.93.34c78.41,4.86,119.43,71.22,157.3,125.21,28.33,40.39,31.46,84.8,21.91,130.27-10.67,50.76-23.81,103.8-77.35,133.61-65.59,36.52-156.3,67.45-225.12,34.8-66.65-31.63-43.4-108.15-56.31-168.34-11.3-52.67-45.26-105.18-12.39-151.97C77.38,47.82,148.43-4.71,229.93.34Z" fill="#e1ffde" fill-rule="evenodd"/><path d="M223.14,175.68c.12.04.22.13.27.24.06.11.08.24.05.36-.03.12-.1.23-.21.3-.1.07-.23.1-.35.09-7.43-1.75-13.61,2.98-16.69,9.83-.1.24-.44.01-.38-.19,2.05-7.61,10.01-12.48,17.32-10.63ZM224.8,177.34c.42.14.82.32,1.2.54.59.23,2.04-.83-1.2-1.51-.53-.14-.83.76,0,.97ZM252.83,197.52s-.04-.09-.08-.12c-.03-.03-.08-.06-.12-.07-.05-.01-.1-.01-.14,0-.05.01-.09.04-.12.07-.19.17-.1.49.1,1.21.26.94.7,2.57.95,5.43.06.67.07,1.09.07,1.47,0,.5.02.95.13,1.85.03.08.09.14.16.18.07.04.15.06.24.05.08,0,.16-.04.22-.1.06-.05.1-.13.12-.21.12-1.24.09-2.48-.11-3.71-.11-2.09-.58-4.14-1.4-6.06ZM266.58,208.42c.23-1.72.04-3.46-.56-5.09-.05-.2-.11-.39-.16-.59h0c-.46-1.72-.94-3.46-1.49-5.1-.01-.06-.04-.11-.09-.15-.05-.04-.11-.06-.17-.06s-.12.02-.17.06c-.05.04-.08.09-.09.15,0,.48.68,3.23.92,4.19.03.11.05.2.07.26.47,1.5.78,3.04.92,4.61.26,2.78-2.29,4.98-4.15,3.26-.43-.38-1.2.17-.8.66,1.81,2.4,5.35.67,5.78-2.21ZM305.04,209.41c-.09.02-.17.07-.22.14-3.69,4.32-7.63,6.26-12.73,8.77l-.54.27c-.16.08-.38.18-.62.28-1.2.52-3.08,1.35-2.73,2.58.01.05.03.1.06.14.03.04.07.08.11.1.04.03.09.04.14.05.05,0,.1,0,.15,0,.32-.07.6-.25.8-.5.6-.54,1.83-1.14,3.38-1.91,3.68-1.81,9.19-4.53,12.53-9.39.05-.08.07-.17.05-.26-.02-.09-.07-.17-.14-.22-.08-.05-.17-.07-.26-.05ZM287,221.81c-1.26-.16-1.86,1.56-.59,1.56,1.08,0,1.54-1.44.59-1.56ZM266.79,186.27c-.26.1-.2.34-.1.71.03.12.07.26.1.41.3,1.32,1.72.73.76-.84.02-.04.02-.09,0-.13l-.13-.13s-.09-.02-.13,0c-.07-.06-.15-.1-.24-.1-.09,0-.18.02-.25.08ZM187.45,257.26c.71.76,1.27,1.65,1.63,2.63s.54,2.01.5,3.05c-.03,1.04-.27,2.06-.7,3.01-.43.95-1.04,1.8-1.8,2.51-.76.71-1.65,1.27-2.63,1.63-.97.37-2.01.54-3.05.5-1.04-.03-2.06-.27-3.01-.7-.95-.43-1.8-1.04-2.51-1.8-.71-.76-1.27-1.65-1.63-2.62s-.54-2.01-.5-3.05c.03-1.04.27-2.06.7-3.01.43-.95,1.04-1.8,1.8-2.51.76-.71,1.65-1.27,2.62-1.63.97-.37,2.01-.54,3.05-.5,1.04.03,2.06.27,3.01.7.95.43,1.8,1.04,2.51,1.8ZM187.12,260.39c-.42-1.03-1.13-1.91-2.04-2.55-.91-.64-1.98-1.01-3.09-1.06-.98-.05-1.96.16-2.84.59-.88.43-1.64,1.08-2.21,1.89-.57.8-.92,1.74-1.03,2.72-.11.98.03,1.97.41,2.88.38.91.98,1.71,1.74,2.32.77.62,1.68,1.03,2.65,1.2.97.17,1.97.09,2.9-.22.93-.32,1.77-.86,2.43-1.59.75-.82,1.25-1.84,1.44-2.93.19-1.09.07-2.22-.36-3.25ZM185.52,172.92c.32.71.44,1.48.36,2.26-2,6.65-19.37,7.97-18.32.78.78-5.51,11.71-8.66,16.51-4.8.63.45,1.13,1.06,1.45,1.76ZM184.37,174.06c-.26-.69-.68-1.3-1.23-1.79-.55-.49-1.21-.83-1.92-1.01-7.06-1.84-13.43,3.16-12,6,.85,1.68,3.43,2.2,5.32,2.2,6.42,0,10.33-3.46,9.83-5.4ZM188.53,190.06c-8.27,2.23-16.38,4.41-25.23,4.48-3.47,0-4.7-1.12-5.47-4.39l-.18-.79c-1.53-6.47-4.12-17.46-1.95-23.21.43-.94,1.09-1.77,1.91-2.4-1.07-6.45-1.27-13.01-.6-19.51.55-4.24,2.22-9.96,7.09-13.2,2.1-1.34,4.52-2.08,7-2.15s4.94.54,7.11,1.75c4.68,2.48,6.48,6.12,8.12,11.21,1.84,5.08,2.92,10.39,3.22,15.78.77,0,1.54.14,2.27.38.46.23.88.56,1.2.96.33.4.57.87.71,1.37,1.22,4.58,2.02,9.27,2.4,13.99.23,2.71.31,5.43.26,8.15v.06c.02,1.8.05,4.08-1.37,5.27-.77.57-1.64.98-2.57,1.2-1.31.34-2.62.7-3.92,1.05ZM158,147.57c-.2,5.13.01,10.27.62,15.37.71-.41,2.13-.93,3.33-1.36.68-.24,1.29-.47,1.67-.63-.67-4.56-.67-9.19,0-13.75.55-3.85,1.27-7.51,3.9-9.98,1.21-1.14,2.78-1.81,4.43-1.89,1.66-.08,3.29.43,4.6,1.44,2.89,2.2,4.08,5.65,4.93,9.06.96,3.94,1.6,7.96,1.91,12,1.58-.11,3.12-.2,4.67-.2-.45-5.59-1.66-11.09-3.6-16.34-1.63-4.87-3.68-8.15-8.48-10.03-2.13-.88-4.47-1.13-6.74-.72-2.27.41-4.37,1.47-6.05,3.05-3.13,3.01-4.84,7.6-5.21,13.98v.02ZM167.26,139.86c-3.08,4.64-3.05,15.28-2.58,20.86,5.63-1.45,11.38-2.35,17.18-2.71-.3-4.05-.95-8.06-1.92-12-.74-3.14-1.81-6.59-4.8-8.4-2.75-1.66-5.92-.77-7.9,2.23v.02ZM165.12,192.95c8.24-.18,18.17-2.84,26.06-5.24.98-.18,1.91-.56,2.72-1.13.55-.67.83-1.53.77-2.4.34-7.81-.52-15.63-2.54-23.18-.07-.42-.27-.81-.56-1.11-.3-.31-.68-.52-1.09-.6-4.36-.02-8.71.24-13.03.77-1.08.13-11.35,1.49-16.48,3.31-2.76.98-4.15,2.51-4.51,4.58h.01c-.92,5.4.46,12.1,1.91,18.46.15.66.28,1.26.39,1.79,1,4.62,1.05,4.86,6.35,4.76ZM242.69,197.73c.61,0,.6-.97-.01-.91-2.56.23-5.27.46-7.09-1.38-.82-.97-1.38-2.13-1.64-3.37-.42-1.93-.52-3.18-.57-3.94-.06-.84-.08-1.07-.45-.93-.05.02-.09.05-.12.09-.03.04-.05.09-.06.14-.2,2.8.29,6.58,2.2,8.65,1.91,2.08,4.96,2.02,7.75,1.66ZM257.63,167.27s.1.06.16.07c1.21.02,2.42-.1,3.6-.36,1.28-.12,2.4-1.07,1.9-2.27-.61-1.17-1.91-2.7-3.16-4.16-.75-.88-1.48-1.74-2.03-2.48-.12-.19-.43-.14-.3.22.15.41.77,1.2,1.63,2.31.77.99,1.74,2.23,2.76,3.69.4.55.65.97.32,1.33-.48.37-1.07.57-1.67.56-.37,0-3.1.22-3.32.6-.03.05-.05.11-.05.17,0,.06,0,.12.04.17.03.05.07.1.11.14ZM253.27,161.38c.15-.13.25-.31.27-.51,0-.76.03-1.08.05-1.31.01-.13.02-.24.02-.38.04-.21.01-.43-.1-.61-.11-.18-.28-.32-.49-.38-.16-.04-.34-.02-.49.04-.16.06-.29.17-.38.31-.17.76-.24,1.54-.23,2.33.02.2.12.38.27.51s.34.21.54.21c.2,0,.39-.07.54-.2ZM262.71,158.52c-.16-.03-.32-.02-.47.04-.15.06-.28.16-.37.29-.09.13-.14.29-.14.45,0,.33-.04.66-.08.98-.03.23-.06.46-.07.7,0,.16.05.32.14.45.09.13.21.24.36.3.15.06.31.08.47.05.16-.03.3-.1.42-.21.22-.22.23-.37.26-.78.01-.19.03-.44.07-.78,0-.04,0-.07.02-.11,0-.03,0-.06.01-.09.07-.43.12-.76-.19-1.07-.11-.11-.26-.19-.41-.22ZM258.68,169.93c-.32,0-1.81-.42-4.52-1.2-.04-.01-.09-.03-.15-.04-.44-.13-1.25-.36-1.22.26-.46,2.58,1.06,3.86,3.6,3.98.35.02.7-.01,1.04-.11,1.1-.31.97-1.03.56-1.2-.28-.12-.46-.01-.62.09-.07.04-.14.09-.22.11-.8.24-2.78,0-3.38-1.04-.12-.45-.15-.91-.08-1.37,1.63.46,3.3.79,4.98,1,.04-.03.07-.06.09-.1.02-.04.03-.09.04-.13,0-.05,0-.09-.03-.13-.02-.04-.05-.08-.09-.1ZM261.55,157.24c.28,0,.51-.11.77-.23.36-.17.75-.35,1.35-.25.83.14,1.2-1.2.2-1.2-3.19-.25-3.29,1.68-2.32,1.68ZM251.76,156.88c.76-.17,1.56-.09,2.27.23.9.41,1.2-.72.44-1.04-.83-.44-1.79-.58-2.71-.38-1.08.32-1.08,1.34,0,1.2ZM194.11,242.61l.07.24c7.67,23.58,33.23,44.4,42,48-7.37-17.04-13.66-34.52-18.84-52.34-7.59,2.12-15.37,3.49-23.23,4.1ZM212.24,216.12c-5.82,4.12-16.32,19.74-18,24.07,7.6-.61,15.12-1.96,22.46-4.01-1.84-6.6-3.33-13.3-4.46-20.06ZM247.15,223.71c-4.8-3.31-27.07-9.35-32.64-8.63,1.12,6.88,2.62,13.69,4.51,20.4,9.77-2.9,19.21-6.84,28.13-11.77ZM219.66,237.84c5.28,18.17,11.73,35.98,19.31,53.33,5.41-4.68,15.5-48.25,9.6-65.52-9.16,5.11-18.85,9.2-28.91,12.19ZM316.87,192.05c.07.2.07.48.07.67.83.43,1.58.99,2.23,1.67.25.29.41.65.46,1.03s-.02.77-.19,1.11c2.1,1.99,1.82,3.68.78,4.39,1.91,2.23.73,4.26-.8,4.26.42,2.04.43,4.3-1.35,5.32-4.17,8.5-9.08,16.62-14.67,24.28-2.33,3.52-4.73,4.64-7.38,4.8-3.55,3.35-7.56,6.18-11.9,8.4-3.02,1.54-6.19,2.74-9.47,3.6h-.02c-1.81.52-4.47,1.28-6.06.26-.21,2.32-.73,4.6-1.55,6.78.7,4.76,1.07,8.86,1.42,12.74.6,6.64,1.14,12.64,3.2,20.21.1.34-.47.64-.66.26-1.92-4.64-2.4-9.46-3.21-17.42-.08-.74-.15-1.52-.23-2.32-.42-4.03-.84-8.17-1.08-12.29-1.78,3.25-4.51,5.87-7.82,7.54-3.82,15.1-13.98,33.26-17.15,34.3-7.86,2.6-27.91-10.72-42.19-30.35-17.07,2.08-29.37,3.6-38.28,4.69h-.01s0,0,0,0c-21.79,2.68-23.27,2.86-24.4,2.86-2.85-.94-5.38-2.65-7.31-4.94-1.13-1.13-1.83-2.63-1.98-4.22-.01-.13-14.02-183.29-14.02-183.53-.09-.78-.01-1.57.21-2.32.22-.75.59-1.45,1.09-2.05.5-.6,1.11-1.11,1.8-1.47.69-.37,1.45-.59,2.23-.66l83.46-6.35c3.2-.26,7.33,2.38,9.73,4.54.06.05.11.12.15.19.04.07.06.15.06.23.91.77,1.51,1.83,1.72,3,.04.13,6.76,90.62,6.85,92,3.67.31,7.09,1.97,9.6,4.67.9.09,1.8-.12,2.56-.61,1.34-1.3,2.34-2.91,2.9-4.68-.43-.2-.8-.36-1.11-.49-1.74-.76-1.81-.79-1.81-2.06,0-.6-.1-1.49-.28-2.87-.33-2.58-.88-6.86-1.24-14.17-.29-5.81-.19-11.81,4.28-15.79,2.59-2.29,5.76-3.8,9.17-4.36-.03-.12-.03-.18-.03-.29,0-.12,0-.31-.04-.73l-.02-.19c-.13-1.2-.23-2.03.52-2.83.13-.1.27-.18.43-.23.16-.05.32-.06.49-.04.16.02.32.07.46.16.14.08.27.2.36.33.51.96.85,2,1.01,3.07.01.05.04.1.06.15.04.09.08.18.08.29,7.39-.37,13.07,2.51,16.39,6.32,3.44,5.09,3.53,15.89,2.24,16.42.06,2.81.11,5.77,0,8.68.1,2.77-.22,5.54-.93,8.22-.6,2.03-1.9,3.79-3.68,4.94,5.87,2.3,8.15,9.42,8.27,15.5,0,.09-.02.18-.07.26,3.11,5.11,5.53,10.62,7.2,16.37.22.77.49,1.65.78,2.6,1.17,3.87,2.67,8.84,2.83,11.59.7-.46,1.44-.91,2.26-1.4.52-2.07,1.9-2.85,6.26-5.32,2.59-1.47,6.23-3.53,11.37-6.81,2.15-1.22,3.97-2.94,5.3-5.03-.17-.79-.3-1.59-.38-2.4-.55-2.69.52-4.27,2.57-5.74-.28-.9-.48-1.82-.61-2.76-2.44.55-7.67.05-7.54-2.47.12-2.23,4.13-3.68,6.53-4.5-.88-3.08-13.42-52.06-13.62-52.9-.47-1.27-.84-2.58-1.1-3.91-.35-1.54-.93-3.93-1.58-6.64h0c-1.72-7.1-3.97-16.39-4.05-18.43.07-1.28.31-2.54.71-3.76.8-3.72,1.89-7.36,3.26-10.91.04-.1.08-.19.11-.28.13-.34.22-.57.42-.52.05.02.09.04.13.08.03.04.06.09.07.14h.07c2.77,2.85,5.23,5.99,7.34,9.35.63.8,1.18,1.65,1.64,2.56.35.16,13.82,77.77,14.52,83.5,2.53-.29,6.86-.62,8.7,1.14.25.24.45.53.57.86.13.32.18.67.16,1.02-.36,2.3-5.04,3.55-7.2,3.74ZM291.48,91.32c.44,3.83.58,4.48,9.94,48.6h0c2.51,11.86,5.69,26.86,9.72,45.91.9-.19,1.78-.34,2.69-.39-.02-.13-14.3-82.16-14.3-82.3-.42-1.21-1.01-2.36-1.73-3.42-2.57-3.74-4.08-5.7-6.32-8.4ZM307.41,185.99c.03.19.07.41.14.78h0c.81-.3,1.63-.49,2.45-.67l.27-.06c-.36-1.61-18.04-85.74-18.24-86.81-.53-2.66-1.02-5.18-1.34-7.92-.05.19-.14.48-.25.84-.6,2-1.89,6.28-2.44,9.09-.13.65-.34,1.55-.53,2.34-.17.74-.33,1.39-.38,1.69q20.05,78.99,20.33,80.71ZM306.93,203.38c.12.65.26,1.33.3,2.09.11.29.28.54.52.73.23.2.51.33.81.38.3.06.61.03.9-.07.29-.1.55-.27.75-.5.42-1.15.5-2.4.23-3.6-.02-.06-.05-.12-.07-.18-.06-.14-.12-.29-.18-.44-.18-.43-.37-.89-.52-1.31-.03-.08-.01-.12-.03-.14-.01-.01-.04-.01-.14-.01-.41-.11-.79-.34-1.08-.66-.29-.32-.48-.71-.55-1.13h-.06c-1.49,1.66-1.21,3.11-.88,4.84ZM310.42,199.59h.02s.01,0,.02,0c1.69-.95,2.36-1.97,2.11-3.17-.06-.32-.24-.82-.55-.71-.32.17-.63.38-.91.61h-.02c-.41.23-2.24,1.34-2.59,1.67-.07,1.71,1.64,1.61,1.93,1.6ZM268.97,192.82l-4.42-3.04c1.32,2.42,2.03,5.14,2.06,7.9.05.22.12.43.19.64,4.28,13.5,3.26,29.92,2.38,44.17h0c-.11,1.71-.21,3.39-.3,5.03,3.98.08,7.91-.91,11.39-2.86,3.36-1.94,6.48-4.28,9.29-6.97-2.98-2.27-5.02-5.55-5.74-9.23-.37-1.66-.62-3.35-.73-5.05-1.45.89-2.11,1.34-2.44,1.56-.24.16-.3.21-.38.22-.03,0-.05,0-.09,0-.1,0-.2-.05-.28-.11-.08-.06-.15-.14-.19-.24-.04-.1-.05-.2-.04-.3.02-.1.06-.2.12-.28v-.04c.56-.49-1.46-7.94-1.6-8.4-1.92-7.42-4.92-16.61-9.24-23.02ZM261.65,213.23c3.29.77,5.91-2.74,6.36-6.03-.61-4.08-1.68-8.08-3.17-11.93-.2-.5.49-.79.79-.4-.41-2.27-1.32-4.41-2.68-6.28l-7.31-5.05c1.08,2.81,1.38,5.86.85,8.82-.09.69-.43,1.32-.95,1.77-.52.46-1.19.71-1.88.71-1.45-.02-2.88-.38-4.16-1.04,2.17,6.48,2.85,13.38,1.98,20.16,1.36-.16,2.05-.84,2.73-1.52.36-.36.73-.72,1.18-.99.42-.21.89-.3,1.36-.27.47.04.92.2,1.3.47,1.14.65,2.34,1.18,3.59,1.57-.02,0-.03,0-.05,0h.06s0,0,0,0ZM261.38,177.55c-.19.11-.34.19-.43.24-.11.06-.17.09-.17.11,0,.02.05.03.13.06.24.08.79.25,1.59.91,1.87,1.35,3.39,3.12,4.43,5.18.48.89.17,1.31-.17,1.31-.38,0-.5-.25-.79-.81-.16-.32-.37-.73-.7-1.25-1.37-2.05-3.18-3.77-5.3-5.03-1.49.64-3.07,1.02-4.69,1.13-.16.37-.34.72-.52,1.06-.1.2-.21.41-.31.61.03.06.02.08.02.11,0,0,0,.01,0,.02-.01.16.25.35,8.92,6.4,1.61,1.13,3.52,2.45,5.76,4.02-.21-5.88-2.57-11.49-7.76-14.07ZM246.58,154.17c.49.75,1.11,1.41,1.84,1.93.05-.81.17-1.61.36-2.4l.08-.02c-.77.1-1.53.26-2.28.49ZM242.96,158.99c.29.83.74,1.6,1.33,2.25.59.66,1.3,1.19,2.09,1.57v-.8c-.16-1.97-.2-3.06-.23-3.9-.04-1.13-.06-1.83-.36-3.62-1.25.62-3.38,2.08-2.84,4.51ZM236.27,173.53c.47,1.61,1.29,3.09,2.42,4.34,1.12,1.25,2.51,2.22,4.06,2.86,4.79,2.28,8.24,2.47,10.31.6.34-.96.74-1.89,1.2-2.8.05-.08.12-.15.2-.2.08-.05.17-.07.27-.08,3.03-.12,5.89-1.41,7.98-3.6,2.15-2.3,2.28-5.52,2.4-8.63.18-4.73.18-8.66.07-11.71-1.84-1.57-4.04-.36-5.92,1.2-.01-2.06-.05-6.37-.16-9.54-.11-3.17-.38-10.6-8.69-11.48-.14,0-.27.06-.37.15-.12.11-.2.26-.21.43-.01.16.04.33.15.45.11.12.26.2.43.21,6.41.73,7.43,5.36,7.61,10.33.16,3.24.16,7.78.16,9.72-2.54-1.57-5.5-2.32-8.48-2.15-.28,1.03-.42,2.09-.41,3.16-.07,1.01-1.69-.11-2.4-.84.09,1.35.1,2.04.12,2.66.02.82.03,1.51.21,3.42,0,.1.02.21.04.33.03.24.07.51.07.79.08.03.16.05.23.07.22.07.37.11.46.21.18.18.17.55.15,1.61-.02,1.38-.07,3.94.25,8.82,0,.07-.01.15-.04.22-.03.07-.07.13-.12.18-.05.05-.12.1-.18.12-.07.03-.14.04-.22.04-3.86.46-7.77-.03-11.4-1.42l-.18.52ZM230.1,179.74c2.99,2.26,4.68,5.48,6,9.22.3,1.46.83,2.86,1.58,4.14,2.19,2.67,6.46,1.08,9.69-.11l.15-.06c.31-.16.66-.26,1.01-.27.35-.01.7.05,1.02.2,1.37.58,4.26,1.66,5.3.58.51-.7.79-1.54.8-2.4.1-2.68-.38-5.35-1.42-7.82-.08-.25-.14-.42-.18-.55-.08-.24-.1-.31-.14-.35-.02-.03-.05-.05-.1-.09-.54,1.46-.75,3.01-.62,4.56,0,.04,0,.07-.03.1-.02.03-.05.05-.08.07-.03.08-.09.16-.17.2-.08.04-.17.06-.26.04-.09-.02-.17-.06-.23-.13-.06-.07-.09-.16-.09-.25-.16-1.23-.12-2.48.11-3.71-2.94,1.45-6.86.13-9.82-1.27-1.81-.86-5.75-3.16-6.82-7.13-.14.29-.31.57-.52.82-.71,1.37-1.85,2.48-3.24,3.16-.79.22-1.15.22-1.33.23-.09,0-.14,0-.18.02-.05.03-.08.09-.16.24-.06.12-.15.3-.3.57ZM229.61,180.27c-2.38,3.49-5.77,6.16-9.72,7.66-.05.02-.08.03-.12.04-.06.02-.09.03-.1.05-.02.03,0,.09.07.23.14.32.48,1.07.93,2.97.59,2.64.99,5.33,1.2,8.03h.02c.29,1.63.31,3.29.04,4.92,8.71,2.07,17.26,4.79,25.57,8.12.77-.26,1.2-1.18,1.2-2.66,0-3.94-.31-7.87-.94-11.76-.12-.23.53-.4.53,0,.73,3.21,1.18,6.48,1.33,9.77.25,1.44.16,4.28-.95,5.21l2.08.92c.55-6.78-.15-13.61-2.08-20.14-.46-.04-1.21.24-2.16.58-2.35.86-5.87,2.15-8.85.08-.97-.91-1.63-2.11-1.86-3.42-1.18-4.01-2.87-8.08-6.2-10.6ZM184.95,235.01v-.02c-2.68-5.08-.99-10.22,1.35-17.31.43-1.32.89-2.71,1.35-4.18,2.9-9.49,8.22-18.07,15.43-24.9.27-3.45,1.59-6.72,3.79-9.39,2.2-2.66,5.17-4.59,8.5-5.5-.29-4.08-6.54-85.88-6.7-87.8-.3.01-.38,0-.44,0h-.01c-.31-.02-.63,0-26.79,2.09-12.09.96-29.69,2.37-55.35,4.41.52,6.18,11.93,155.69,12.6,164.58,3.2-.44,41.99-5.08,48.54-5.86-1.41-2.92-2.63-5.93-3.66-9-.93-2.86.13-4.8,1.4-7.12ZM186.18,232.82c.59-.98,1.22-2.05,1.97-3.19.03-3.09.55-6.15,1.54-9.07,3.5-11.04,9-21.34,16.22-30.4-.89-.04-2.1-.13-2.95-.23-7.96,7.88-11.76,15.8-14.72,24.68l-.05.17c-.94,2.85-1.92,5.8-2.7,8.82-.91,3.37-1.5,6.96,0,10.36h.02c.22-.37.45-.75.68-1.14ZM189.05,228.23c3.96-5.98,16.76-23.52,23.33-25.03,1.56-.36,4.67,0,8.6.84.22-1.94.18-3.89-.11-5.82-.18-3.38-.84-6.72-1.97-9.91-3.97,1.36-8.15,2-12.35,1.88-5.45,7.12-9.95,14.91-13.39,23.18h.02c-1.92,4.69-3.79,9.66-4.14,14.86ZM219.97,174.24c-3.59-.17-7.12.94-9.96,3.14-1.74,1.42-3.17,3.18-4.2,5.17-1.03,1.99-1.65,4.18-1.8,6.42,6.07.49,19.58.23,25.58-10.57v-.07c-2.62-2.47-6.03-3.92-9.62-4.09ZM198.67,270.43c-4.16-5.79-7.84-11.92-11-18.31-16.57,1.98-27.6,3.31-34.93,4.18-14.56,1.74-14.59,1.75-14.62,1.74h0s-.07.04-.1.08c-.02.03-.05.06-.07.07-.26,0-.56-3.95-4.29-53.01-1.87-24.63-4.61-60.63-8.65-113.21.01-.13.06-.53.68-.53.13-.02,83.35-6.66,83.47-6.66.07,0,.14.01.2.03.06.02.12.06.17.11.05.05.09.1.11.16s.04.13.04.2c.01.22,1.89,24.88,3.65,48.15,1.43,18.86,2.79,36.8,3.04,40.08,1.09-.21,2.19-.31,3.3-.29l-6.79-91.79c-.16-1-.68-1.91-1.46-2.54-.16.03-.38-.05-.68-.16-.64-.23-1.65-.59-3.19-.32-23.94,1.86-40.61,3.16-52.24,4.06-26.32,2.05-26.84,2.09-27.35,2.1-.01,0-.02,0-.03,0-.05,0-.11,0-.21,0h-.12c-2.44.11-5.17.23-6.42,2.51-.05.09-.09.15-.14.2-.01.02-.02.03-.04.05-.5.66-.41,1.76,3.14,47.78,2.1,27.12,5.4,69.85,10.49,137.28h0c.15,2.05.3,3.99,2.32,5.18.09.06.17.14.23.24.03,0,.05,0,.07.01h0c.18.04.38.02,23.31-2.77,8.87-1.08,21.13-2.58,38.11-4.64ZM254.14,220.99c-.15-.25-.38-.44-.65-.53-.27-.09-.57-.08-.84.03-1.1.68-2.21,1.33-3.32,1.98-3.58-3.56-28.24-10.62-35.21-9.74-.2-1.52-.35-2.99-.46-4.37-.02-.32-.17-.61-.41-.82-.24-.21-.55-.31-.87-.29-.32.02-.61.17-.82.41-.21.24-.31.55-.29.87.12,1.57.29,3.25.53,5.02-6.95,3.96-19.38,23.03-20.15,26.82-.08,0-.16,0-.25.01-.08,0-.15,0-.23.01-.95.05-1.89.11-2.82.11-.32,0-.62.13-.85.35-.23.22-.35.53-.35.85s.13.62.35.85c.22.23.53.35.85.35.46-.01.92-.03,1.38-.06h0c.61-.03,1.23-.06,1.84-.06.06.28.13.56.22.83,8.02,24.65,35.92,48.13,45.52,50.04.67,1.56,1.37,3.13,2.06,4.69.06.14.16.27.27.38.11.11.25.19.4.25.15.06.3.08.46.08.16,0,.31-.04.46-.1.15-.06.27-.16.38-.27.11-.11.19-.25.25-.4.06-.15.08-.3.08-.46,0-.16-.04-.31-.1-.46l-1.74-3.94c6.79-3.78,17.4-52.87,10.8-68.96,1.09-.64,2.17-1.27,3.25-1.93h-.04c.23-.18.38-.43.44-.72.05-.29,0-.58-.14-.83ZM259.25,220.03c1.24,4.06,1.94,8.27,2.09,12.52,1.61-.2,3.12-.91,4.31-2.02,1.36-1.32,2.35-2.98,2.87-4.8.47-.92.63-1.97.46-2.99.01-4.49-.25-8.97-.79-13.43-.43,1.38-1.21,2.62-2.27,3.6-2.73,2.56-5.77,1.02-7.81-.01h0c-.3-.15-.58-.29-.83-.41-.33-.21-.72-.28-1.1-.22-.38.07-.72.28-.95.59-.68.78-1.52,1.4-2.46,1.81l.08-.02c.18.08.36.16.54.25,2.84,1.29,4.96,2.26,5.87,5.13ZM267.43,253.86c-1.82,2.73-4.4,4.87-7.42,6.16h.02c-.27,2.11-.65,4.21-1.14,6.29,2.32-1.24,4.3-3.01,5.79-5.18,1.49-2.17,2.43-4.66,2.74-7.27ZM268.4,242.19h-.06c-.53,1.6-1.46,3.05-2.69,4.21-1.23,1.16-2.73,2-4.37,2.44-.25,3.44-.6,6.88-1.04,10.15.47-.2.93-.42,1.37-.67,2.46-1.45,4.55-3.46,6.1-5.87.02-.12.7-10.13.7-10.26ZM268.62,239.1c.24-4.12.43-8.28.5-12.42-1.38,4.12-4.67,6.59-7.55,6.8h-.1c.24,4.75.22,9.52-.06,14.28,3.97-.94,6.43-4.9,7.2-8.66ZM294.43,239.62c-1.46-.2-2.86-.69-4.13-1.44-1.13,1.14-3.91,3.36-4.73,4-5,3.85-10.4,6.38-16.71,5.86v-.04c-.04.55-.05.82-.06,1.1-.01.31-.03.62-.07,1.31.69,1.28,2.72.81,4.06.5h.02c1.74-.39,3.45-.86,5.14-1.42,6.11-2.12,11.73-5.48,16.49-9.86ZM315.68,213.4h-.11c-1.11.45-2.31.6-3.5.45-1.18-.15-2.31-.61-3.27-1.32-.96-.71-1.72-1.66-2.2-2.76-.48-1.09-.68-2.29-.56-3.48h-.1c-1.82,2.57-3.46,3.58-12.42,9.11-1.29.79-2.73,1.68-4.34,2.68-1.44.74-2.8,1.62-4.07,2.64-1.1,1.08-.95,2.6-.79,4.08.14,1.41.4,2.82.77,4.19,1.21,4.49,4.73,9.73,10.73,9.73,2.3,0,4.54-.96,6.66-4.03,4.96-6.74,9.38-13.86,13.2-21.3ZM316.87,211.08c-1,.25-2.03.4-3.06.46-.47,0-.94-.11-1.37-.32-.43-.21-.8-.51-1.1-.88-.56-1.05-.93-2.2-1.09-3.38-.27.18-.58.31-.9.37-.32.06-.65.06-.97-.02-.32-.07-.62-.21-.89-.4-.27-.19-.49-.44-.66-.72-.07-.09-.14-.19-.2-.29-.11,1.08.06,2.18.5,3.18.44,1,1.12,1.87,1.99,2.53s1.89,1.08,2.98,1.23c1.08.15,2.18.02,3.2-.39h-.1c.69-.28,1.27-.76,1.68-1.37ZM318.84,202.91c.27-.18.47-.44.59-.74.11-.31.13-.64.04-.96-1.05-1.1-2.42-1.85-3.91-2.12-.47-.12-.97-.06-1.4.16-.35.31.11.9.44,1.2,1.3,1.01,2.72,1.84,4.25,2.46ZM320.11,202c-.05.52-.28,1-.66,1.36.03.06.05.13.05.2,0,.07,0,.14-.04.2s-.07.12-.12.17c-.05.05-.11.09-.18.11h-.07c.11.21.21.43.29.66.96-.02,1.72-1.14.72-2.7ZM314.88,195.59c-.37-.04-.6-.05-.78.36-.27.68.94,1.42,1.86,1.99.25.15.47.29.65.41,1.23.45,2.34,1.19,3.23,2.15.22-.13.4-.33.5-.58.11-.26.12-.54.04-.8-.41-1.45-2.57-3.3-5.5-3.53ZM314.04,193.11c-.19.51.5.99.99,1.34h.02c.23.16.24.21.27.22,0,0,.01,0,.03,0,.01,0,.03,0,.05,0,1.29.19,2.52.69,3.57,1.46.03-.49-.1-.83-.95-1.47-.85-.65-3.65-2.38-3.97-1.56ZM316.88,190.6c-.04-2.27-3.31-2.81-5.51-2.27-5.36,1.32-4.42,4.54-3.89,4.54.12,0,.24-.12.24-.26-.52-2.02,1.69-3.07,3.74-3.53,1.68-.37,4.33-.24,4.74,1.61l.08.02s.09.08.15.1.12.03.18.01c.06-.01.11-.04.16-.08.05-.04.08-.09.1-.14Z" fill="#00450d" fill-rule="evenodd"/><path d="M189.49,346.55c.01.13.02.27.02.41,0,.32-.04.66-.11,1.04-.07.37-.2.76-.36,1.16-.16.4-.36.76-.6,1.11-.23.34-.48.64-.74.89-.44.42-.94.76-1.5,1.02-.55.26-1.14.46-1.76.59-.62.13-1.25.19-1.9.2h-.23c-.57,0-1.14-.04-1.69-.12l.4-2.33c.32.04.59.07.83.09.24.02.47.04.68.05.1,0,.21,0,.31,0s.23,0,.38,0c.15-.01.33-.04.57-.07-.04-.52-.14-1.06-.3-1.61-.15-.55-.34-1.09-.57-1.62-.22-.53-.48-1.06-.76-1.57-.27-.51-.55-.99-.84-1.45-.28-.46-.55-.88-.82-1.26-.26-.38-.5-.71-.71-.99-.21-.28-.38-.5-.51-.66-.13-.16-.19-.25-.2-.26l1.72-1.75c.76,1,1.42,2.01,2,3.03.58,1.02,1.07,1.98,1.48,2.9.41.92.74,1.75.99,2.5.26.74.44,1.34.55,1.79.21-.1.43-.25.66-.45.22-.21.42-.45.59-.74.17-.29.3-.62.38-.99.04-.19.06-.38.06-.58,0-.18-.02-.38-.05-.58l-1.4-7.94,2.27-.55,1.18,8.74ZM196.76,355.24l1.74,1.75,1.75-1.75-1.75-1.74-1.74,1.74ZM201.29,345.95c-.12-.41-.25-.82-.4-1.21-.15-.39-.3-.76-.46-1.1l-2.11,1.04c.16.32.32.67.47,1.04.15.37.28.73.39,1.08.11.35.2.66.26.95s.1.51.1.67c0,.33-.08.6-.24.8-.15.2-.35.36-.59.47-.24.1-.52.17-.82.21-.3.03-.59.04-.88.04h-1.52c-.24,0-.45-.02-.63-.07-.18-.05-.32-.13-.44-.24-.12-.12-.2-.26-.25-.43-.04-.17-.06-.37-.06-.58v-.7c0-.18,0-.37,0-.56,0-.19,0-.38,0-.58,0-.21,0-.43,0-.66,0-.27,0-.59,0-.95,0-.37,0-.71,0-1.03,0-.53-.01-1.09-.04-1.69-.02-.6-.05-1.19-.09-1.77-.04-.58-.09-1.12-.15-1.62-.05-.51-.12-.94-.18-1.3l-2.29.68c.05.29.1.62.15.99.04.37.08.77.11,1.2.03.43.05.87.07,1.33.03.46.04.92.05,1.38.01.46.02.91.03,1.35,0,.44,0,.85,0,1.23,0,.65,0,1.19-.02,1.64-.01.45-.02.76-.02.96,0,1.25.33,2.19.97,2.81.64.62,1.58.93,2.81.93h1.45c.69,0,1.32-.08,1.89-.23.58-.15,1.08-.37,1.49-.68.41-.32.74-.72.97-1.21.23-.49.35-1.08.35-1.76,0-.4-.04-.8-.11-1.21-.07-.41-.17-.82-.29-1.23ZM218.59,343l-1.57-1.57-1.55,1.56,1.57,1.56,1.55-1.55ZM222.04,343.01l-1.57-1.56-1.55,1.55,1.57,1.57,1.55-1.56ZM233.3,354.98l1.57,1.57,1.55-1.56-1.57-1.56-1.55,1.55ZM229.85,354.97l1.57,1.56,1.55-1.55-1.57-1.57-1.55,1.56ZM242,342.08l-1.75-1.74-1.74,1.74,1.74,1.75,1.75-1.75ZM253.87,347.49c.07.34.1.68.1,1.01,0,.31-.03.61-.08.9-.05.29-.12.58-.23.85-.12.29-.27.56-.46.79-.18.24-.39.44-.63.61-.24.16-.49.29-.77.38-.27.09-.56.14-.86.14-.26,0-.53-.03-.81-.1-.28-.06-.57-.15-.86-.26-.13-.05-.27-.12-.43-.19-.16-.08-.32-.16-.48-.26-.16-.09-.33-.19-.49-.28-.16-.1-.31-.2-.45-.3-.48.47-1,.84-1.55,1.1-.5.23-1.08.35-1.72.37v.02h-.36v-.02c-.51-.02-.96-.1-1.34-.27-.41-.19-.76-.43-1.05-.73-.42.35-.93.6-1.53.77-.59.16-1.31.24-2.15.25h0s-.03,0-.03,0h-.34v-.02c-.5-.02-.95-.1-1.31-.27-.41-.19-.76-.43-1.04-.73-.2.26-.5.45-.89.59-.39.13-.83.23-1.31.29-.48.07-.98.1-1.49.11-.49.01-.95.02-1.37.02h0s-.03,0-.03,0h-.34c-.5,0-.95-.04-1.36-.13-.41-.09-.78-.22-1.11-.4-.33-.19-.63-.43-.89-.71-.26-.29-.49-.64-.69-1.05-1.67,1.55-4.18,2.32-7.52,2.32-1.91-.01-3.48-.25-4.73-.7-1.24-.46-2.16-1.17-2.75-2.13-.26-.46-.43-.93-.53-1.43-.07-.36-.11-.72-.11-1.08,0-.14.01-.37.03-.68.02-.32.11-.71.26-1.19.15-.48.35-.93.6-1.36l1.76,1.1c-.18.29-.32.58-.44.88-.12.29-.19.58-.22.88-.01.11-.02.22-.02.33,0,.18.02.39.06.63.05.24.16.5.35.79.17.29.43.53.78.73s.77.36,1.26.49c.5.13,1.06.22,1.68.28.62.06,1.29.09,2.01.09.65,0,1.27-.02,1.85-.07.58-.05,1.13-.12,1.62-.23.51-.11.96-.25,1.37-.41.41-.17.76-.38,1.05-.62.27-.21.48-.45.65-.72.16-.27.3-.56.41-.86.11-.3.2-.61.27-.93.07-.32.15-.62.24-.91l2.1.57c-.12.32-.21.65-.27.99-.06.31-.09.6-.09.89v.3c0,.17.04.38.13.66.09.27.22.51.41.71.19.2.43.36.74.48.31.11.69.17,1.13.17h.3c.71,0,1.31-.04,1.8-.12.49-.09.88-.21,1.18-.37.3-.16.52-.36.66-.59.13-.24.2-.52.2-.84,0-.21-.04-.48-.12-.82-.08-.35-.2-.79-.36-1.33l2.25-.63c.08.27.14.51.18.71.05.2.09.41.11.61.03.2.05.42.07.66.03.23.05.51.07.83.02.2.06.41.14.63.07.22.17.42.3.61.13.18.29.34.48.47.19.12.41.18.66.18h.15c.93,0,1.63-.16,2.1-.47.48-.32.71-.8.71-1.44,0-.21-.04-.49-.13-.85-.09-.37-.21-.82-.36-1.36l2.25-.63c.08.27.14.51.18.72.05.21.09.42.12.63.04.21.06.43.08.67.03.24.05.52.07.84.02.2.05.41.08.63.04.22.11.42.2.61.09.18.21.34.36.47.16.12.36.18.61.18h0c.44,0,.83-.08,1.16-.25.33-.17.62-.39.87-.66.26-.27.48-.57.67-.9.2-.33.38-.67.55-1,.17-.35.36-.7.56-1.05s.43-.66.68-.93c.26-.28.55-.51.88-.68.33-.18.71-.27,1.14-.27.39,0,.74.06,1.07.18.33.12.62.28.88.49.26.21.49.45.68.73.2.27.36.57.48.9.13.32.22.65.28.99ZM252.2,348.61c0-.27-.05-.55-.15-.82-.09-.28-.22-.53-.38-.74-.16-.21-.36-.38-.58-.49-.15-.07-.32-.11-.49-.11-.08,0-.17.01-.26.03-.09.02-.17.07-.26.15-.08.07-.18.2-.29.38-.12.18-.25.42-.41.72-.16.3-.35.68-.58,1.14.16.11.37.23.61.36.25.13.51.26.78.36.27.11.53.19.79.25.15.04.28.05.4.05.1,0,.18-.01.26-.04.06-.01.12-.05.19-.11.07-.07.14-.16.19-.26.06-.11.11-.24.15-.38.02-.12.04-.26.04-.4v-.09ZM258.62,344.17c-.01-1.01-.05-2.04-.11-3.1-.06-1.06-.17-2.17-.32-3.33l-2.35.77c.1,1,.19,2.06.25,3.16.06,1.1.12,2.27.17,3.52.02.54.03,1.12.03,1.74,0,1.54-.06,3.32-.19,5.32l2.39-.36c.02-.48.05-.98.07-1.53.02-.55.04-1.14.05-1.76.01-.63.02-1.32.02-2.04,0-.73,0-1.53,0-2.38Z" fill="#41844e"/></svg>