<svg width="48" height="49" viewBox="0 0 48 49" fill="none" xmlns="http://www.w3.org/2000/svg">
<circle cx="22" cy="12.334" r="8" fill="#4DA2FF"/>
<path fill-rule="evenodd" clip-rule="evenodd" d="M29.0251 43.3089C30.0503 44.334 31.7002 44.334 35 44.334C38.2998 44.334 39.9497 44.334 40.9749 43.3089C42 42.2837 42 40.6338 42 37.334C42 34.0342 42 32.3842 40.9749 31.3591C39.9497 30.334 38.2998 30.334 35 30.334C31.7002 30.334 30.0503 30.334 29.0251 31.3591C28 32.3842 28 34.0342 28 37.334C28 40.6338 28 42.2837 29.0251 43.3089ZM33.0531 40.2869C31.6491 39.2815 30 38.1006 30 36.0535C30 33.7937 32.7501 32.1911 35 34.3636C37.2499 32.1911 40 33.7937 40 36.0535C40 38.1006 38.3509 39.2815 36.9469 40.2869C36.8009 40.3914 36.6576 40.494 36.5191 40.5955C36 40.9759 35.5 41.334 35 41.334C34.5 41.334 34 40.9759 33.4809 40.5955C33.3424 40.494 33.1991 40.3914 33.0531 40.2869Z" fill="#4DA2FF"/>
<path opacity="0.5" d="M29.1884 43.459C29.1322 43.4116 29.0779 43.3616 29.0251 43.3089C28 42.2837 28 40.6338 28 37.334C28 34.0342 28 32.3842 29.0251 31.3591C30.0503 30.334 31.7002 30.334 35 30.334C35.3002 30.334 35.5867 30.334 35.8603 30.3348C33.094 27.6442 27.9228 25.834 22 25.834C13.1634 25.834 6 29.8634 6 34.834C6 39.8045 6 43.834 22 43.834C24.8851 43.834 27.25 43.703 29.1884 43.459Z" fill="#4DA2FF"/>
</svg>
