<svg width="250" height="250" viewBox="0 0 250 250" fill="none" xmlns="http://www.w3.org/2000/svg">
<path fill-rule="evenodd" clip-rule="evenodd" d="M243.75 38.875C243.75 37.5625 243.65 23.9749 242.887 22.3999C247.375 19.2874 99.1375 13.2499 94.4375 18.6499C90.875 22.7124 88.0625 117.75 91.075 137.55C87.8852 138.514 84.7654 139.696 81.7375 141.087C68.825 147.037 54.1 174.175 48.2125 187.125C48.1649 187.227 48.1565 187.344 48.1887 187.452C48.2209 187.56 48.2917 187.653 48.3875 187.712L51.5875 189.775C50.3375 191.75 49.2875 193.087 48.875 192.937C41.9375 190.6 26.8625 185.2 19.05 185.712C18.325 185.712 17.125 181.537 16.425 180.312C15.725 179.087 15.0125 179.175 14.4625 179.75C13.5375 180.712 14.2375 183.362 14.275 184.412C12.825 184.287 9.18752 183.162 8.02502 183.512C7.88489 183.556 7.75714 183.632 7.65233 183.735C7.54752 183.838 7.46865 183.964 7.42224 184.103C7.37583 184.242 7.36322 184.391 7.38544 184.536C7.40765 184.681 7.46407 184.818 7.55002 184.937C7.87029 185.42 8.29815 185.823 8.80002 186.112C8.25421 186.016 7.69583 186.016 7.15002 186.112C6.99348 186.132 6.84412 186.19 6.71478 186.28C6.58544 186.371 6.47997 186.491 6.40743 186.631C6.3349 186.772 6.29747 186.927 6.29836 187.085C6.29924 187.243 6.33842 187.398 6.41252 187.537C6.80207 188.162 7.35548 188.668 8.01252 189C7.80793 188.989 7.60347 189.024 7.41492 189.105C7.22636 189.185 7.05875 189.307 6.92502 189.462C5.11252 192.05 13.8125 193.712 14.7625 194.362C15.7125 195.012 41.1375 215 50.6625 217.787C62.5125 221.275 65.8875 215.6 74.125 207.912L75.1625 206.85C75.075 209.787 74.05 220.225 73.625 226.5C73.3 231.325 73.325 232.05 74.025 232.137C75.825 232.362 133.025 233.387 146.238 233.462C148.563 233.462 148.738 233.462 148.863 233.187C149.6 231.725 148.188 209.162 148.188 206.937L148.325 206.837C160.4 219.862 164.65 223.625 175.375 220.462C184.95 217.625 210.3 197.612 211.313 196.925C212.325 196.237 220.988 194.637 219.163 192.037C219.029 191.881 218.862 191.756 218.674 191.674C218.485 191.592 218.28 191.554 218.075 191.562C218.732 191.23 219.285 190.725 219.675 190.1C219.746 189.961 219.784 189.807 219.783 189.651C219.783 189.495 219.745 189.341 219.672 189.203C219.6 189.064 219.496 188.945 219.368 188.855C219.24 188.766 219.092 188.708 218.938 188.687C218.388 188.612 217.83 188.633 217.288 188.75C217.76 188.448 218.161 188.047 218.463 187.575C218.775 186.987 218.65 186.325 218 186.15C216.75 185.837 213 186.987 211.75 187.05C211.75 186.012 212.488 183.3 211.562 182.387C211.409 182.192 211.187 182.061 210.942 182.022C210.696 181.982 210.445 182.037 210.238 182.175C209.263 182.825 208.713 185.362 207.838 187.175C207.7 187.437 207.275 188.3 206.975 188.287C199.163 187.775 184.15 193.137 177.15 195.512C176.525 195.725 174.012 191.762 173.662 191.162C174.252 190.829 174.805 190.435 175.312 189.987C175.45 189.7 175.038 188.987 174.675 188.312C171.788 183.025 158.275 161.425 154.763 157.2C150.172 151.896 144.767 147.356 138.75 143.75C180.175 145 235 145.387 239.85 143.075C239.992 143.023 240.119 142.936 240.22 142.823C240.32 142.709 240.391 142.573 240.425 142.425C241.15 137.425 244.175 72.175 243.6 39L243.75 38.875ZM95.3875 19.1374C103.2 15.4624 235.25 19.9124 241.887 22.8874C242.562 25.8249 242.638 35.3874 242.663 38.3999C212.025 40.0999 122.05 39.4249 92.95 37.0749C93.675 26.5499 94.5125 19.5374 95.3875 19.1374ZM98.4625 136.512C98.9478 137.74 99.6845 138.852 100.625 139.778C101.566 140.703 102.69 141.422 103.925 141.887C106.814 142.805 109.831 143.257 112.863 143.225C117.338 143.087 119.113 141.812 121.613 137.35C126.397 138.56 131.015 140.353 135.363 142.687C133.288 150.6 128.713 161.6 121.85 166C115.925 169.75 107.175 169.937 101.613 165.425C94.1125 159.45 89.1125 149.175 86.475 139.9C90.3517 138.385 94.3664 137.251 98.4625 136.512ZM106.166 141.691C104.374 141.32 102.593 140.623 101.374 139.258C100.189 137.932 98.8415 135.624 97.575 131.087C97.0957 128.706 96.8114 126.29 96.725 123.862C96.65 122.15 96.8 122.5 96.0375 121.937C89.7 117.262 94.0875 113.4 95.825 114.025C96.4536 114.345 97.0036 114.8 97.4358 115.358C97.868 115.915 98.1716 116.561 98.325 117.25C98.3434 117.355 98.4019 117.449 98.4882 117.512C98.5744 117.575 98.6817 117.602 98.7875 117.587C100.038 117.425 104.925 110.712 105.55 109.562C109.438 114.475 122.113 115.562 126.038 113.037C126.65 114.287 126.813 119.087 126.825 121.237C125.656 125.795 124.057 130.232 122.05 134.487C121 136.714 119.5 140.5 116.5 141.887C113.869 142.948 109.138 142.305 106.166 141.691ZM73.75 207.5C65.5125 215 62.2625 220.462 50.875 216.987C41.7875 214.262 16.25 194.125 15.25 193.462C14.8213 193.234 14.3685 193.054 13.9 192.925C13.3 192.725 6.97502 190.875 7.65002 189.9C8.01252 189.362 12.2875 190.9 12.7125 191.05C12.8262 191.087 12.9497 191.08 13.0583 191.03C13.1669 190.98 13.2527 190.891 13.2984 190.78C13.3442 190.67 13.3466 190.546 13.3052 190.434C13.2638 190.322 13.1816 190.229 13.075 190.175C12.9375 190.175 7.81252 188.237 7.22502 187.05C7.22502 186.962 7.22502 186.95 7.30002 186.925C8.43752 186.687 12.225 187.962 13.3 188.375C13.4103 188.405 13.5278 188.395 13.631 188.345C13.7341 188.296 13.8161 188.211 13.8617 188.106C13.9073 188.001 13.9135 187.884 13.8792 187.775C13.8449 187.665 13.7724 187.572 13.675 187.512C13.1875 187.312 9.35002 185.775 8.46252 184.575C7.73752 183.587 13.95 185.675 14.85 185.2C14.9723 185.111 15.069 184.991 15.1304 184.853C15.1919 184.715 15.2159 184.563 15.2 184.412C15.2 183.6 14.575 180.887 15.1125 180.325C15.1125 180.325 15.2 180.225 15.25 180.225H15.3125C16.4625 181.137 17.1625 186.637 19.0625 186.475C26.5625 185.937 41.5625 191.1 48.625 193.412C49.4 193.675 50.6125 192.162 52.0375 189.975C58.5125 194.162 71.5125 202.7 75.0625 206.137C74.475 206.85 73.9875 207.35 73.75 207.5ZM177.363 196.25C179.863 195.437 187.525 192.737 194.938 190.95C206.038 188.262 206.625 189.85 207.675 189.075C208.925 188.15 209.6 184.537 210.537 183.237C210.787 182.887 210.813 182.975 210.925 183.087C211.114 183.412 211.189 183.79 211.138 184.162C211.138 186.587 210.025 188.275 212.075 188.025C213.663 187.825 218.113 186.612 217.563 187.337C216.8 188.387 213.613 189.837 212.4 190.262C212.303 190.319 212.229 190.409 212.191 190.516C212.154 190.622 212.156 190.738 212.196 190.844C212.237 190.949 212.314 191.036 212.413 191.09C212.512 191.144 212.627 191.161 212.738 191.137C212.238 191.325 217.737 189.262 218.825 189.725C219.2 190.537 213.113 192.887 212.988 192.937C212.882 192.989 212.799 193.078 212.755 193.187C212.711 193.296 212.709 193.418 212.749 193.528C212.79 193.639 212.87 193.73 212.974 193.785C213.078 193.84 213.198 193.854 213.312 193.825C213.625 193.575 218.075 192.225 218.312 192.675C218.55 193.125 217.438 193.7 216.975 193.925C214.85 194.95 211.425 195.737 210.725 196.225C209.788 196.85 184.162 217.025 175.075 219.775C164.662 222.962 160.513 219.275 148.625 206.637C152.063 204.2 167.375 195.212 173.137 191.637C175 194.437 176.45 196.5 177.363 196.25ZM154.488 157.5C158.313 162.137 173.863 187.5 174.713 189.8C172.625 191.337 151.888 203.35 148.063 206.05C148.475 197.387 148.213 183.237 148.425 180.825C148.425 180.775 148.405 180.728 148.37 180.692C148.335 180.657 148.287 180.637 148.238 180.637C148.188 180.637 148.14 180.657 148.105 180.692C148.07 180.728 148.05 180.775 148.05 180.825C146.413 193.437 148.5 229.462 148.125 232.575C143.413 232.7 80.725 231.487 74.375 231.212C74.3404 230.6 74.3404 229.987 74.375 229.375C75.0875 211.262 76.475 220.625 75.5125 191.362C75.2125 182.075 74.9875 181.862 74.925 178.5C74.925 178.45 74.9053 178.403 74.8701 178.367C74.8349 178.332 74.7872 178.312 74.7375 178.312C74.6878 178.312 74.6401 178.332 74.6049 178.367C74.5698 178.403 74.55 178.45 74.55 178.5C74.3875 186.962 74.8 199.95 75.3 205.125C70.3 200.562 54.05 190.125 49.175 187.1C54.9625 174.6 69.3875 147.65 82.0375 141.787C83.4 141.15 84.75 140.537 86.075 140.05C88.575 149.512 93.575 159.875 101.075 166.075C106.913 170.875 116.075 170.837 122.325 166.8C129.425 162.25 134.075 151.175 136.225 142.937C143.117 146.687 149.298 151.616 154.488 157.5ZM239.488 142.15C234.488 144.375 178.238 143.837 136.8 142.6C132.238 139.809 127.264 137.755 122.063 136.512C124.349 131.931 126.171 127.132 127.5 122.187C127.988 121.762 131.538 112.625 131.55 109.587C131.55 98.0999 122.063 90.5624 109.65 92.4624C105.874 93.0176 102.33 94.6247 99.425 97.1C97.4437 98.5398 95.8038 100.398 94.6221 102.544C93.4403 104.689 92.7457 107.068 92.5875 109.512C92.45 110.85 92.35 114.05 92.85 114.887C90.9125 117.612 92.85 120.45 95.9625 122.75C96.1 126.975 96.3375 131.587 98.1125 135.825C96.125 136.175 94.1125 136.625 92.0625 137.2C89.8625 123.087 90.8125 67.2 92.8625 37.625C124.113 40.375 210.775 41.25 243.075 39.425C243.538 72.4 240.263 136.575 239.513 142.2L239.488 142.15Z" fill="#003B7A"/>
<path fill-rule="evenodd" clip-rule="evenodd" d="M169.063 71.0624C170.718 69.2615 172.157 67.273 173.35 65.1374C173.413 65.0774 173.464 65.0053 173.498 64.9254C173.533 64.8455 173.551 64.7594 173.552 64.6723C173.553 64.5852 173.536 64.4989 173.503 64.4183C173.47 64.3378 173.421 64.2648 173.359 64.2037C173.297 64.1425 173.223 64.0944 173.142 64.0623C173.061 64.0301 172.974 64.0146 172.887 64.0166C172.8 64.0185 172.714 64.038 172.635 64.0738C172.556 64.1096 172.484 64.161 172.425 64.2249C170.285 65.5022 168.336 67.0762 166.638 68.8999C164.77 67.2764 162.724 65.8715 160.538 64.7124C160.406 64.6144 160.242 64.5689 160.078 64.5848C159.915 64.6007 159.763 64.6768 159.653 64.7983C159.542 64.9198 159.48 65.078 159.48 65.2423C159.48 65.4066 159.54 65.5653 159.65 65.6874C161.012 67.7305 162.62 69.5986 164.438 71.2499C162.776 73.0805 161.333 75.0983 160.138 77.2624C160.018 77.3884 159.954 77.5566 159.958 77.7301C159.963 77.9035 160.037 78.068 160.163 78.1874C160.289 78.3067 160.457 78.3712 160.63 78.3665C160.804 78.3618 160.968 78.2884 161.088 78.1624C163.199 76.8312 165.132 75.2349 166.838 73.4124C168.699 75.0664 170.751 76.493 172.95 77.6624C173.01 77.7236 173.083 77.7722 173.162 77.8054C173.241 77.8386 173.326 77.8557 173.413 77.8557C173.499 77.8557 173.584 77.8386 173.663 77.8054C173.743 77.7722 173.815 77.7236 173.875 77.6624C173.996 77.5387 174.063 77.3727 174.063 77.1999C174.063 77.0271 173.996 76.8611 173.875 76.7374C172.538 74.6343 170.919 72.7248 169.063 71.0624Z" fill="#003B7A"/>
<path fill-rule="evenodd" clip-rule="evenodd" d="M165.95 51.6249C164.006 51.531 162.065 51.8665 160.265 52.6075C158.466 53.3485 156.852 54.4769 155.537 55.9124C151.337 60.4624 150.325 67.6499 150.4 71.4374C150.7 83.1749 154.387 92.1999 166.075 91.9499C167.968 91.9263 169.836 91.5072 171.558 90.7193C173.28 89.9314 174.819 88.7923 176.075 87.3749C183.6 78.5999 182.137 52.0999 165.95 51.6249ZM166.037 88.9874C164.453 89.106 162.862 88.8652 161.384 88.283C159.906 87.7007 158.578 86.7921 157.5 85.6249C155.237 82.9999 153.75 78.5874 153.612 71.3624C153.511 67.3481 154.491 63.3805 156.45 59.8749C157.395 58.2177 158.772 56.8476 160.434 55.91C162.095 54.9724 163.98 54.5024 165.887 54.5499C182.337 54.2249 184.025 89.3249 166.037 88.9874ZM106.55 24.9124C104.812 22.7749 100.225 23.5874 100.3 27.3374C100.387 29.9374 101.737 31.0874 104.05 31.0249C104.508 31.0461 104.965 30.9675 105.39 30.7944C105.814 30.6214 106.196 30.3581 106.509 30.0228C106.822 29.6874 107.058 29.2881 107.201 28.8525C107.344 28.4169 107.39 27.9554 107.337 27.4999C107.399 26.5703 107.119 25.6502 106.55 24.9124ZM104.05 30.0374C102.362 30.0374 101.475 29.2874 101.425 27.2999C101.412 26.9586 101.468 26.6181 101.588 26.2983C101.708 25.9786 101.89 25.6859 102.125 25.4374C102.667 24.976 103.356 24.7226 104.069 24.7226C104.781 24.7226 105.47 24.976 106.012 25.4374C106.538 26.0028 106.855 26.7302 106.912 27.4999C106.916 27.8623 106.842 28.2213 106.693 28.5519C106.545 28.8825 106.326 29.1769 106.053 29.4147C105.78 29.6526 105.458 29.8281 105.11 29.9291C104.762 30.0301 104.396 30.0543 104.037 29.9999L104.05 30.0374ZM118.562 24.9999C118.092 24.4235 117.451 24.0109 116.731 23.821C116.012 23.6312 115.251 23.6739 114.557 23.9431C113.863 24.2122 113.272 24.694 112.869 25.3195C112.466 25.9449 112.271 26.6819 112.312 27.4249C112.387 29.9249 113.65 31.1749 116.062 31.1124C116.529 31.1357 116.995 31.0554 117.426 30.8773C117.858 30.6993 118.245 30.4278 118.559 30.0824C118.873 29.737 119.107 29.3263 119.244 28.8798C119.381 28.4333 119.417 27.9621 119.35 27.4999C119.39 26.5999 119.111 25.7145 118.562 24.9999ZM116.062 30.1249C114.375 30.1249 113.487 29.3874 113.437 27.3874C113.425 27.0461 113.48 26.7056 113.6 26.3858C113.72 26.0661 113.903 25.7734 114.137 25.5249C114.679 25.0668 115.365 24.8154 116.075 24.8154C116.784 24.8154 117.471 25.0668 118.012 25.5249C118.529 26.0613 118.847 26.7582 118.912 27.4999C118.935 27.8714 118.874 28.2433 118.735 28.5883C118.596 28.9334 118.381 29.243 118.107 29.4946C117.832 29.7461 117.505 29.9332 117.15 30.0423C116.794 30.1514 116.418 30.1796 116.05 30.1249H116.062ZM130.762 24.7874C130.094 24.0879 129.181 23.6738 128.214 23.6319C127.247 23.59 126.302 23.9234 125.575 24.5624C124.894 25.2751 124.522 26.2271 124.537 27.2124C124.612 29.7124 125.875 30.9624 128.287 30.8999C128.749 30.9261 129.211 30.85 129.639 30.677C130.068 30.5041 130.453 30.2385 130.767 29.8993C131.081 29.5601 131.317 29.1557 131.456 28.7149C131.596 28.2742 131.636 27.8081 131.575 27.3499C131.622 26.4257 131.333 25.5157 130.762 24.7874ZM128.262 29.9124C126.562 29.9124 125.687 29.1624 125.637 27.1874C125.625 26.8442 125.681 26.502 125.801 26.1802C125.921 25.8585 126.103 25.5636 126.337 25.3124C126.881 24.8589 127.567 24.6105 128.275 24.6105C128.983 24.6105 129.669 24.8589 130.212 25.3124C130.748 25.8676 131.071 26.5932 131.125 27.3624C131.136 27.729 131.067 28.0936 130.922 28.4304C130.777 28.7671 130.559 29.0679 130.285 29.3112C130.011 29.5546 129.686 29.7346 129.334 29.8385C128.983 29.9424 128.612 29.9676 128.25 29.9124H128.262ZM157.362 98.9499C156.979 98.9077 156.59 98.9494 156.224 99.0723C155.858 99.1951 155.523 99.3961 155.243 99.6612C154.962 99.9264 154.742 100.249 154.599 100.608C154.456 100.966 154.392 101.352 154.412 101.737C154.387 102.29 154.537 102.837 154.842 103.299C155.147 103.761 155.591 104.114 156.11 104.307C156.628 104.5 157.195 104.524 157.728 104.374C158.261 104.225 158.733 103.91 159.075 103.475C160 101.412 159.525 99.5124 157.362 98.9499ZM174.125 98.7499C173.742 98.7057 173.354 98.7456 172.988 98.867C172.621 98.9883 172.286 99.188 172.005 99.4522C171.724 99.7165 171.505 100.039 171.361 100.397C171.218 100.755 171.154 101.14 171.175 101.525C171.163 102.296 171.455 103.042 171.987 103.6C173.237 104.775 175.412 104.262 175.837 103.262C176.737 101.25 176.25 99.3249 174.125 98.7499ZM121.837 75.0874C121.937 72.6624 124.512 54.4124 124.65 53.8374C124.68 53.7554 124.693 53.6682 124.689 53.581C124.685 53.4938 124.664 53.4083 124.627 53.3293C124.589 53.2503 124.537 53.1794 124.472 53.1208C124.408 53.0621 124.332 53.0168 124.25 52.9874C124.086 52.9344 123.907 52.9462 123.751 53.0206C123.596 53.095 123.474 53.2263 123.412 53.3874C121.862 56.8624 118.25 71.3749 118.75 75.6749C118.776 76.2718 119.016 76.8394 119.425 77.2749C120.987 78.8499 123.387 79.0749 125.6 79.0624C128.85 78.9874 132.787 78.6624 136.112 78.3249C136.155 82.5454 136.574 86.7536 137.362 90.8999C137.364 90.9853 137.382 91.0695 137.417 91.1477C137.451 91.226 137.5 91.2967 137.562 91.3559C137.623 91.4151 137.696 91.4616 137.775 91.4928C137.855 91.5239 137.94 91.5391 138.025 91.5374C138.196 91.531 138.358 91.4583 138.477 91.3348C138.596 91.2112 138.662 91.0464 138.662 90.8749C139.295 86.6018 139.521 82.2783 139.337 77.9624C140.597 77.844 141.849 77.6562 143.087 77.3999C143.174 77.3516 143.248 77.2853 143.307 77.2055C143.365 77.1257 143.405 77.0342 143.425 76.9374C143.449 76.8347 143.445 76.7274 143.415 76.6264C143.384 76.5255 143.327 76.4344 143.25 76.3624C143.171 76.2942 143.08 76.2425 142.981 76.2103C142.883 76.1781 142.778 76.166 142.675 76.1749C142.675 75.8624 142.6 75.9374 142.537 76.1749L142.5 76.2499L139.262 76.1374C139.218 71.7184 138.8 67.311 138.012 62.9624C138.006 62.7889 137.931 62.6249 137.805 62.5057C137.679 62.3864 137.511 62.3215 137.337 62.3249C137.163 62.3314 136.997 62.4054 136.876 62.5313C136.755 62.6571 136.687 62.8252 136.687 62.9999C136.094 67.3062 135.877 71.6559 136.037 75.9999C126.987 75.6124 123.25 76.3124 121.837 75.0874ZM209.087 76.4249C208.862 76.2124 208.775 76.2499 205.137 76.1249C205.097 71.7098 204.679 67.3062 203.887 62.9624C203.887 62.7867 203.818 62.6182 203.693 62.494C203.569 62.3697 203.401 62.2999 203.225 62.2999C203.049 62.2999 202.881 62.3697 202.756 62.494C202.632 62.6182 202.562 62.7867 202.562 62.9624C201.967 67.2727 201.75 71.6268 201.912 75.9749C200.137 75.9749 198.462 75.8249 197.6 75.8624C189.362 76.1374 187.6 75.0124 187.712 75.1249C187.812 72.6999 190.387 54.4624 190.525 53.8749C190.557 53.7921 190.572 53.7037 190.569 53.615C190.566 53.5263 190.545 53.4391 190.508 53.3586C190.471 53.278 190.418 53.2058 190.352 53.1461C190.286 53.0865 190.209 53.0406 190.126 53.0113C190.042 52.982 189.953 52.9698 189.864 52.9755C189.776 52.9811 189.689 53.0045 189.61 53.0443C189.531 53.084 189.46 53.1393 189.403 53.2068C189.345 53.2744 189.302 53.3528 189.275 53.4374C187.725 56.8499 184.112 71.3624 184.6 75.6624C184.634 76.2613 184.872 76.8303 185.275 77.2749C186.837 78.8499 189.237 79.0624 191.45 79.0499C194.687 78.9749 198.625 78.6624 201.962 78.3124C202.009 82.5327 202.427 86.7406 203.212 90.8874C203.214 90.9728 203.232 91.057 203.267 91.1352C203.301 91.2135 203.35 91.2842 203.412 91.3434C203.473 91.4026 203.546 91.4491 203.625 91.4803C203.705 91.5114 203.79 91.5266 203.875 91.5249C203.961 91.525 204.046 91.5077 204.125 91.4741C204.204 91.4405 204.275 91.3913 204.335 91.3295C204.394 91.2676 204.441 91.1943 204.471 91.1141C204.502 91.0338 204.516 90.9482 204.512 90.8624C205.156 86.5904 205.386 82.2662 205.2 77.9499C206.46 77.8388 207.712 77.651 208.95 77.3874C209.027 77.3368 209.092 77.2704 209.141 77.1928C209.19 77.1152 209.222 77.028 209.235 76.9371C209.248 76.8461 209.242 76.7535 209.216 76.6652C209.191 76.5769 209.147 76.495 209.087 76.4249ZM165.862 105C161.112 105.112 156.75 106.787 154.187 110.8C154.13 110.864 154.086 110.94 154.058 111.021C154.03 111.103 154.019 111.189 154.025 111.276C154.031 111.362 154.053 111.446 154.092 111.523C154.131 111.6 154.184 111.669 154.25 111.725C154.315 111.783 154.392 111.827 154.474 111.855C154.557 111.883 154.644 111.894 154.732 111.889C154.819 111.883 154.904 111.86 154.982 111.821C155.06 111.782 155.13 111.728 155.187 111.662C157.762 109.425 162.475 108.325 165.925 108.262C169 108.262 174.525 109.062 176.9 110.987C176.953 111.062 177.021 111.124 177.1 111.17C177.179 111.216 177.267 111.245 177.357 111.255C177.448 111.264 177.54 111.255 177.627 111.227C177.714 111.199 177.794 111.153 177.862 111.092C177.93 111.032 177.984 110.957 178.021 110.874C178.059 110.79 178.078 110.7 178.078 110.609C178.078 110.518 178.059 110.427 178.022 110.344C177.985 110.261 177.93 110.186 177.862 110.125C175.875 107.162 171.7 104.912 165.862 105ZM106.587 203.75C105.762 203.625 101.462 203.875 101.5 204.5C101.302 206.127 101.302 207.773 101.5 209.4C101.535 209.491 101.592 209.572 101.667 209.635C101.741 209.698 101.83 209.742 101.925 209.762C103.677 209.915 105.442 209.84 107.175 209.537C107.283 209.504 107.377 209.433 107.437 209.337C107.862 208.687 107.437 204.862 107.05 204.125C107.013 204.027 106.951 203.94 106.87 203.875C106.788 203.809 106.691 203.766 106.587 203.75ZM99.2124 196.55C98.3874 196.425 94.0749 196.675 94.1124 197.3C93.9008 198.925 93.8799 200.57 94.0499 202.2C94.0851 202.291 94.1423 202.372 94.2165 202.435C94.2907 202.498 94.3795 202.542 94.4749 202.562C96.2272 202.716 97.9921 202.64 99.7249 202.337C99.7798 202.323 99.8312 202.298 99.8763 202.264C99.9214 202.23 99.9592 202.187 99.9874 202.137C100.412 201.487 99.9874 197.662 99.6124 196.925C99.5778 196.837 99.5239 196.757 99.4547 196.692C99.3855 196.627 99.3027 196.579 99.2124 196.55ZM106.525 195.062C106.632 195.026 106.724 194.956 106.787 194.862C107.212 194.212 106.787 190.387 106.4 189.65C106.369 189.56 106.316 189.478 106.246 189.413C106.177 189.348 106.092 189.3 106 189.275C105.175 189.15 100.875 189.4 100.912 190.025C100.715 191.656 100.715 193.306 100.912 194.937C100.948 195.027 101.006 195.105 101.08 195.167C101.155 195.228 101.243 195.269 101.337 195.287C103.069 195.435 104.812 195.359 106.525 195.062ZM113.862 195.837C113.025 195.7 108.725 195.975 108.762 196.587C108.551 198.213 108.53 199.857 108.7 201.487C108.735 201.578 108.792 201.659 108.867 201.722C108.941 201.786 109.03 201.83 109.125 201.85C110.877 201.997 112.641 201.921 114.375 201.625C114.483 201.592 114.577 201.521 114.637 201.425C115.062 200.762 114.637 196.95 114.262 196.2C114.226 196.114 114.172 196.037 114.103 195.974C114.034 195.912 113.952 195.865 113.862 195.837ZM123.287 202.987C122.475 202.85 118.162 203.1 118.2 203.725C118.002 205.356 118.002 207.006 118.2 208.637C118.236 208.727 118.294 208.805 118.368 208.867C118.442 208.928 118.53 208.969 118.625 208.987C120.377 209.147 122.143 209.071 123.875 208.762C123.983 208.729 124.077 208.658 124.137 208.562C124.562 207.912 124.137 204.087 123.75 203.35C123.716 203.251 123.655 203.164 123.573 203.1C123.49 203.036 123.391 202.996 123.287 202.987ZM122.575 194.187C122.679 194.147 122.77 194.077 122.837 193.987C123.25 193.325 122.837 189.5 122.45 188.762C122.415 188.675 122.361 188.598 122.292 188.535C122.223 188.472 122.14 188.426 122.05 188.4C121.225 188.275 116.912 188.512 116.95 189.15C116.754 190.777 116.754 192.422 116.95 194.05C116.982 194.143 117.038 194.225 117.113 194.289C117.188 194.353 117.278 194.395 117.375 194.412C119.111 194.56 120.858 194.484 122.575 194.187ZM130.162 195C129.337 194.862 125.037 195.112 125.075 195.75C124.877 197.377 124.877 199.023 125.075 200.65C125.112 200.74 125.17 200.819 125.244 200.882C125.318 200.945 125.405 200.99 125.5 201.012C127.252 201.165 129.017 201.089 130.75 200.787C130.86 200.751 130.954 200.676 131.012 200.575C131.437 199.925 131.012 196.112 130.637 195.362C130.597 195.266 130.532 195.181 130.448 195.118C130.365 195.054 130.266 195.014 130.162 195ZM111.875 118.25C111.925 118.25 111.972 118.23 112.007 118.195C112.043 118.16 112.062 118.112 112.062 118.062C112.062 118.013 112.043 117.965 112.007 117.93C111.972 117.895 111.925 117.875 111.875 117.875C110.75 117.405 109.531 117.205 108.315 117.292C107.1 117.379 105.921 117.75 104.875 118.375C104.828 118.395 104.792 118.432 104.773 118.479C104.754 118.526 104.755 118.579 104.775 118.625C104.795 118.671 104.832 118.708 104.879 118.727C104.926 118.745 104.978 118.745 105.025 118.725C107.279 118.279 109.581 118.119 111.875 118.25ZM118.4 119.487C120.34 119.945 122.211 120.66 123.962 121.612C123.981 121.629 124.003 121.641 124.027 121.649C124.051 121.657 124.076 121.66 124.101 121.659C124.126 121.657 124.15 121.65 124.172 121.639C124.195 121.628 124.215 121.613 124.231 121.594C124.248 121.575 124.26 121.553 124.268 121.529C124.276 121.505 124.279 121.48 124.277 121.455C124.276 121.43 124.269 121.406 124.258 121.384C124.247 121.361 124.231 121.341 124.212 121.325C123.565 120.439 122.655 119.779 121.612 119.437C120.601 119.052 119.507 118.936 118.437 119.1C118.393 119.106 118.351 119.127 118.32 119.159C118.289 119.192 118.27 119.234 118.265 119.279C118.261 119.324 118.272 119.369 118.296 119.407C118.321 119.444 118.357 119.473 118.4 119.487ZM109.55 122.687V121.35C109.531 121.236 109.473 121.132 109.385 121.057C109.296 120.981 109.184 120.94 109.069 120.94C108.953 120.94 108.841 120.981 108.753 121.057C108.664 121.132 108.606 121.236 108.587 121.35V122.6C108.576 122.728 108.615 122.855 108.697 122.953C108.779 123.051 108.897 123.113 109.025 123.125C109.153 123.137 109.28 123.097 109.378 123.015C109.476 122.933 109.538 122.815 109.55 122.687ZM119.375 123.1C119.375 123.5 119.275 123.787 119.212 124.187C119.194 124.313 119.227 124.441 119.303 124.543C119.379 124.645 119.493 124.713 119.619 124.731C119.745 124.749 119.873 124.717 119.975 124.641C120.077 124.564 120.144 124.451 120.162 124.325C120.162 123.925 120.262 123.637 120.312 123.237C120.326 123.174 120.327 123.108 120.315 123.044C120.302 122.98 120.277 122.919 120.24 122.865C120.203 122.811 120.155 122.766 120.099 122.731C120.044 122.697 119.982 122.674 119.918 122.665C119.853 122.655 119.787 122.659 119.724 122.676C119.661 122.693 119.602 122.723 119.551 122.764C119.501 122.805 119.459 122.856 119.428 122.914C119.398 122.971 119.38 123.035 119.375 123.1ZM111.25 129.637C111.95 130.312 114.462 130.737 115.162 129.95C116.262 128.7 115.162 122.45 114.775 122.275C114.742 122.248 114.701 122.234 114.659 122.234C114.616 122.233 114.575 122.247 114.542 122.274C114.509 122.3 114.485 122.336 114.475 122.377C114.465 122.418 114.47 122.462 114.487 122.5C114.587 122.612 114.487 122.5 114.487 122.5C114.3 122.137 115 128.65 114.487 129.325C113.519 129.654 112.469 129.654 111.5 129.325C111.458 129.292 111.406 129.276 111.353 129.282C111.3 129.288 111.252 129.315 111.219 129.356C111.185 129.398 111.17 129.451 111.176 129.503C111.182 129.556 111.208 129.604 111.25 129.637ZM108.75 132.212C108.7 132.212 108.652 132.232 108.617 132.267C108.582 132.303 108.562 132.35 108.562 132.4C108.562 132.45 108.582 132.497 108.617 132.533C108.652 132.568 108.7 132.587 108.75 132.587C109.623 132.65 110.474 132.893 111.25 133.3C112.007 133.755 112.687 134.329 113.262 135C113.272 135.023 113.286 135.044 113.304 135.061C113.322 135.079 113.343 135.092 113.367 135.102C113.39 135.111 113.415 135.116 113.44 135.115C113.465 135.115 113.489 135.11 113.512 135.1C113.535 135.09 113.556 135.076 113.574 135.058C113.591 135.04 113.605 135.019 113.614 134.996C113.623 134.972 113.628 134.948 113.628 134.923C113.627 134.898 113.622 134.873 113.612 134.85C113.487 134.345 113.257 133.872 112.938 133.461C112.62 133.049 112.219 132.709 111.762 132.461C111.304 132.213 110.8 132.063 110.282 132.02C109.763 131.977 109.242 132.043 108.75 132.212ZM36.7374 126.65C36.7686 126.74 36.8172 126.823 36.8806 126.895C36.944 126.966 37.0208 127.025 37.1067 127.066C37.1926 127.108 37.2859 127.133 37.3812 127.138C37.4765 127.144 37.5721 127.131 37.6624 127.1C37.7527 127.069 37.8359 127.02 37.9074 126.957C37.9789 126.893 38.0372 126.817 38.0789 126.731C38.1207 126.645 38.1452 126.551 38.1509 126.456C38.1567 126.361 38.1436 126.265 38.1124 126.175C33.1124 110.675 32.1624 107.337 29.3624 98.7624C29.2917 98.52 29.1721 98.2946 29.011 98.1001C28.8499 97.9056 28.6507 97.7462 28.4256 97.6316C28.2006 97.517 27.9545 97.4498 27.7024 97.4339C27.4504 97.4181 27.1978 97.454 26.9601 97.5395C26.7225 97.6249 26.5049 97.7582 26.3207 97.9309C26.1365 98.1037 25.9896 98.3124 25.8891 98.544C25.7886 98.7757 25.7366 99.0255 25.7363 99.278C25.736 99.5306 25.7874 99.7805 25.8874 100.012C34.3874 122.725 33.5499 118.287 36.7374 126.65ZM40.3499 143.975C48.1374 146.637 50.3499 136.325 45.1749 134.262C37.9999 131.387 34.5624 141.825 40.3499 143.975ZM44.9999 136.75C46.4999 138.8 44.9999 143.075 41.0874 141.75C36.1374 140.25 41.1624 131.487 44.9999 136.75ZM57.0249 110.2C57.0263 110.304 57.0499 110.407 57.0941 110.502C57.1383 110.597 57.2022 110.681 57.2815 110.749C57.3607 110.817 57.4536 110.868 57.5539 110.897C57.6541 110.927 57.7595 110.935 57.8631 110.921C57.9666 110.906 58.066 110.87 58.1545 110.815C58.243 110.759 58.3187 110.685 58.3766 110.598C58.4344 110.511 58.4731 110.413 58.4901 110.31C58.507 110.206 58.5018 110.101 58.4749 110C57.4249 99.0249 57.3249 97.1999 55.3124 84.1874C55.2167 83.711 54.9374 83.2914 54.5349 83.0192C54.1323 82.747 53.6388 82.6441 53.1611 82.7328C52.6833 82.8214 52.2596 83.0945 51.9815 83.493C51.7034 83.8915 51.5933 84.3834 51.6749 84.8624C52.4124 88.5499 56.4999 107.775 57.0249 110.2ZM55.8624 122.262C57.2124 123.362 59.2249 123.8 61.6374 122.137C67.0499 119.837 64.6749 113.387 60.2999 112.8C53.6499 112.062 52.6249 119.625 55.8624 122.262ZM59.9999 115.187C60.6687 115.29 61.2896 115.596 61.777 116.066C62.2645 116.535 62.5946 117.144 62.722 117.808C62.8494 118.473 62.7679 119.16 62.4886 119.777C62.2093 120.393 61.746 120.908 61.1624 121.25C58.5374 122.387 56.7749 121.175 56.4999 118.75C56.4048 118.267 56.4289 117.769 56.57 117.297C56.7112 116.826 56.9652 116.396 57.31 116.045C57.6548 115.694 58.08 115.433 58.5487 115.283C59.0174 115.134 59.5156 115.101 59.9999 115.187Z" fill="#003B7A"/>
</svg>
