<?xml version="1.0" encoding="UTF-8"?><svg id="a" xmlns="http://www.w3.org/2000/svg" width="14.36cm" height="14.92cm" viewBox="0 0 407 423"><path d="M329.98,42.52c42.05,35.81,46.88,95.5,56.89,150.81,10.48,57.88,38.8,124.09,1.32,170.78-37.1,46.21-107.2,24.98-164.75,32.81-52.3,7.11-109.99,41.33-151.62,10.22-41.43-30.96-22.41-96.58-32.93-148.14-11.63-56.97-56.95-111.81-30.98-165.02C35.48,37.49,102.78,13,163.71,3.27c59.17-9.46,121.38,1.02,166.27,39.26Z" fill="#ffde9c" fill-rule="evenodd"/><path d="M374.08,84.41c31.01,45.61,19.78,104.26,14.71,160.08-5.31,58.42,4.37,129.58-44.22,164.48-48.08,34.53-110.03-4.54-167.62-12.33-52.34-7.09-117.09,10.43-148.95-30.55-31.71-40.79,4.11-98.78,7.7-151.13,3.96-57.85-25.14-122.62,14.07-166.84C91.4,1.16,162.83-4.45,224.18,2.41c59.58,6.67,116.79,33.3,149.9,82Z" fill="#fff0d1" fill-rule="evenodd"/><path d="M185.4,118.45s.06.07.06.12,0,.1-.05.12c-.04.04-.07.06-.12.06-.94.25-1.85.6-2.72,1.02-.28.13-.53.3-.76.49-.02.02-.06.02-.08.02-.04,0-.06,0-.08-.02s-.05-.05-.05-.07v-.1h-.01c.26-.6.74-1.08,1.36-1.34.73-.34,1.54-.46,2.34-.35.05,0,.1.01.12.05ZM194.34,119.12h0c.4.17.8.31,1.22.43.67.2,1.7.61,1.91.7.01.01.04.04.05.04.02.01.04.01.06.01.01,0,.02,0,.03,0,0,0,0,0,.01,0h0s0,0,0,0c0,0,0,0,.01,0,.02-.01.04-.02.05-.04.01-.01.02-.05.02-.05v-.06s-.01-.05-.02-.06c-.01-.01-.04-.04-.05-.04-.23-.32-.54-.6-.89-.8-.35-.2-.73-.34-1.14-.38-.42-.08-.85-.08-1.27,0-.04,0-.07.01-.1.04-.02.02-.04.06-.04.1s.01.07.04.1c.02.02.1.04.1.04ZM195.47,136.19h-.22c-.07.01-.14.05-.19.11-.46.65-1.14,1.09-1.92,1.22-.8.14-1.64.06-2.41-.24h-.1s-.07.07-.07.07v.1s.02.06.05.08c.38.23.8.4,1.25.49.47.12.95.16,1.43.08.48-.07.94-.23,1.36-.48-.29.71-.79,1.31-1.45,1.69-.65.38-1.42.55-2.17.46-.02,0-.05.02-.07.05s-.02.05-.02.08c0,.02,0,.06.02.08.01.02.04.05.07.05.54.14,1.1.17,1.64.06.54-.11,1.06-.34,1.5-.66.84-.74,1.38-1.78,1.54-2.89,0-.08-.02-.16-.06-.22-.04-.07-.1-.12-.17-.14ZM189.24,133.19s0-.01,0-.02c0,0,0,0,0,0h0s-.03-.04-.03-.04c-.01-.02-.06-.02-.06-.02h-.07s0,0-.08-.01c-.49-.06-2.87-.36-2.73-1.25.17-.6.41-1.18.72-1.72.22-.38,2.23-4.02,2.23-4.02.01-.02.01-.07.01-.11-.01-.04-.04-.07-.07-.1-.02-.01-.07-.01-.11-.01-.04.01-.1.07-.1.07v-.02s-.31.37-.73.95c-1.15,1.45-2.04,3.08-2.64,4.84-.18,1.49,2.02,1.76,3.49,1.64h.07s.03,0,.04-.02c0,0,.02,0,.02,0,.02-.01.05-.02.05-.05.01-.01.01-.05.01-.06,0,0,0-.01,0-.02,0,0,0-.01,0-.02ZM183.6,124.69c-.07-.07-.16-.12-.24-.16-.08-.04-.18-.04-.28-.04h0s-.04-.01-.04-.01c-.19.02-.37.12-.5.28-.12.14-.18.34-.18.54v1.46c0,.1.01.19.04.29.04.1.08.18.14.25s.14.13.23.17c.08.05.18.07.28.07.2,0,.38-.08.53-.23.14-.14.23-.34.23-.53v-1.58c0-.1-.01-.19-.05-.28-.04-.1-.08-.17-.16-.24ZM195.95,124.55c-.07-.07-.14-.12-.24-.16-.08-.04-.18-.04-.28-.04-.19.02-.37.12-.5.28-.13.16-.19.35-.19.55v1.46c0,.1.01.19.04.29.04.1.08.18.14.25.06.07.14.13.22.16.08.04.17.07.26.07.2,0,.38-.08.53-.23s.23-.34.23-.53v-1.6c.01-.1-.01-.19-.05-.28-.04-.1-.08-.17-.16-.24ZM142.68,121.07c-2.08,1.26.72,4.67,2.51,2.23,1.09-1.5-1.21-3.11-2.51-2.23ZM125.17,120.94h-.01c-.36.1-.67.3-.89.59-.22.3-.32.66-.29,1.02.02.36.19.71.46.96.26.25.61.41.97.43,1.81-.17,1.75-3.23-.24-3ZM132.84,121.96c-.76,2.88,3.56,2.81,3.26.7s-2.89-2.18-3.26-.7ZM197.52,227.2c.5,2.71-.74,6.24-3.91,6.36-3.89.08-4.78-4.8-3.28-7.6.38-.71.98-1.27,1.7-1.63.73-.35,1.55-.47,2.34-.34s1.52.52,2.09,1.09c.56.58.94,1.32,1.06,2.11ZM196.88,227.28c-.08-.67-.38-1.3-.85-1.79-.47-.49-1.07-.83-1.74-.95s-1.36-.02-1.97.26c-.61.29-1.12.77-1.44,1.37-1.48,2.42-.5,6.91,2.76,6.72h0c2.75-.16,3.73-3.29,3.24-5.62ZM291.9,261.91l-135.2.22c-2.89,0-5.78,0-8.67.01-7.95.02-15.91.04-23.85-.08-.23,0-.22-.4,0-.4,4.94-.18,9.89-.17,14.84-.16,1.19,0,2.37,0,3.56,0l30.22-.05c.2-.52,1.62-3.64,2.12-3.64,6.63-.15,13.26-.12,19.9-.09,2.78.01,5.56.03,8.34.03-.35-1.21-3.61-20.12-3.7-21.83h-64.15c-10.03-.02-13.34-4.1-11.78-13.82.52-3.26.97-6.53,1.42-9.79.35-2.5.69-4.99,1.06-7.49h0c3.12-20.93,6.24-41.86,9.37-62.78-24.89-.58-32.16-20.88-19.39-32.78,10-9.31,29.58-8.74,38.96,1.31,2.03,2.21,3.5,4.86,4.31,7.75.8,2.88.9,5.92.3,8.86,4.2-.06,8.45-.06,12.67-.06.22-3.38,1.02-6.55,1.4-7.9-.37-5.87,1.58-11.65,5.45-16.08.65-.84,1.47-1.54,2.4-2.04,1.49-.61,2.63-.27,4.07.16.09.02.17.05.26.08.31-1.19,1.79-5.42,7.43-8.05,11.15-5.17,20.7,4.46,22.43,9.42.88,3.1,1.4,6.3,1.57,9.52.97,2.3,1.57,4.75,1.78,7.24,3.1,1.34,4.64,4.31,5.16,7.68h46.14c2.94-.05,5.86.6,8.48,1.92,5.54,2.54,5.76,5.83,5.54,11.74,0,.35-6.83,66.3-8.94,84.16-1.32,11.19-7.18,11.14-16.4,11.07-.22,0-.44,0-.67,0-8.05-.08-16.09-.05-24.14-.03-4.02.01-8.05.03-12.07.03,1.36,3.46,2.68,6.93,4.01,10.4,1.45,3.81,2.9,7.62,4.41,11.41h7.27c.24,0,1.78,1.93,2.6,2.96.26.33.45.56.5.62l50.93-.08h0c.42,0,.47.65.07.59ZM276.6,128.83c1.04,1.07,1.66,2.48,1.72,3.97.52,6.11-8.12,78.01-9.24,87.01-.09.76-.17,1.58-.25,2.44-.45,4.94-1.02,11.16-5.62,13.1,8.23-.29,10.75-2.48,11.71-11.44,2.34-20.99,4.54-42.34,6.73-63.62.68-6.56,1.35-13.11,2.03-19.64h.01c.56-5.56-.44-9.6-7.09-11.82ZM217.25,113.71c.17,1.75.28,3.52.32,5.27h-.05c.36.1.7.2,1.04.34-.22-1.92-.66-3.79-1.32-5.6ZM210.22,143.29l-.35-.1-.05-.02-.62,5.46c0,.2-.02.4-.02.59,0,.2-.02.4-.02.59,5.65.9,11.14,2.59,16.32,5-.02.11-.08.38-.15.74-.41,2.03-1.45,7.22-1.35,7.77.01.07.05.14.1.19.05.05.12.1.19.1.07.01.15,0,.21-.04s.12-.08.15-.16c.27-.52.91-4.83,1.25-7.1.09-.57.15-1,.19-1.22,26.4,12.82,41.48,42.01,35.11,64.32h7.32c3.35-27.32,6.68-55.99,9.11-83.17.58-6.5-1.32-8.56-7.26-8.48-11.79.14-33.68-.01-46.1-.11.32,2.66.01,5.54-.7,8.08-1.9,6.77-6.8,9.34-13.32,7.55ZM197.16,156.37c4.13-1.39,7.96-3.53,11.3-6.31v-1.31l.48-5.92c-4.26-2.2-4.96-9.04-4.15-14.77-1.51-.97-2.78-2.28-3.73-3.8-1.22-2.22-.56-6.82-.06-9.3-4.42-1.73-11.15-4.85-14.4-8.28-10.09,3.89-10.73,18.12-10.45,28.96-.04,1.5.25,2.99.85,4.37.6,1.37,1.5,2.59,2.64,3.58,3.29,2.74,8.11,3.06,10.82,3.24.27.02.52.03.75.05.09,0,.19.02.28.03.56.05,1.16.11,1.33.45,0,.01.01.02.01.03.04.08-.03.2-.41,3.56-.07.64-.17,1.14-.26,1.25,1.45,1.64,3.13,3.05,5.01,4.19ZM196.79,156.87c-1.08-.52-5-3.8-5.11-4.63-.6.05-1.22.13-1.83.22.06,3.24.88,6.43,2.36,9.31,1.22-1.9,2.77-3.55,4.58-4.9h-.01ZM208.98,123.59c.55-1.38,1.36-2.65,2.36-3.74.14-.12-.04-.32-.17-.2-.72.64-1.34,1.38-1.85,2.21-2.05,3.52-2.89,7.61-2.38,11.64.3,2.65.92,5.26,1.87,7.75.01.04.02.07.06.08.02.01.06.01.1.01.14-.05.12-.1-.03-.62-.11-.39-.3-1.06-.56-2.19h.01c-1.14-5.02-1.39-10.19.58-14.94ZM197.65,156.87c1.58,1.39,2.88,3.07,3.84,4.94,5.57-3.41,7.61-5.02,11.45-10.42l-3.84-.96v-.04c-2.91,2.62-7.58,5.51-11.45,6.47ZM191.53,100.78c2.98-.72,6.09-.68,9.04.1,4.26.96,8.47,2.23,11.95,5.04-2.39-10.02-9.07-11.35-13.34-11.4-4.96-.08-7.08,4.84-7.65,6.26ZM173.89,119.04c.59,1.19,1.4,2.24,2.39,3.13,1.08-6.78,3.7-13.27,10.13-15.73-.26-.32-.52-.64-.73-.95-.01-.01-.02-.05-.02-.05v-.06s0-.02,0-.02c0,0,0-.02,0-.02,0,0,0,0,.01-.01,0-.01.02-.02.02-.02.11-.08.17-.01.35.22.28.36.87,1.1,2.47,2.28,4.07,2.74,8.45,4.98,13.04,6.66.08.02.14.08.18.16.02.07.05.16.02.24-.53,2.26-1.26,7.12-.2,9.18.83,1.44,1.96,2.71,3.3,3.7.22-1.4.53-2.78.95-4.14,1.49-4.62,4.45-5.27,7.37-5.12.34-3.86.17-7.75-.49-11.58-3.44-3.04-7.82-4.37-12.31-5.36-5.39-1.2-8.24-.27-10.27.38-.96.31-1.74.56-2.5.49-.87-.08-1.6-.31-2.29-.52-1.2-.36-2.24-.68-3.55-.13-.85.46-1.6,1.07-2.21,1.8v.02c-3.8,4.24-5.83,9.78-5.66,15.47ZM146.87,139.65c1.99-.79,3.85-1.86,5.54-3.17.13-.1.28-.1.66.26,3.54,3.23,9.76,5.33,14.4,4.32-3.73-.96-8.39-4.99-9.72-8.64-.35-.98-.34-1.22-.22-1.61,1.8-3.59,2.24-7.7,1.27-11.59-4.32-18.47-33.82-20.99-44.52-7.19-6.12,7.91-4.84,17.68,3.02,23.78,3.96,3.13,8.93,4.68,13.88,5.29h-.05c5.28.8,10.68.3,15.72-1.46ZM124.32,220.33c4.75-.12,9.48-.19,14.28-.19-1.9-29.52,15.35-53.41,41.54-65.33-.35.65-.8,1.43-1.3,2.3-2.18,3.78-5.31,9.21-5.04,12.27.18,1.81,1.08,2.78,2.22,4.02l.06.06c1.74,1.91,1.21,2.75.44,3.97-.68,1.08-1.55,2.45-1.17,5.12.72,5.16,7.14,18.88,9.85,23.4-.68,1.42-1.27,2.87-1.75,4.37l.79.37c.37-1.09.8-2.2,1.25-3.28,2.59-1.63,5.1-3.4,7.51-5.29,5.03-3.84,9.73-8.1,14.04-12.74,3.88-4.32,3.37-7.9,2.97-10.73-.36-2.54-.64-4.48,2.43-5.81.4-.18.13-.9-.31-.73-3.48,1.42-3.52,3.66-2.88,6.94,1.06,5.53-1.47,8.47-5.01,12.05-5.6,5.62-11.74,10.69-18.3,15.14,1.33-3,2.83-5.94,4.49-8.77,5.04-8.36,12.41-19.86,19.51-29.35-1.63-1.69-3.35-3.3-5.16-4.8-.52-.42-1.03-1.04-.39-1.64.81-.79,3.07.31,4.38.95.25.12.47.23.63.3.85-.66,1.93-.96,3-.84.38-.52.9-.91,1.49-1.15.6-.24,1.25-.3,1.87-.19,1.94-2.36,4.06-4.58,6.31-6.65-2.74-1.04-5.54-1.91-8.4-2.57-2.15,3.86-8.04,9.02-11.96,10.68-.25.7-.99-.59-1.19-.95-.02-.03-.03-.06-.04-.07-1.44,1.19-2.8,2.47-4.06,3.84-.24.43-1.26,14.32-1.72,20.49-.1,1.37-.17,2.36-.21,2.74-.15.24-.6.9-1.2,1.79-1.8,2.68-4.98,7.4-5.75,8.77-.2-.45-1.01-4.84-1.62-8.13-.24-1.28-.45-2.4-.57-3.05.3-1.09,3.75-9.33,6.39-15.62,1.65-3.94,2.98-7.12,3.03-7.32.08-.35-.19-1.32-.5-2.42-.16-.57-.33-1.16-.46-1.73l-1.55,1.82c-.52.58-2.99-4.79-2.99-9.82-1.91.3-3.79.76-5.63,1.37-1.14,9.86-2.15,33.82,3.35,48-.53,1.02-1.01,2.03-1.49,3.06-2.95-5.47-7.68-15.3-9.17-21.19-.86-3.39-.07-4.6.68-5.77.33-.5.64-.99.83-1.65.43-1.59-.45-2.55-1.43-3.6-1.4-1.52-2.98-3.23-1.09-7.27,1.16-2.56,2.49-5.05,3.82-7.53.66-1.22,1.31-2.45,1.94-3.68.86-.34,1.74-.67,2.62-.96,2.59-.82,5.26-1.37,7.96-1.64l.06-.66.37-3.38c-.44-.09-1.11-.15-1.92-.21-4.44-.37-13.26-1.11-14.51-10.03-.21-.12-.38-.27-.55-.41-.03-.02-.05-.04-.08-.07-4.24,3.02-6.13,8.21,1.16,10.52.35-1.84,2.99-1.37,4.28-1,3.59,1.03,2.86,4.5-.61,4.02-1.22-.18-3.66-.76-3.73-2.39-7.33-1.25-7.24-7.88-1.72-11.74-1.94-2.06-2.41-5.41-2.27-8.66-4.26,0-8.51-.01-12.76-.1-.34,1.3-.82,2.54-1.46,3.71-.16,1.3,4.43,8.52,10.87,9.41.55.07.11.55-.28.67-4.96,1.57-13.48-1.22-15.78-4.39-4.74,3.76-10.82,5.1-16.76,5.1-2.44,16.34-4.87,32.66-7.32,48.96h.01c-.57,3.75-1.11,7.52-1.67,11.29-.88,6-1.76,12.02-2.7,18.01ZM186.48,218.71h-.04c.18.44.34.79.49,1.1.48,1.04.76,1.64.83,3.67,0,2.3,2.03-.54,1.92-3.59-.19-4.96-4.09-8.58-8.64-9.76l-2.04-.44c.46-.16.94-.26,1.42-.31.49-.05.68-.68.17-.84-6.6-1.9-13.42-2.89-20.28-2.95.06-8.28,2.54-16.24,5.16-24,.7-2.24,1.6-4.42,2.69-6.5.07-.19-.34-2.05-2.88,5.27-2.2,6.25-6.17,18.34-5.68,25.18-2.48-.06-4.97.1-7.43.46-.06,0-.13.02-.18.07-.05.05-.07.12-.07.18s.02.13.07.18c.05.05.11.07.18.07,1.78-.03,3.57-.09,5.35-.14.86-.03,1.71-.05,2.56-.08,6.46.06,12.88.95,19.12,2.62-4.69,1.4-7.13,6.42-6.72,11h6.72c-.24-.59-.59-1.13-1.02-1.6,0-.01-.01-.02-.02-.02-.01-.01-.02-.02-.02-.04-.01-.02-.01-.05-.01-.07,0-.01,0-.02,0-.04,0-.01,0-.02,0-.04,0-.01.01-.03.02-.04,0,0,.01-.01.01-.02,0,0,.02-.01.02-.02.01,0,.02-.02.04-.02.01-.01.05-.01.06-.01s.04.01.06.01c.02.01.05.02.06.04,1.97,1.42,1.91,3.84,1.87,5.21-.01.46-.02.8.05.95.28.62,2.8-1.81,1.6-7.06-.08-.35.61-1.14.88,1.33.62.22,1.27,4.09,1.27,5.29.02,2.3,1.32.26,1.68-1.92.36-2.16.03-3.7-.2-4.8-.1-.47-.18-.86-.18-1.18s.42-.34.54-.11v.06c.29.94.48,1.91.56,2.88ZM190.38,213.79c.56-.32,1.07-.77,1.46-1.28.41-.6-.15-.54-1.21-.41-1.09.12-2.7.31-4.33-.09.85.68,1.6,1.49,2.22,2.39h.01c.65-.07,1.27-.28,1.85-.6ZM258.36,235.37c6.42,0,8.32-2.57,9.35-8.9.19-1.16.29-2.36.4-3.57.08-.93.16-1.86.28-2.79h-7.45c-3.24,9.73-18.17,7.61-25.54,1.36-7.4-6.88-20.4-35.42-21.01-45.62,3.53-3.1,7.4-5.77,11.54-8,9.18,4.7,25.3,22.02,30.49,30.4.05.05.11.08.17.1.07.01.13,0,.19-.04.06-.02.1-.08.12-.14.02-.06.02-.13,0-.19-4.96-8.53-21.32-26.17-30.61-30.9-.25-.14-1.34.35-1.89.59-.11.05-.2.09-.25.11-2.36-3.94-1.73-7.88-1.41-9.85.2-1.23.28-1.7-.58-.93-1.29,1.19-1.93,2.81-2.56,4.43-.16.41-.32.81-.49,1.21-.11.27-.53.04-1.13-.31-1.22-.71-3.23-1.86-5.11-.12,1.88.37,1.91,1.18,1.37,1.12-.12-.01-.28-.08-.48-.18-.72-.33-2-.91-4.06.06,1.73,1.08.98,1.15.88,1.08-.88-.61-5.03-2.66-5.76-2.16-.32.23-.04.49.17.67,3.83,3.38,7.54,6.85,10.36,11.16-.16.19-1.57,1.68-1.57,1.68-.44,9.88,13.35,37.34,19.46,44.69l-42.91.23c-.03,1.15-.71,4.34-2.16,4.37-.88.01-.95-.72-1.09-1.98-.09-.83-.2-1.9-.58-3.13.05,5.34-2.84,6.98-3.01,4.51-.01-1.58-.23-3.17-.66-4.69,0,4.4-2.51,6.32-3.06,4.8-.07-.21-.07-.63-.07-1.16,0-.79,0-1.8-.25-2.68l-27.07.14c-3.63.02-7.27.08-10.9.14-5.75.1-11.5.2-17.26.12-.02.15-.04.3-.05.46-.74,6.07-1.73,14.23,11.33,14.07,8.18-.1,16.3-.1,24.46-.1l98.43-.04ZM203.75,257.83h26.14c-.68-1.73-1.39-3.49-2.1-5.26-2.29-5.71-4.61-11.49-6.2-16.57h-21.73c1.05,3.62,3.78,17.58,3.89,21.83ZM240.11,261.37c-.88-.91-1.68-1.9-2.39-2.95-11,.21-24.53.14-37.61.06-8.9-.05-17.59-.1-25.13-.06l-1.7,3.1,66.83-.14Z" fill="#4d3300" fill-rule="evenodd"/><path d="M157.28,323.95c-.12-.41-.25-.82-.4-1.21-.15-.39-.3-.76-.46-1.1l-2.11,1.04c.17.32.32.67.47,1.04.15.37.28.73.39,1.08.11.35.2.66.27.95.07.29.1.51.1.67,0,.33-.09.6-.28.8-.18.2-.42.36-.7.47-.28.1-.59.17-.92.21-.33.03-.64.04-.92.04h-1.89c-.53,0-1.08-.08-1.64-.25-.55-.17-1.08-.39-1.57-.67.36-.2.71-.41,1.03-.64.33-.23.62-.49.87-.78.25-.29.45-.62.6-.99.16-.36.25-.78.27-1.24v-.05c0-.33-.05-.63-.16-.9-.11-.27-.27-.51-.47-.72-.2-.21-.44-.39-.7-.54-.27-.15-.55-.26-.86-.36-.3-.09-.62-.16-.94-.2-.32-.04-.62-.06-.92-.06-1.01,0-1.97.18-2.9.53-.92.35-1.78.87-2.57,1.56l.17,1.95c.11.1.25.22.41.36.16.13.34.28.53.45.19.16.38.33.58.51.21.18.41.36.6.54-.55.26-1.07.58-1.56.94-.49.36-.92.78-1.3,1.25-.37.46-.67.97-.9,1.53-.22.57-.35,1.17-.36,1.83,0,.61.1,1.16.29,1.66.19.51.44.96.77,1.36.33.41.71.76,1.15,1.07.45.31.92.57,1.43.78.52.21,1.06.36,1.62.47.57.11,1.14.17,1.72.18h.19c.39,0,.77-.03,1.14-.09.43-.07.84-.16,1.23-.29.4-.13.79-.28,1.16-.47.38-.18.74-.37,1.1-.58l-1.23-2.05c-.32.21-.68.4-1.07.57-.38.16-.78.3-1.2.39-.42.1-.76.15-1.03.16-.27.01-.45.02-.54.02-.36,0-.72-.03-1.07-.09-.2-.03-.43-.09-.68-.18-.24-.09-.49-.2-.75-.34-.25-.13-.49-.3-.73-.48-.24-.18-.45-.39-.63-.61-.18-.22-.33-.46-.45-.71-.11-.26-.16-.52-.16-.8,0-.5.12-.95.36-1.34.24-.39.54-.75.91-1.06.38-.32.79-.59,1.25-.82.46-.24.91-.44,1.35-.62.46.32.92.62,1.38.89.46.26.92.49,1.38.68.46.19.93.34,1.41.44.46.1.93.15,1.41.15h0s.06,0,.06,0h1.87c.69,0,1.33-.07,1.94-.21.61-.14,1.14-.36,1.59-.67.46-.31.82-.71,1.08-1.21.26-.49.39-1.09.39-1.8,0-.4-.04-.8-.11-1.21-.07-.41-.17-.82-.29-1.23ZM146.56,325c-.35.18-.72.35-1.12.52-.18-.16-.37-.33-.56-.51-.19-.19-.37-.38-.56-.57-.18-.19-.34-.37-.5-.54-.16-.18-.3-.33-.43-.47.18-.1.39-.19.63-.27.24-.09.5-.15.76-.21.26-.06.53-.11.79-.14.27-.04.52-.05.77-.05.35.01.65.04.9.08.25.04.45.09.61.15.17.05.28.1.36.15.07.05.11.08.12.11,0,.21-.09.42-.24.62-.15.2-.36.4-.62.59-.26.18-.56.36-.9.54ZM152.58,331.41l1.57,1.57-1.55,1.55-1.57-1.56,1.55-1.56ZM156.04,331.42l1.57,1.56-1.55,1.56-1.57-1.57,1.55-1.55ZM181.98,325.59c.06.37.09.74.09,1.1,0,.57-.09,1.08-.26,1.53-.17.46-.43.85-.77,1.17-.34.32-.75.57-1.24.74-.47.17-1.02.26-1.63.26h-.13c-.29,0-.55-.04-.79-.12-.24-.07-.46-.18-.66-.31-.19-.14-.37-.3-.53-.47-.15-.18-.29-.36-.41-.54-.14.2-.29.39-.46.57-.16.17-.36.32-.58.45-.21.13-.46.23-.73.3-.27.08-.58.12-.93.13h-.06c-.27,0-.53-.04-.77-.11-.23-.07-.45-.17-.65-.3-.2-.13-.37-.29-.54-.47-.16-.18-.3-.36-.44-.56-.11.17-.26.33-.42.49-.16.16-.36.3-.59.43-.23.12-.51.22-.82.29-.31.07-.67.11-1.08.11h0s-.03,0-.03,0h-.33c-.15,0-.32-.02-.52-.05-.24-.04-.5-.15-.78-.33-.08.77-.31,1.5-.7,2.2-.39.71-.88,1.37-1.47,1.98-.58.62-1.24,1.18-1.98,1.69-.73.51-1.48.96-2.26,1.34l-1.02-2.11c.43-.22.85-.46,1.29-.71.43-.26.83-.53,1.22-.82.39-.29.75-.6,1.09-.91.34-.32.63-.65.88-.99.25-.35.44-.7.58-1.07.15-.37.22-.74.22-1.12,0-.27-.04-.58-.12-.9-.08-.33-.18-.68-.3-1.04-.12-.36-.25-.72-.39-1.09-.14-.37-.27-.73-.38-1.08l2.19-.91c.24.71.45,1.3.65,1.77.2.46.39.83.58,1.1.2.27.4.46.6.57.21.1.45.15.72.15h.28c.33,0,.63-.07.89-.22.27-.15.5-.34.7-.58.21-.24.39-.52.54-.83.16-.31.29-.63.41-.96.12-.33.22-.65.3-.97.09-.32.16-.61.23-.87l2.28.5c-.06.17-.13.39-.22.66-.09.26-.18.54-.26.84-.08.29-.15.59-.2.89-.04.22-.06.43-.06.63,0,.06,0,.17.02.32.01.15.07.3.18.46.12.15.3.22.56.22.27,0,.52-.08.74-.23.22-.16.41-.36.58-.61.18-.26.33-.54.46-.87.13-.32.25-.65.34-.99.1-.34.18-.67.24-1,.07-.32.12-.61.15-.87l2.14.41c-.02.15-.05.32-.08.52-.03.2-.06.42-.1.66-.04.23-.07.48-.11.73-.03.26-.05.51-.07.77v.15c0,.15.01.3.04.46.03.15.09.3.19.44.1.13.22.24.38.33.16.08.35.12.58.13.43,0,.79-.11,1.06-.33s.41-.55.41-1c0-.33-.05-.68-.14-1.07-.08-.38-.19-.76-.32-1.12-.12-.36-.25-.71-.39-1.03-.14-.32-.26-.59-.37-.8l1.96-1.09c.04.07.1.19.17.36.09.18.18.4.28.66.11.26.22.54.33.87.11.32.21.66.3,1.02.1.35.17.71.23,1.09ZM207.3,320.29l-1.74-1.75,1.74-1.74,1.75,1.74-1.75,1.75ZM210.42,325.18c.07.41.11.82.11,1.21,0,.68-.11,1.27-.35,1.76-.23.49-.55.89-.97,1.21-.41.31-.91.54-1.49.68-.57.15-1.2.23-1.89.23h-2.8c.24.3.4.59.48.88.08.29.13.55.14.77-.02.54-.16,1.01-.41,1.43-.25.43-.57.8-.97,1.11-.39.32-.83.59-1.33.81-.5.23-1.01.41-1.53.55-.52.14-1.04.24-1.55.3-.51.07-.97.1-1.38.1-1.05,0-2.02-.13-2.9-.39-.89-.26-1.65-.65-2.27-1.17-.63-.52-1.1-1.17-1.42-1.95-.26-.61-.38-1.31-.38-2.09,0-.21,0-.42.03-.64.04-.42.09-.85.15-1.29.07-.44.16-.9.27-1.38.12-.49.26-1,.44-1.54.18-.54.4-1.13.66-1.75l1.88.87c-.25.62-.46,1.2-.62,1.73-.16.52-.29,1.01-.39,1.46-.09.45-.16.87-.19,1.27-.04.4-.05.78-.05,1.14,0,.44.05.83.16,1.18.12.35.26.66.44.93.24.32.54.57.89.74.36.18.74.3,1.13.38.4.08.79.12,1.18.14.39.02.73.03,1.01.03.17,0,.42-.01.74-.04.33-.03.68-.07,1.07-.13.39-.06.79-.14,1.2-.24.41-.1.78-.22,1.1-.36.34-.15.61-.32.81-.51.21-.2.32-.42.32-.68,0-.04-.05-.11-.16-.2-.1-.09-.25-.18-.44-.29-.18-.11-.4-.23-.65-.35-.25-.12-.52-.23-.8-.34-.42-.14-.84-.24-1.25-.31-.41-.07-.83-.14-1.23-.21l.31-2.28h8.36c.29,0,.58-.02.88-.04.3-.04.58-.11.82-.21.24-.11.44-.27.59-.47.16-.2.24-.47.24-.8,0-.16-.03-.38-.1-.67s-.16-.6-.26-.95c-.11-.35-.24-.71-.39-1.08-.15-.37-.3-.72-.47-1.04l2.11-1.04c.15.35.3.72.46,1.1.15.39.29.79.4,1.21.12.41.22.82.29,1.23ZM219.94,331.5l1.75,1.74-1.75,1.75-1.74-1.75,1.74-1.74ZM228.41,331.42l1.57,1.56-1.55,1.56-1.57-1.57,1.55-1.55ZM224.96,331.41l1.57,1.57-1.55,1.55-1.57-1.56,1.55-1.56ZM236.89,321.42l-1.57-1.57,1.55-1.55,1.57,1.56-1.55,1.56ZM233.44,321.4l-1.57-1.56,1.55-1.56,1.57,1.57-1.55,1.55ZM247.98,318.86l-1.43-1.43,1.42-1.42,1.43,1.43-1.42,1.42ZM246.25,321.62l-1.57-1.56,1.55-1.56,1.57,1.57-1.55,1.55ZM248.13,320.07l1.55-1.55,1.57,1.56-1.55,1.56-1.57-1.57ZM257.5,330.27h-1.93c-.27-.01-.54-.04-.81-.09-.29-.06-.56-.16-.82-.28-.26-.13-.51-.29-.74-.48-.22-.2-.42-.44-.59-.71-.29.47-.68.85-1.15,1.14-.47.29-1,.43-1.57.43s-1.09-.14-1.56-.41c-.46-.27-.83-.64-1.1-1.1-.18.23-.37.43-.58.62-.2.18-.42.34-.66.48-.23.13-.48.24-.74.31-.26.08-.54.12-.82.12s-.54-.04-.79-.11c-.26-.07-.49-.17-.71-.3-.22-.13-.42-.3-.59-.48-.18-.2-.32-.41-.44-.65-.3.54-.68.92-1.12,1.16-.45.24-1.01.36-1.7.36h-.39v-.02c-.5-.02-.95-.1-1.31-.27-.41-.19-.76-.43-1.04-.73-.2.26-.5.45-.9.59-.39.13-.82.23-1.31.29-.48.07-.98.1-1.49.11-.49.01-.95.02-1.36.02h0s-.03,0-.03,0h-.34v-.02c-.5-.02-.95-.1-1.31-.27-.41-.19-.76-.43-1.04-.73-.2.26-.5.45-.89.59-.39.13-.82.23-1.31.29-.48.07-.98.1-1.49.11-.5.01-.95.02-1.37.02h0s-.02,0-.02,0h-.34v-.02c-.51-.02-.96-.1-1.34-.27-.41-.19-.76-.43-1.05-.73-.42.35-.93.6-1.53.77-.59.16-1.31.24-2.16.25h0s-.02,0-.02,0h-.34c-1.24,0-2.17-.31-2.81-.93-.64-.62-.96-1.56-.97-2.81,0-.2,0-.51.02-.96.01-.45.02-1,.02-1.64,0-.38,0-.79,0-1.23,0-.44-.01-.89-.03-1.35-.01-.46-.03-.92-.05-1.38-.02-.46-.04-.91-.07-1.33-.03-.43-.07-.83-.11-1.2-.04-.38-.09-.71-.15-.99l2.29-.68c.07.35.13.78.18,1.3.05.51.1,1.05.15,1.62.04.58.07,1.17.09,1.77.02.6.04,1.16.04,1.69,0,.32,0,.67,0,1.03,0,.36.01.68.01.95,0,.23,0,.45-.01.66,0,.2,0,.4,0,.58,0,.19,0,.38,0,.56v.7c0,.22.02.41.06.58.05.17.13.31.25.43.11.11.26.19.44.24.18.05.39.07.63.07h.39c.93,0,1.63-.16,2.1-.47.47-.32.71-.8.71-1.44,0-.21-.04-.49-.13-.85-.09-.37-.21-.82-.37-1.36l2.25-.63c.08.27.14.51.18.72.05.21.09.42.12.63.04.21.06.43.08.67.02.24.05.52.07.84.02.2.05.41.08.63.04.22.11.42.2.61.09.18.21.34.36.47.16.12.36.18.61.18h.16c.71,0,1.31-.04,1.8-.12.49-.09.88-.21,1.18-.37.3-.16.52-.36.66-.59.13-.24.2-.52.2-.84,0-.21-.04-.48-.12-.82-.08-.35-.2-.79-.36-1.33l2.25-.63c.08.27.14.51.18.71.05.2.09.41.11.61.03.2.05.42.07.66.02.23.05.51.07.83.02.2.06.41.14.63.07.22.17.42.3.61.13.18.29.34.48.47.19.12.41.18.66.18h.15c.71,0,1.31-.04,1.8-.12.49-.09.88-.21,1.18-.37.3-.16.52-.36.66-.59.13-.24.2-.52.2-.84,0-.21-.04-.48-.12-.82-.08-.35-.2-.79-.36-1.33l2.25-.63c.08.27.14.51.18.71.05.2.09.41.11.61.03.2.05.42.07.66.02.23.05.51.07.83.02.2.06.41.14.63.07.22.17.42.3.61.13.18.3.34.48.47.19.12.41.18.66.18h.19c.31,0,.6-.06.88-.18.28-.13.54-.35.79-.68.26-.33.49-.78.71-1.34.23-.57.44-1.29.64-2.17l2.24.63c-.15.51-.28.99-.39,1.46-.12.46-.18.86-.19,1.2v.08c0,.11,0,.22.03.35.02.12.06.23.12.34.05.1.13.18.22.25.09.05.18.08.28.08h.04c.23,0,.44-.09.64-.25s.39-.36.56-.61c.18-.25.33-.53.47-.85.15-.32.27-.64.38-.96.12-.33.21-.65.29-.96.08-.31.14-.59.18-.82l2.16.44c-.08.36-.14.7-.19,1.01-.05.3-.08.61-.09.92,0,.08-.01.16-.01.24,0,.15.01.33.03.54.02.2.08.4.16.59.08.2.19.36.33.48.15.12.34.18.57.18.26,0,.47-.1.63-.3.16-.21.29-.47.37-.79.09-.32.14-.67.16-1.05.03-.39.05-.77.05-1.13,0-.12,0-.21,0-.27v-.2c0-.06,0-.13,0-.2v-.32l2.31-.18c.02.2.04.4.05.59.02.19.04.39.05.59.02.2.04.42.06.65.03.23.06.47.1.74.04.32.13.59.27.83.14.24.3.43.48.59.18.16.38.28.58.36.21.08.41.12.6.12h1.92c.29,0,.59-.02.92-.04.33-.04.64-.11.92-.21.29-.11.52-.27.7-.47.19-.2.28-.47.28-.8,0-.16-.03-.38-.1-.67s-.15-.6-.27-.95c-.11-.35-.24-.71-.39-1.08-.15-.37-.3-.72-.47-1.04l2.11-1.04c.15.35.3.72.46,1.1.15.39.29.79.4,1.21.12.41.22.82.29,1.23.07.41.11.82.11,1.21,0,.71-.13,1.31-.39,1.8-.26.49-.62.9-1.08,1.21-.45.3-.98.53-1.59.67-.6.14-1.25.21-1.93.21ZM259.25,334.59l1.42,1.43-1.42,1.42-1.43-1.43,1.43-1.42ZM259.09,333.39l-1.55,1.55-1.57-1.56,1.55-1.56,1.57,1.57ZM262.54,333.4l-1.55,1.56-1.57-1.57,1.55-1.55,1.57,1.56Z" fill="#856f44"/></svg>