<svg width="40" height="41" viewBox="0 0 40 41" fill="none" xmlns="http://www.w3.org/2000/svg">
<path fill-rule="evenodd" clip-rule="evenodd" d="M26.6693 9.33398H22.3631H17.6421H13.3359C8.62189 9.33398 6.26487 9.33398 4.8004 10.7985C3.33594 12.2629 3.33594 14.6199 3.33594 19.334V26.0007C3.33594 30.7147 3.33594 33.0717 4.80041 34.5362C6.26487 36.0007 8.62189 36.0007 13.3359 36.0007L26.6693 36.0007V9.33398Z" fill="#007AFF"/>
<path opacity="0.5" d="M36.6641 19.3337V26.0003C36.6641 30.7144 36.6641 33.0714 35.1996 34.5359C33.8241 35.9114 31.6612 35.9949 27.4974 36H26.6641V9.33398H27.4974C31.6612 9.33906 33.8241 9.42262 35.1996 10.7981C36.6641 12.2626 36.6641 14.6196 36.6641 19.3337Z" fill="#007AFF"/>
<path opacity="0.5" d="M22.3605 9.33417L25.9491 5.1475C26.3984 4.62334 26.3377 3.83421 25.8135 3.38494C25.2894 2.93566 24.5002 2.99636 24.051 3.52052L20 8.2466L15.9491 3.52052C15.4998 2.99636 14.7107 2.93566 14.1865 3.38494C13.6624 3.83422 13.6017 4.62334 14.051 5.1475L17.6395 9.33417H22.3605Z" fill="#007AFF"/>
<path d="M31.6667 17.667C32.5871 17.667 33.3333 18.4132 33.3333 19.3337C33.3333 20.2541 32.5871 21.0003 31.6667 21.0003C30.7462 21.0003 30 20.2541 30 19.3337C30 18.4132 30.7462 17.667 31.6667 17.667Z" fill="#007AFF"/>
<path d="M31.6667 24.3337C32.5871 24.3337 33.3333 25.0799 33.3333 26.0003C33.3333 26.9208 32.5871 27.667 31.6667 27.667C30.7462 27.667 30 26.9208 30 26.0003C30 25.0799 30.7462 24.3337 31.6667 24.3337Z" fill="#007AFF"/>
</svg>
